SplineFontDB: 3.2
FontName: AbyssinicaSIL-Regular
FullName: Abyssinica SIL
FamilyName: Abyssinica SIL
Weight: Book
Copyright: Copyright (c) 2000-2019 by SIL International
Version: 2.000
ItalicAngle: 0
UnderlinePosition: -132
UnderlineWidth: 20
Ascent: 800
Descent: 200
InvalidEm: 0
sfntRevision: 0x00020000
LayerCount: 2
Layer: 0 1 "Zur+APwA-ck" 1
Layer: 1 1 "Zeichen" 0
XUID: [1021 302 -1520065498 22500]
StyleMap: 0x0040
FSType: 0
OS2Version: 4
OS2_WeightWidthSlopeOnly: 0
OS2_UseTypoMetrics: 0
CreationTime: 1555369527
ModificationTime: 1589121156
PfmFamily: 17
TTFWeight: 400
TTFWidth: 5
LineGap: 0
VLineGap: 0
Panose: 2 0 0 0 0 0 0 0 0 0
OS2TypoAscent: 993
OS2TypoAOffset: 0
OS2TypoDescent: -333
OS2TypoDOffset: 0
OS2TypoLinegap: 0
OS2WinAscent: 733
OS2WinAOffset: 0
OS2WinDescent: 218
OS2WinDOffset: 0
HheadAscent: 993
HheadAOffset: 0
HheadDescent: -333
HheadDOffset: 0
OS2SubXSize: 700
OS2SubYSize: 650
OS2SubXOff: 0
OS2SubYOff: 140
OS2SupXSize: 700
OS2SupYSize: 650
OS2SupXOff: 0
OS2SupYOff: 477
OS2StrikeYSize: 50
OS2StrikeYPos: 250
OS2CapHeight: 541
OS2XHeight: 480
OS2Vendor: 'SIL '
OS2CodePages: 20000001.00000000
OS2UnicodeRanges: 800000ef.5000a04b.00000828.00000000
Lookup: 1 8 0 "Single Substitution lookup 0" { "Single Substitution lookup 0 subtable"  } []
Lookup: 2 8 0 "Multiple Substitution lookup 1" { "Multiple Substitution lookup 1 subtable"  } []
Lookup: 6 8 0 "'ccmp' Zeichenzusammensetzung in Ethiopic lookup 2" { "'ccmp' Zeichenzusammensetzung in Ethiopic lookup 2 subtable"  } ['ccmp' ('DFLT' <'dflt' > 'ethi' <'CHG ' 'GMZ ' 'dflt' > ) ]
Lookup: 1 0 0 "'locl' Localized Forms in Ethiopic lookup 3" { "'locl' Localized Forms in Ethiopic lookup 3 subtable"  } ['cv20' ('DFLT' <'dflt' > 'ethi' <'CHG ' 'GMZ ' 'dflt' > ) 'locl' ('ethi' <'GMZ ' > ) ]
Lookup: 1 0 0 "'locl' Localized Forms in Ethiopic lookup 4" { "'locl' Localized Forms in Ethiopic lookup 4 subtable"  } ['locl' ('ethi' <'GMZ ' > ) ]

StartChar: .notdef
Encoding: 1114112 -1 0
Width: 683
Flags: W
LayerCount: 2
Fore
SplineSet
49 0 m 1,0,-1
 49 879 l 1,1,-1
 635 879 l 1,2,-1
 635 0 l 1,3,-1
 49 0 l 1,0,-1
73 854 m 1,4,-1
 73 24 l 1,5,-1
 610 24 l 1,6,-1
 610 854 l 1,7,-1
 73 854 l 1,4,-1
EndSplineSet
EndChar

StartChar: exclam
Encoding: 33 33 4
Width: 540
Flags: W
LayerCount: 2
Fore
SplineSet
306 540 m 0,0,1
 306 518 306 518 303.5 496 c 128,-1,2
 301 474 301 474 297 448 c 2,3,-1
 263 200 l 1,4,-1
 216 200 l 1,5,-1
 184 429 l 2,6,7
 180 464 180 464 176 489 c 128,-1,8
 172 514 172 514 172 541 c 0,9,10
 172 599 172 599 190 626 c 128,-1,11
 208 653 208 653 240 653 c 0,12,13
 272 653 272 653 289 628.5 c 128,-1,14
 306 604 306 604 306 540 c 0,0,1
317 77 m 0,15,16
 317 45 317 45 295 22.5 c 128,-1,17
 273 0 273 0 241 0 c 0,18,19
 209 0 209 0 186.5 22.5 c 128,-1,20
 164 45 164 45 164 77 c 0,21,22
 164 109 164 109 186.5 131 c 128,-1,23
 209 153 209 153 241 153 c 0,24,25
 273 153 273 153 295 131 c 128,-1,26
 317 109 317 109 317 77 c 0,15,16
EndSplineSet
Substitution2: "'cv01' Zeichenvariante 01 in Ethiopic lookup 12 subtable" exclam.punct
EndChar

StartChar: exclam.punct
Encoding: 1114115 -1 5
Width: 337
Flags: W
LayerCount: 2
Fore
SplineSet
230 622 m 0,0,1
 230 618 230 618 227.5 584.5 c 128,-1,2
 225 551 225 551 220.5 501 c 128,-1,3
 216 451 216 451 212 395.5 c 128,-1,4
 208 340 208 340 203.5 291.5 c 128,-1,5
 199 243 199 243 196.5 212 c 0,6,-1
 194 181 l 1,7,-1
 145 181 l 1,8,9
 142.5 212 l 0,10,11
 140 243 140 243 135.5 291.5 c 128,-1,12
 131 340 131 340 126.5 395.5 c 128,-1,13
 122 451 122 451 117.5 501 c 128,-1,14
 113 551 113 551 110.5 584.5 c 128,-1,15
 108 618 108 618 108 622 c 0,16,17
 108 652 108 652 123 669.5 c 128,-1,18
 138 687 138 687 169 687 c 0,19,20
 201 687 201 687 215.5 669.5 c 128,-1,21
 230 652 230 652 230 622 c 0,0,1
231 50 m 0,22,23
 231 26 231 26 213 7 c 128,-1,24
 195 -12 195 -12 169 -12 c 0,25,26
 144 -12 144 -12 126 6.5 c 128,-1,27
 108 25 108 25 108 50 c 0,28,29
 108 76 108 76 126 93.5 c 128,-1,30
 144 111 144 111 169 111 c 0,31,32
 195 111 195 111 213 93.5 c 128,-1,33
 231 76 231 76 231 50 c 0,22,23
EndSplineSet
EndChar

StartChar: quotedbl
Encoding: 34 34 6
Width: 454
Flags: W
LayerCount: 2
Fore
SplineSet
371 616 m 0,0,1
 371 605 371 605 369 582.5 c 128,-1,2
 367 560 367 560 360 522 c 2,3,-1
 332 374 l 1,4,-1
 307 374 l 1,5,-1
 280 522 l 2,6,7
 268 586 268 586 268 609 c 0,8,9
 268 641 268 641 281.5 655.5 c 128,-1,10
 295 670 295 670 320 670 c 256,11,12
 344 670 344 670 357.5 653.5 c 128,-1,13
 371 637 371 637 371 616 c 0,0,1
185 615 m 0,14,15
 185 596 185 596 171 523 c 2,16,-1
 143 374 l 1,17,-1
 122 374 l 1,18,-1
 94 524 l 2,19,20
 88 555 88 555 85.5 576 c 128,-1,21
 83 597 83 597 83 609 c 0,22,23
 83 644 83 644 97 657 c 128,-1,24
 111 670 111 670 133 670 c 0,25,26
 156 670 156 670 170.5 654.5 c 128,-1,27
 185 639 185 639 185 615 c 0,14,15
EndSplineSet
EndChar

StartChar: numbersign
Encoding: 35 35 7
Width: 743
Flags: W
LayerCount: 2
Fore
SplineSet
682 421 m 1,0,-1
 524 421 l 1,1,-1
 477 278 l 1,2,-1
 638 278 l 1,3,-1
 638 228 l 1,4,-1
 459 228 l 1,5,-1
 375 -23 l 1,6,-1
 325 -7 l 1,7,-1
 403 228 l 1,8,-1
 258 228 l 1,9,-1
 173 -23 l 1,10,-1
 124 -6 l 1,11,-1
 204 228 l 1,12,-1
 62 228 l 1,13,-1
 62 278 l 1,14,-1
 220 278 l 1,15,-1
 269 421 l 1,16,-1
 107 421 l 1,17,-1
 107 472 l 1,18,-1
 286 472 l 1,19,-1
 366 708 l 1,20,-1
 417 692 l 1,21,-1
 340 472 l 1,22,-1
 486 472 l 1,23,-1
 565 708 l 1,24,-1
 618 692 l 1,25,-1
 542 472 l 1,26,-1
 682 472 l 1,27,-1
 682 421 l 1,0,-1
469 421 m 1,28,-1
 324 421 l 1,29,-1
 275 278 l 1,30,-1
 420 278 l 1,31,-1
 469 421 l 1,28,-1
EndSplineSet
EndChar

StartChar: dollar
Encoding: 36 36 8
Width: 540
Flags: W
LayerCount: 2
Fore
SplineSet
482 173 m 0,0,1
 482 121 482 121 442.5 75 c 128,-1,2
 403 29 403 29 336 10 c 1,3,-1
 336 -51 l 1,4,-1
 282 -51 l 1,5,-1
 282 1 l 1,6,7
 276 1 276 1 270 0.5 c 128,-1,8
 264 0 264 0 257 0 c 2,9,-1
 243 0 l 1,10,-1
 243 -51 l 1,11,-1
 189 -51 l 1,12,-1
 189 9 l 1,13,14
 126 27 126 27 85 75 c 128,-1,15
 44 123 44 123 44 196 c 1,16,-1
 136 196 l 1,17,18
 136 165 136 165 150 137 c 128,-1,19
 164 109 164 109 189 92 c 1,20,-1
 189 311 l 1,21,22
 126 331 126 331 84.5 367.5 c 128,-1,23
 43 404 43 404 43 471 c 0,24,25
 43 533 43 533 84 573 c 128,-1,26
 125 613 125 613 189 627 c 1,27,-1
 189 686 l 1,28,-1
 243 686 l 1,29,-1
 243 634 l 1,30,31
 253 634 253 634 263 634 c 128,-1,32
 273 634 273 634 282 633 c 1,33,-1
 282 686 l 1,34,-1
 336 686 l 1,35,-1
 336 625 l 1,36,37
 393 610 393 610 431.5 571.5 c 128,-1,38
 470 533 470 533 477 472 c 1,39,-1
 395 472 l 1,40,41
 386 525 386 525 336 552 c 1,42,-1
 336 345 l 1,43,44
 407 321 407 321 444.5 278 c 128,-1,45
 482 235 482 235 482 173 c 0,0,1
282 72 m 1,46,-1
 282 285 l 1,47,-1
 243 297 l 1,48,-1
 243 72 l 1,49,50
 250 71 250 71 262.5 71.5 c 128,-1,51
 275 72 275 72 282 72 c 1,46,-1
282 361 m 1,52,53
 282 405 282 405 282 446.5 c 128,-1,54
 282 488 282 488 281 520.5 c 128,-1,55
 280 553 280 553 279 569 c 0,56,57
 278.5 569 l 1,58,-1
 278 569 l 0,59,60
 269 570 269 570 260.5 570.5 c 128,-1,61
 252 571 252 571 243 571 c 1,62,-1
 243 374 l 1,63,64
 252 371 252 371 261.5 367.5 c 128,-1,65
 271 364 271 364 282 361 c 1,52,53
189 396 m 1,66,-1
 189 558 l 1,67,68
 163 545 163 545 150.5 523 c 128,-1,69
 138 501 138 501 138 474 c 0,70,71
 138 449 138 449 148.5 431 c 128,-1,72
 159 413 159 413 189 396 c 1,66,-1
383 179 m 0,73,74
 383 202 383 202 372.5 222 c 128,-1,75
 362 242 362 242 336 259 c 1,76,-1
 336 91 l 1,77,78
 361 107 361 107 372 130.5 c 128,-1,79
 383 154 383 154 383 179 c 0,73,74
EndSplineSet
Substitution2: "'cv01' Zeichenvariante 01 in Ethiopic lookup 12 subtable" dollar.punct
EndChar

StartChar: dollar.punct
Encoding: 1114116 -1 9
Width: 562
Flags: W
LayerCount: 2
Fore
SplineSet
505 190 m 0,0,1
 505 144 505 144 483.5 109 c 128,-1,2
 462 74 462 74 430 50 c 128,-1,3
 398 26 398 26 364.5 13.5 c 128,-1,4
 331 1 331 1 306 0 c 1,5,-1
 306 -103 l 1,6,-1
 260 -103 l 1,7,-1
 260 0 l 1,8,-1
 245 1 l 2,9,10
 207 3 207 3 155.5 7.5 c 128,-1,11
 104 12 104 12 58 26 c 1,12,-1
 58 196 l 1,13,-1
 108 196 l 1,14,-1
 126 84 l 1,15,16
 140 67 140 67 179.5 58 c 128,-1,17
 219 49 219 49 260 49 c 1,18,-1
 260 302 l 1,19,20
 217 312 217 312 174 333 c 128,-1,21
 131 354 131 354 102.5 390.5 c 128,-1,22
 74 427 74 427 74 484 c 0,23,24
 74 529 74 529 92 562 c 128,-1,25
 110 595 110 595 138.5 617 c 128,-1,26
 167 639 167 639 199 651.5 c 128,-1,27
 231 664 231 664 261 668 c 1,28,-1
 261 743 l 1,29,-1
 307 743 l 1,30,-1
 307 671 l 1,31,32
 350 671 350 671 389 665.5 c 128,-1,33
 428 660 428 660 452.5 654 c 0,34,-1
 477 648 l 1,35,-1
 477 490 l 1,36,-1
 425 490 l 1,37,-1
 410 596 l 1,38,39
 387 622 387 622 307 622 c 1,40,-1
 307 384 l 1,41,42
 340 374 340 374 374.5 361.5 c 128,-1,43
 409 349 409 349 438.5 328.5 c 128,-1,44
 468 308 468 308 486.5 274.5 c 128,-1,45
 505 241 505 241 505 190 c 0,0,1
261 397 m 1,46,-1
 261 618 l 1,47,48
 221 610 221 610 194 581.5 c 128,-1,49
 167 553 167 553 167 504 c 0,50,51
 167 472 167 472 182 451 c 128,-1,52
 197 430 197 430 218.5 417.5 c 128,-1,53
 240 405 240 405 261 397 c 1,46,-1
414 171 m 0,54,55
 414 208 414 208 399 230.5 c 128,-1,56
 384 253 384 253 359 267 c 128,-1,57
 334 281 334 281 306 290 c 1,58,-1
 306 53 l 1,59,60
 348 60 348 60 381 88.5 c 128,-1,61
 414 117 414 117 414 171 c 0,54,55
EndSplineSet
EndChar

StartChar: percent
Encoding: 37 37 10
Width: 789
Flags: W
LayerCount: 2
Fore
SplineSet
746 160 m 256,0,1
 746 77 746 77 701.5 37 c 128,-1,2
 657 -3 657 -3 594 -3 c 0,3,4
 532 -3 532 -3 487.5 37.5 c 128,-1,5
 443 78 443 78 443 160 c 256,6,7
 443 243 443 243 487.5 283 c 128,-1,8
 532 323 532 323 594 323 c 0,9,10
 657 323 657 323 701.5 283 c 128,-1,11
 746 243 746 243 746 160 c 256,0,1
629 626 m 1,12,-1
 267 -12 l 1,13,-1
 168 -12 l 1,14,-1
 530 626 l 1,15,-1
 629 626 l 1,12,-1
346 454 m 256,16,17
 346 371 346 371 301.5 331 c 128,-1,18
 257 291 257 291 194 291 c 0,19,20
 132 291 132 291 87.5 331.5 c 128,-1,21
 43 372 43 372 43 454 c 256,22,23
 43 537 43 537 87.5 577 c 128,-1,24
 132 617 132 617 194 617 c 0,25,26
 257 617 257 617 301.5 577 c 128,-1,27
 346 537 346 537 346 454 c 256,16,17
663 160 m 0,28,29
 663 204 663 204 649 231 c 128,-1,30
 635 258 635 258 594 258 c 0,31,32
 555 258 555 258 540 231.5 c 128,-1,33
 525 205 525 205 525 160 c 0,34,35
 525 117 525 117 539 90 c 128,-1,36
 553 63 553 63 594 63 c 0,37,38
 635 63 635 63 649 90 c 128,-1,39
 663 117 663 117 663 160 c 0,28,29
263 454 m 0,40,41
 263 498 263 498 248.5 525 c 128,-1,42
 234 552 234 552 194 552 c 0,43,44
 155 552 155 552 140 525.5 c 128,-1,45
 125 499 125 499 125 454 c 0,46,47
 125 411 125 411 139 384 c 128,-1,48
 153 357 153 357 194 357 c 0,49,50
 235 357 235 357 249 384 c 128,-1,51
 263 411 263 411 263 454 c 0,40,41
EndSplineSet
Substitution2: "'cv01' Zeichenvariante 01 in Ethiopic lookup 12 subtable" percent.punct
EndChar

StartChar: percent.punct
Encoding: 1114117 -1 11
Width: 859
Flags: W
LayerCount: 2
Fore
SplineSet
828 194 m 0,0,1
 828 135 828 135 811 87.5 c 128,-1,2
 794 40 794 40 760.5 12 c 128,-1,3
 727 -16 727 -16 675 -16 c 0,4,5
 624 -16 624 -16 589.5 12 c 128,-1,6
 555 40 555 40 538 87.5 c 128,-1,7
 521 135 521 135 521 194 c 0,8,9
 521 254 521 254 538 301.5 c 128,-1,10
 555 349 555 349 589.5 376.5 c 128,-1,11
 624 404 624 404 675 404 c 0,12,13
 727 404 727 404 760.5 376.5 c 128,-1,14
 794 349 794 349 811 301.5 c 128,-1,15
 828 254 828 254 828 194 c 0,0,1
674 671 m 1,16,-1
 250 0 l 1,17,-1
 187 0 l 1,18,-1
 612 671 l 1,19,-1
 674 671 l 1,16,-1
339 477 m 256,20,21
 339 417 339 417 322 369.5 c 128,-1,22
 305 322 305 322 271.5 294.5 c 128,-1,23
 238 267 238 267 186 267 c 0,24,25
 135 267 135 267 100.5 294.5 c 128,-1,26
 66 322 66 322 49 369.5 c 128,-1,27
 32 417 32 417 32 477 c 256,28,29
 32 537 32 537 49 584.5 c 128,-1,30
 66 632 66 632 100.5 659.5 c 128,-1,31
 135 687 135 687 186 687 c 0,32,33
 238 687 238 687 271.5 659.5 c 128,-1,34
 305 632 305 632 322 584.5 c 128,-1,35
 339 537 339 537 339 477 c 256,20,21
751 194 m 256,36,37
 751 273 751 273 733 319.5 c 128,-1,38
 715 366 715 366 675 366 c 0,39,40
 635 366 635 366 615.5 319 c 128,-1,41
 596 272 596 272 596 194 c 256,42,43
 596 115 596 115 615.5 68 c 128,-1,44
 635 21 635 21 675 21 c 0,45,46
 716 21 716 21 733.5 68 c 128,-1,47
 751 115 751 115 751 194 c 256,36,37
262 477 m 256,48,49
 262 556 262 556 244.5 602.5 c 128,-1,50
 227 649 227 649 186 649 c 256,51,52
 145 649 145 649 126 602.5 c 128,-1,53
 107 556 107 556 107 477 c 256,54,55
 107 398 107 398 126.5 351.5 c 128,-1,56
 146 305 146 305 186 305 c 256,57,58
 227 305 227 305 244.5 351.5 c 128,-1,59
 262 398 262 398 262 477 c 256,48,49
EndSplineSet
EndChar

StartChar: ampersand
Encoding: 38 38 12
Width: 699
Flags: W
LayerCount: 2
Fore
SplineSet
679 0 m 1,0,-1
 495 0 l 1,1,-1
 495 24 l 1,2,-1
 450 74 l 1,3,4
 424 53 424 53 395 33.5 c 128,-1,5
 366 14 366 14 330 1 c 128,-1,6
 294 -12 294 -12 247 -12 c 0,7,8
 190 -12 190 -12 142.5 14 c 128,-1,9
 95 40 95 40 67 84.5 c 128,-1,10
 39 129 39 129 39 186 c 0,11,12
 39 252 39 252 76.5 294.5 c 128,-1,13
 114 337 114 337 173 362 c 1,14,-1
 168 366 l 2,15,16
 156 378 156 378 137 399.5 c 128,-1,17
 118 421 118 421 103.5 450.5 c 128,-1,18
 89 480 89 480 89 515 c 0,19,20
 89 565 89 565 114 603 c 128,-1,21
 139 641 139 641 182 662.5 c 128,-1,22
 225 684 225 684 279 684 c 0,23,24
 330 684 330 684 369.5 664.5 c 128,-1,25
 409 645 409 645 432 611 c 128,-1,26
 455 577 455 577 455 533 c 0,27,28
 455 484 455 484 433.5 451 c 128,-1,29
 412 418 412 418 378.5 396.5 c 128,-1,30
 345 375 345 375 308 358 c 1,31,-1
 476 177 l 1,32,33
 486 190 486 190 499 211 c 128,-1,34
 512 232 512 232 522 255 c 128,-1,35
 532 278 532 278 532 295 c 0,36,37
 532 300 532 300 526.5 306 c 128,-1,38
 521 312 521 312 515 313 c 2,39,-1
 461 321 l 1,40,-1
 461 363 l 1,41,-1
 666 363 l 1,42,-1
 666 321 l 1,43,-1
 594 310 l 1,44,45
 580 259 580 259 555.5 215 c 128,-1,46
 531 171 531 171 509 141 c 1,47,-1
 590 48 l 1,48,-1
 679 43 l 1,49,-1
 679 0 l 1,0,-1
363 527 m 0,50,51
 363 570 363 570 340 602.5 c 128,-1,52
 317 635 317 635 269 635 c 0,53,54
 228 635 228 635 203.5 607.5 c 128,-1,55
 179 580 179 580 179 541 c 0,56,57
 179 510 179 510 192.5 484.5 c 128,-1,58
 206 459 206 459 225.5 438.5 c 128,-1,59
 245 418 245 418 263 401 c 2,60,-1
 272 392 l 1,61,62
 315 413 315 413 339 445 c 128,-1,63
 363 477 363 477 363 527 c 0,50,51
418 109 m 1,64,-1
 212 333 l 1,65,66
 182 312 182 312 161 283 c 128,-1,67
 140 254 140 254 140 209 c 256,68,69
 140 164 140 164 159.5 129 c 128,-1,70
 179 94 179 94 212 73.5 c 128,-1,71
 245 53 245 53 285 53 c 0,72,73
 331 53 331 53 362 70.5 c 128,-1,74
 393 88 393 88 418 109 c 1,64,-1
EndSplineSet
EndChar

StartChar: quotesingle
Encoding: 39 39 13
Width: 187
Flags: W
LayerCount: 2
Fore
SplineSet
145 616 m 0,0,1
 145 599 145 599 131 523 c 2,2,-1
 104 374 l 1,3,-1
 81 374 l 1,4,-1
 54 524 l 2,5,6
 48 556 48 556 45.5 577 c 128,-1,7
 43 598 43 598 43 609 c 0,8,9
 43 670 43 670 91 670 c 0,10,11
 120 670 120 670 132.5 652 c 128,-1,12
 145 634 145 634 145 616 c 0,0,1
EndSplineSet
EndChar

StartChar: parenleft
Encoding: 40 40 14
Width: 332
Flags: W
LayerCount: 2
Fore
SplineSet
272 -4 m 0,0,1
 272 -20 272 -20 253 -20 c 0,2,3
 238 -20 238 -20 214 0 c 128,-1,4
 190 20 190 20 163.5 54 c 128,-1,5
 137 88 137 88 113.5 133.5 c 128,-1,6
 90 179 90 179 75 230 c 128,-1,7
 60 281 60 281 60 334 c 256,8,9
 60 387 60 387 74.5 438 c 128,-1,10
 89 489 89 489 112 534 c 128,-1,11
 135 579 135 579 162 613.5 c 128,-1,12
 189 648 189 648 214 667.5 c 128,-1,13
 239 687 239 687 256 687 c 0,14,15
 262 687 262 687 267 683.5 c 128,-1,16
 272 680 272 680 272 670 c 0,17,18
 272 659 272 659 261 646.5 c 128,-1,19
 250 634 250 634 234.5 613.5 c 128,-1,20
 219 593 219 593 203.5 558.5 c 128,-1,21
 188 524 188 524 177 469 c 128,-1,22
 166 414 166 414 166 332 c 256,23,24
 166 250 166 250 177 196 c 128,-1,25
 188 142 188 142 203.5 108 c 128,-1,26
 219 74 219 74 234.5 54.5 c 128,-1,27
 250 35 250 35 261 22 c 128,-1,28
 272 9 272 9 272 -4 c 0,0,1
EndSplineSet
EndChar

StartChar: parenright
Encoding: 41 41 15
Width: 332
Flags: W
LayerCount: 2
Fore
SplineSet
272 333 m 256,0,1
 272 280 272 280 257.5 229 c 128,-1,2
 243 178 243 178 220 133 c 128,-1,3
 197 88 197 88 170 53.5 c 128,-1,4
 143 19 143 19 118 -0.5 c 128,-1,5
 93 -20 93 -20 76 -20 c 0,6,7
 70 -20 70 -20 65 -16.5 c 128,-1,8
 60 -13 60 -13 60 -3 c 0,9,10
 60 8 60 8 71 20.5 c 128,-1,11
 82 33 82 33 97.5 53.5 c 128,-1,12
 113 74 113 74 129 108.5 c 128,-1,13
 145 143 145 143 155.5 198 c 128,-1,14
 166 253 166 253 166 335 c 256,15,16
 166 417 166 417 155.5 471 c 128,-1,17
 145 525 145 525 129 559 c 128,-1,18
 113 593 113 593 97.5 612.5 c 128,-1,19
 82 632 82 632 71 645 c 128,-1,20
 60 658 60 658 60 671 c 0,21,22
 60 687 60 687 79 687 c 0,23,24
 94 687 94 687 118 667 c 128,-1,25
 142 647 142 647 168.5 613 c 128,-1,26
 195 579 195 579 218.5 533.5 c 128,-1,27
 242 488 242 488 257 437 c 128,-1,28
 272 386 272 386 272 333 c 256,0,1
EndSplineSet
EndChar

StartChar: asterisk
Encoding: 42 42 16
Width: 486
Flags: W
LayerCount: 2
Fore
SplineSet
362 612 m 0,0,1
 383 612 383 612 401 595.5 c 128,-1,2
 419 579 419 579 419 558 c 0,3,4
 419 530 419 530 400.5 514 c 128,-1,5
 382 498 382 498 355 498 c 0,6,7
 334 498 334 498 314.5 502.5 c 128,-1,8
 295 507 295 507 287 507 c 0,9,10
 286 507 l 0,11,12
 285 507 285 507 284 507 c 0,13,14
 272 504 272 504 272 497 c 0,15,16
 272 493 272 493 277 486 c 0,17,18
 280 482 280 482 296 476 c 128,-1,19
 312 470 312 470 331.5 460.5 c 128,-1,20
 351 451 351 451 362 436 c 0,21,22
 372 423 372 423 372 406 c 0,23,24
 372 381 372 381 356.5 364 c 128,-1,25
 341 347 341 347 316 347 c 0,26,27
 304 347 304 347 292 352 c 128,-1,28
 280 357 280 357 271 370 c 0,29,30
 261 385 261 385 256.5 405 c 128,-1,31
 252 425 252 425 250.5 442 c 128,-1,32
 249 459 249 459 246 463 c 0,33,34
 241 471 241 471 235 471 c 256,35,36
 229 471 229 471 224 463 c 0,37,38
 222 460 222 460 221.5 442 c 128,-1,39
 221 424 221 424 217.5 403 c 128,-1,40
 214 382 214 382 203 366 c 0,41,42
 194 354 194 354 182 349.5 c 128,-1,43
 170 345 170 345 158 345 c 0,44,45
 136 345 136 345 124 354 c 0,46,47
 116 359 116 359 108.5 372.5 c 128,-1,48
 101 386 101 386 101 402 c 0,49,50
 101 420 101 420 112 434 c 256,51,52
 123 449 123 449 141 458.5 c 128,-1,53
 159 468 159 468 174.5 474.5 c 128,-1,54
 190 481 190 481 193 486 c 0,55,56
 197 492 197 492 197 497 c 0,57,58
 197 504 197 504 185 507 c 0,59,60
 179 507 179 507 157 500.5 c 128,-1,61
 135 494 135 494 111 494 c 0,62,63
 84 494 84 494 67 509.5 c 128,-1,64
 50 525 50 525 50 553 c 0,65,66
 50 562 50 562 52 568 c 0,67,68
 55 579 55 579 69.5 593 c 128,-1,69
 84 607 84 607 105 607 c 0,70,71
 114 607 114 607 123 604 c 0,72,73
 141 599 141 599 156 584.5 c 128,-1,74
 171 570 171 570 182.5 557 c 128,-1,75
 194 544 194 544 198 543 c 0,76,77
 200 542 200 542 205 542 c 0,78,79
 216 542 216 542 216 556 c 0,80,81
 216 560 216 560 206 574.5 c 128,-1,82
 196 589 196 589 186 608.5 c 128,-1,83
 176 628 176 628 176 647 c 256,84,85
 176 666 176 666 186.5 678.5 c 128,-1,86
 197 691 197 691 210.5 697 c 128,-1,87
 224 703 224 703 233 703 c 128,-1,88
 242 703 242 703 255.5 697 c 128,-1,89
 269 691 269 691 279 678.5 c 128,-1,90
 289 666 289 666 289 646 c 0,91,92
 289 628 289 628 280 609 c 128,-1,93
 271 590 271 590 262.5 575.5 c 128,-1,94
 254 561 254 561 254 556 c 0,95,96
 254 541 254 541 264 542 c 0,97,98
 267 542 267 542 272 543 c 0,99,100
 276 544 276 544 286.5 558 c 128,-1,101
 297 572 297 572 312.5 587.5 c 128,-1,102
 328 603 328 603 346 609 c 0,103,104
 355 612 355 612 362 612 c 0,0,1
EndSplineSet
Substitution2: "'cv01' Zeichenvariante 01 in Ethiopic lookup 12 subtable" asterisk.punct
EndChar

StartChar: asterisk.punct
Encoding: 1114118 -1 17
Width: 500
Flags: W
LayerCount: 2
Fore
SplineSet
447 570 m 1,0,-1
 402 513 l 1,1,-1
 273 506 l 1,2,-1
 268 520 l 1,3,-1
 376 591 l 1,4,-1
 447 570 l 1,0,-1
292 655 m 1,5,-1
 257 530 l 1,6,-1
 243 530 l 1,7,-1
 209 655 l 1,8,-1
 250 716 l 1,9,-1
 292 655 l 1,5,-1
371 337 m 1,10,-1
 302 363 l 1,11,-1
 256 483 l 1,12,-1
 268 492 l 1,13,-1
 371 411 l 1,14,-1
 371 337 l 1,10,-1
232 520 m 1,15,-1
 228 506 l 1,16,-1
 98 513 l 1,17,-1
 53 570 l 1,18,-1
 124 591 l 1,19,-1
 232 520 l 1,15,-1
244 483 m 1,20,-1
 198 363 l 1,21,-1
 131 337 l 1,22,-1
 131 411 l 1,23,-1
 232 492 l 1,24,-1
 244 483 l 1,20,-1
EndSplineSet
EndChar

StartChar: plus
Encoding: 43 43 18
Width: 586
Flags: W
LayerCount: 2
Fore
SplineSet
528 234 m 1,0,-1
 345 234 l 1,1,-1
 345 54 l 1,2,-1
 240 54 l 1,3,-1
 240 234 l 1,4,-1
 61 234 l 1,5,-1
 61 340 l 1,6,-1
 240 340 l 1,7,-1
 240 519 l 1,8,-1
 345 519 l 1,9,-1
 345 340 l 1,10,-1
 528 340 l 1,11,-1
 528 234 l 1,0,-1
EndSplineSet
Substitution2: "'cv01' Zeichenvariante 01 in Ethiopic lookup 12 subtable" plus.punct
EndChar

StartChar: plus.punct
Encoding: 1114119 -1 19
Width: 1000
Flags: W
LayerCount: 2
Fore
SplineSet
800 269 m 1,0,-1
 531 269 l 1,1,-1
 531 0 l 1,2,-1
 469 0 l 1,3,-1
 469 269 l 1,4,-1
 200 269 l 1,5,-1
 200 331 l 1,6,-1
 469 331 l 1,7,-1
 469 600 l 1,8,-1
 531 600 l 1,9,-1
 531 331 l 1,10,-1
 800 331 l 1,11,-1
 800 269 l 1,0,-1
EndSplineSet
EndChar

StartChar: comma
Encoding: 44 44 20
Width: 339
Flags: W
LayerCount: 2
Fore
SplineSet
239 44 m 0,0,1
 239 -3 239 -3 222 -42 c 128,-1,2
 205 -81 205 -81 179.5 -109 c 128,-1,3
 154 -137 154 -137 129 -152 c 128,-1,4
 104 -167 104 -167 88 -167 c 0,5,6
 73 -167 73 -167 73 -155 c 0,7,8
 73 -151 73 -151 94 -130 c 0,9,10
 124 -101 124 -101 138.5 -71 c 128,-1,11
 153 -41 153 -41 153 0 c 1,12,13
 122 0 122 0 101 18 c 128,-1,14
 80 36 80 36 80 72 c 0,15,16
 80 108 80 108 100.5 130.5 c 128,-1,17
 121 153 121 153 156 153 c 0,18,19
 192 153 192 153 215.5 131 c 128,-1,20
 239 109 239 109 239 44 c 0,0,1
EndSplineSet
EndChar

StartChar: hyphen
Encoding: 45 45 21
Width: 367
Flags: W
LayerCount: 2
Fore
SplineSet
306 193 m 1,0,-1
 60 193 l 1,1,-1
 60 266 l 1,2,-1
 306 266 l 1,3,-1
 306 193 l 1,0,-1
EndSplineSet
EndChar

StartChar: period
Encoding: 46 46 22
Width: 318
Flags: W
LayerCount: 2
Fore
SplineSet
213 77 m 256,0,1
 213 45 213 45 190.5 22.5 c 128,-1,2
 168 0 168 0 136 0 c 0,3,4
 103 0 103 0 81 22.5 c 128,-1,5
 59 45 59 45 59 77 c 256,6,7
 59 109 59 109 81.5 131.5 c 128,-1,8
 104 154 104 154 136 154 c 0,9,10
 168 154 168 154 190.5 131.5 c 128,-1,11
 213 109 213 109 213 77 c 256,0,1
EndSplineSet
EndChar

StartChar: slash
Encoding: 47 47 23
Width: 407
Flags: W
LayerCount: 2
Fore
SplineSet
406 700 m 1,0,-1
 109 -6 l 1,1,-1
 0 -5 l 1,2,-1
 298 700 l 1,3,-1
 406 700 l 1,0,-1
EndSplineSet
Substitution2: "'cv01' Zeichenvariante 01 in Ethiopic lookup 12 subtable" slash.punct
EndChar

StartChar: slash.punct
Encoding: 1114120 -1 24
Width: 490
Flags: W
LayerCount: 2
Fore
SplineSet
490 671 m 1,0,-1
 64 -93 l 1,1,-1
 0 -93 l 1,2,-1
 426 671 l 1,3,-1
 490 671 l 1,0,-1
EndSplineSet
EndChar

StartChar: zero
Encoding: 48 48 25
Width: 540
Flags: W
LayerCount: 2
Fore
SplineSet
480 317 m 0,0,1
 480 229 480 229 459 157 c 128,-1,2
 438 85 438 85 389.5 42 c 128,-1,3
 341 -1 341 -1 260 -1 c 0,4,5
 180 -1 180 -1 132 42 c 128,-1,6
 84 85 84 85 62.5 157 c 128,-1,7
 41 229 41 229 41 317 c 0,8,9
 41 405 41 405 62.5 477 c 128,-1,10
 84 549 84 549 132.5 592 c 128,-1,11
 181 635 181 635 260 635 c 0,12,13
 341 635 341 635 389 592 c 128,-1,14
 437 549 437 549 458.5 477 c 128,-1,15
 480 405 480 405 480 317 c 0,0,1
371 317 m 0,16,17
 371 384 371 384 362.5 438.5 c 128,-1,18
 354 493 354 493 330.5 525 c 128,-1,19
 307 557 307 557 260 557 c 0,20,21
 214 557 214 557 190 525 c 128,-1,22
 166 493 166 493 157.5 438.5 c 128,-1,23
 149 384 149 384 149 317 c 0,24,25
 149 251 149 251 157.5 196 c 128,-1,26
 166 141 166 141 189.5 108.5 c 128,-1,27
 213 76 213 76 260 76 c 256,28,29
 306 76 306 76 330 108.5 c 128,-1,30
 354 141 354 141 362.5 196 c 128,-1,31
 371 251 371 251 371 317 c 0,16,17
EndSplineSet
Substitution2: "'cv01' Zeichenvariante 01 in Ethiopic lookup 12 subtable" zero.punct
EndChar

StartChar: zero.punct
Encoding: 1114121 -1 26
Width: 562
Flags: W
LayerCount: 2
Fore
SplineSet
523 335 m 256,0,1
 523 263 523 263 508 199.5 c 128,-1,2
 493 136 493 136 463 87.5 c 128,-1,3
 433 39 433 39 387.5 11.5 c 128,-1,4
 342 -16 342 -16 281 -16 c 256,5,6
 220 -16 220 -16 174.5 11.5 c 128,-1,7
 129 39 129 39 99 87.5 c 128,-1,8
 69 136 69 136 54.5 199.5 c 128,-1,9
 40 263 40 263 40 335 c 256,10,11
 40 407 40 407 54.5 470.5 c 128,-1,12
 69 534 69 534 99 582.5 c 128,-1,13
 129 631 129 631 174.5 659 c 128,-1,14
 220 687 220 687 281 687 c 256,15,16
 342 687 342 687 387.5 659 c 128,-1,17
 433 631 433 631 463 582.5 c 128,-1,18
 493 534 493 534 508 470.5 c 128,-1,19
 523 407 523 407 523 335 c 256,0,1
417 335 m 256,20,21
 417 391 417 391 410.5 445 c 128,-1,22
 404 499 404 499 389 542.5 c 128,-1,23
 374 586 374 586 347.5 611.5 c 128,-1,24
 321 637 321 637 281 637 c 0,25,26
 241 637 241 637 214.5 611.5 c 128,-1,27
 188 586 188 586 173 542.5 c 128,-1,28
 158 499 158 499 151.5 445 c 128,-1,29
 145 391 145 391 145 335 c 256,30,31
 145 279 145 279 151.5 225 c 128,-1,32
 158 171 158 171 173 128 c 128,-1,33
 188 85 188 85 214.5 59.5 c 128,-1,34
 241 34 241 34 281 34 c 0,35,36
 321 34 321 34 347.5 59.5 c 128,-1,37
 374 85 374 85 389 128 c 128,-1,38
 404 171 404 171 410.5 225 c 128,-1,39
 417 279 417 279 417 335 c 256,20,21
EndSplineSet
EndChar

StartChar: one
Encoding: 49 49 27
Width: 540
Flags: W
LayerCount: 2
Fore
SplineSet
359 0 m 1,0,-1
 257 0 l 1,1,-1
 257 494 l 1,2,3
 240 478 240 478 214 463.5 c 128,-1,4
 188 449 188 449 160.5 437 c 128,-1,5
 133 425 133 425 114 419 c 1,6,-1
 114 515 l 1,7,8
 131 522 131 522 152 535.5 c 128,-1,9
 173 549 173 549 194 564.5 c 128,-1,10
 215 580 215 580 231.5 594 c 128,-1,11
 248 608 248 608 254 616 c 1,12,-1
 359 616 l 1,13,-1
 359 0 l 1,0,-1
EndSplineSet
Substitution2: "'cv01' Zeichenvariante 01 in Ethiopic lookup 12 subtable" one.punct
EndChar

StartChar: one.punct
Encoding: 1114122 -1 28
Width: 562
Flags: W
LayerCount: 2
Fore
SplineSet
446 0 m 1,0,-1
 108 0 l 1,1,-1
 108 45 l 1,2,-1
 209 49 l 2,3,4
 218 49 218 49 224.5 55.5 c 128,-1,5
 231 62 231 62 231 71 c 2,6,-1
 231 602 l 1,7,-1
 76 575 l 1,8,-1
 76 620 l 1,9,-1
 292 687 l 1,10,-1
 330 687 l 1,11,-1
 330 71 l 2,12,13
 330 62 330 62 336.5 55.5 c 128,-1,14
 343 49 343 49 352 49 c 2,15,-1
 446 45 l 1,16,-1
 446 0 l 1,0,-1
EndSplineSet
EndChar

StartChar: two
Encoding: 50 50 29
Width: 540
Flags: W
LayerCount: 2
Fore
SplineSet
472 463 m 0,0,1
 472 394 472 394 431.5 334.5 c 128,-1,2
 391 275 391 275 318 217.5 c 128,-1,3
 245 160 245 160 147 95 c 1,4,-1
 460 95 l 1,5,-1
 460 0 l 1,6,-1
 42 0 l 1,7,-1
 42 88 l 1,8,9
 136 162 136 162 198.5 218.5 c 128,-1,10
 261 275 261 275 297.5 318 c 128,-1,11
 334 361 334 361 349.5 396 c 128,-1,12
 365 431 365 431 365 462 c 0,13,14
 365 482 365 482 357.5 504 c 128,-1,15
 350 526 350 526 329 542 c 128,-1,16
 308 558 308 558 270 558 c 0,17,18
 231 558 231 558 208 540 c 128,-1,19
 185 522 185 522 173.5 496 c 128,-1,20
 162 470 162 470 160 445 c 1,21,-1
 53 445 l 1,22,23
 59 540 59 540 115 587.5 c 128,-1,24
 171 635 171 635 273 635 c 0,25,26
 369 635 369 635 420.5 588 c 128,-1,27
 472 541 472 541 472 463 c 0,0,1
EndSplineSet
Substitution2: "'cv01' Zeichenvariante 01 in Ethiopic lookup 12 subtable" two.punct
EndChar

StartChar: two.punct
Encoding: 1114123 -1 30
Width: 562
Flags: W
LayerCount: 2
Fore
SplineSet
516 0 m 1,0,-1
 47 0 l 1,1,-1
 47 67 l 1,2,-1
 97 108 l 2,3,4
 185 181 185 181 252.5 241.5 c 128,-1,5
 320 302 320 302 358 360 c 128,-1,6
 396 418 396 418 396 482 c 0,7,8
 396 554 396 554 354 593.5 c 128,-1,9
 312 633 312 633 253 633 c 0,10,11
 218 633 218 633 196 620.5 c 128,-1,12
 174 608 174 608 170 607 c 1,13,-1
 170 496 l 1,14,15
 157 487.5 l 0,16,17
 144 479 144 479 121 479 c 128,-1,18
 98 479 98 479 79.5 493.5 c 128,-1,19
 61 508 61 508 61 538 c 0,20,21
 61 580 61 580 91.5 613.5 c 128,-1,22
 122 647 122 647 172.5 667 c 128,-1,23
 223 687 223 687 281 687 c 0,24,25
 346 687 346 687 396.5 662.5 c 128,-1,26
 447 638 447 638 475.5 594 c 128,-1,27
 504 550 504 550 504 492 c 0,28,29
 504 442 504 442 478 395 c 128,-1,30
 452 348 452 348 407.5 301 c 128,-1,31
 363 254 363 254 306 206.5 c 128,-1,32
 249 159 249 159 186 110 c 2,33,-1
 153 84 l 1,34,-1
 449 84 l 1,35,-1
 467 170 l 1,36,-1
 516 170 l 1,37,-1
 516 0 l 1,0,-1
EndSplineSet
EndChar

StartChar: three
Encoding: 51 51 31
Width: 540
Flags: W
LayerCount: 2
Fore
SplineSet
472 185 m 256,0,1
 472 140 472 140 449 97.5 c 128,-1,2
 426 55 426 55 376.5 27.5 c 128,-1,3
 327 0 327 0 248 0 c 0,4,5
 189 0 189 0 150 16 c 128,-1,6
 111 32 111 32 88.5 57.5 c 128,-1,7
 66 83 66 83 57 114 c 128,-1,8
 48 145 48 145 48 174 c 1,9,-1
 155 174 l 1,10,11
 157 133 157 133 182.5 105 c 128,-1,12
 208 77 208 77 253 77 c 0,13,14
 296 77 296 77 330.5 106 c 128,-1,15
 365 135 365 135 365 184 c 0,16,17
 365 194 365 194 360.5 212 c 128,-1,18
 356 230 356 230 344.5 249 c 128,-1,19
 333 268 333 268 312 281 c 128,-1,20
 291 294 291 294 259 294 c 2,21,-1
 204 294 l 1,22,-1
 204 362 l 1,23,24
 257 362 257 362 287 372 c 128,-1,25
 317 382 317 382 331.5 398 c 128,-1,26
 346 414 346 414 350 432.5 c 128,-1,27
 354 451 354 451 354 468 c 0,28,29
 354 491 354 491 346 513 c 128,-1,30
 338 535 338 535 319 549.5 c 128,-1,31
 300 564 300 564 267 564 c 0,32,33
 173 564 173 564 167 474 c 1,34,-1
 60 474 l 1,35,36
 63 528 63 528 90.5 563.5 c 128,-1,37
 118 599 118 599 162.5 617 c 128,-1,38
 207 635 207 635 262 635 c 256,39,40
 317 635 317 635 362 616 c 128,-1,41
 407 597 407 597 434 560 c 128,-1,42
 461 523 461 523 461 468 c 0,43,44
 461 423 461 423 444 397 c 128,-1,45
 427 371 427 371 401.5 356.5 c 128,-1,46
 376 342 376 342 349 332 c 1,47,48
 375 325 375 325 404 307.5 c 128,-1,49
 433 290 433 290 452.5 260 c 128,-1,50
 472 230 472 230 472 185 c 256,0,1
EndSplineSet
Substitution2: "'cv01' Zeichenvariante 01 in Ethiopic lookup 12 subtable" three.punct
EndChar

StartChar: three.punct
Encoding: 1114124 -1 32
Width: 562
Flags: W
LayerCount: 2
Fore
SplineSet
516 191 m 0,0,1
 516 130 516 130 480.5 83.5 c 128,-1,2
 445 37 445 37 385.5 10.5 c 128,-1,3
 326 -16 326 -16 254 -16 c 0,4,5
 187 -16 187 -16 140.5 3 c 128,-1,6
 94 22 94 22 70.5 50 c 128,-1,7
 47 78 47 78 47 102 c 0,8,9
 47 122 47 122 61.5 139 c 128,-1,10
 76 156 76 156 106 156 c 0,11,12
 112 156 112 156 123 154.5 c 128,-1,13
 134 153 134 153 140 149 c 1,14,-1
 170 60 l 1,15,16
 190 49 190 49 211.5 41.5 c 128,-1,17
 233 34 233 34 257 34 c 0,18,19
 304 34 304 34 339 56.5 c 128,-1,20
 374 79 374 79 393.5 115 c 128,-1,21
 413 151 413 151 413 191 c 0,22,23
 413 240 413 240 389.5 267 c 128,-1,24
 366 294 366 294 331 305.5 c 128,-1,25
 296 317 296 317 263 317 c 0,26,27
 237 317 237 317 219.5 315 c 0,28,-1
 202 313 l 1,29,-1
 202 375 l 2,30,31
 203 375 203 375 211.5 374.5 c 128,-1,32
 220 374 220 374 228 374 c 0,33,34
 270 374 270 374 306.5 387.5 c 128,-1,35
 343 401 343 401 365.5 429 c 128,-1,36
 388 457 388 457 388 501 c 0,37,38
 388 543 388 543 369.5 572.5 c 128,-1,39
 351 602 351 602 321 617 c 128,-1,40
 291 632 291 632 257 632 c 0,41,42
 231 632 231 632 210.5 625 c 128,-1,43
 190 618 190 618 178.5 611 c 0,44,-1
 167 604 l 1,45,-1
 167 504 l 1,46,47
 164 503 164 503 152.5 497 c 128,-1,48
 141 491 141 491 122 491 c 0,49,50
 104 491 104 491 84 503 c 128,-1,51
 64 515 64 515 64 547 c 0,52,53
 64 585 64 585 94.5 616.5 c 128,-1,54
 125 648 125 648 175 667.5 c 128,-1,55
 225 687 225 687 285 687 c 0,56,57
 343 687 343 687 389.5 666 c 128,-1,58
 436 645 436 645 463 606 c 128,-1,59
 490 567 490 567 490 514 c 0,60,61
 490 458 490 458 450 416 c 128,-1,62
 410 374 410 374 336 353 c 1,63,64
 378 351 378 351 419.5 333.5 c 128,-1,65
 461 316 461 316 488.5 281 c 128,-1,66
 516 246 516 246 516 191 c 0,0,1
EndSplineSet
EndChar

StartChar: four
Encoding: 52 52 33
Width: 540
Flags: W
LayerCount: 2
Fore
SplineSet
497 132 m 1,0,-1
 431 132 l 1,1,-1
 431 0 l 1,2,-1
 330 0 l 1,3,-1
 330 132 l 1,4,-1
 36 132 l 1,5,-1
 36 251 l 1,6,-1
 291 616 l 1,7,-1
 431 616 l 1,8,-1
 431 221 l 1,9,-1
 497 221 l 1,10,-1
 497 132 l 1,0,-1
330 221 m 1,11,-1
 330 542 l 1,12,-1
 112 221 l 1,13,-1
 330 221 l 1,11,-1
EndSplineSet
Substitution2: "'cv01' Zeichenvariante 01 in Ethiopic lookup 12 subtable" four.punct
EndChar

StartChar: four.punct
Encoding: 1114125 -1 34
Width: 562
Flags: W
LayerCount: 2
Fore
SplineSet
523 199 m 1,0,-1
 438 199 l 1,1,-1
 438 -16 l 1,2,-1
 344 -16 l 1,3,-1
 344 199 l 1,4,-1
 40 199 l 1,5,-1
 40 268 l 1,6,-1
 368 687 l 1,7,-1
 438 687 l 1,8,-1
 438 267 l 1,9,-1
 523 267 l 1,10,-1
 523 199 l 1,0,-1
344 267 m 1,11,-1
 344 559 l 1,12,-1
 119 267 l 1,13,-1
 344 267 l 1,11,-1
EndSplineSet
EndChar

StartChar: five
Encoding: 53 53 35
Width: 540
Flags: W
LayerCount: 2
Fore
SplineSet
461 211 m 256,0,1
 461 161 461 161 438 112 c 128,-1,2
 415 63 415 63 365 31.5 c 128,-1,3
 315 0 315 0 235 0 c 0,4,5
 175 0 175 0 138 18.5 c 128,-1,6
 101 37 101 37 81 64 c 128,-1,7
 61 91 61 91 54 118 c 128,-1,8
 47 145 47 145 47 161 c 1,9,-1
 143 161 l 1,10,11
 147 127 147 127 172 99 c 128,-1,12
 197 71 197 71 240 71 c 0,13,14
 299 71 299 71 326.5 111.5 c 128,-1,15
 354 152 354 152 354 211 c 0,16,17
 354 269 354 269 329 303 c 128,-1,18
 304 337 304 337 245 337 c 0,19,20
 193 337 193 337 169.5 312 c 128,-1,21
 146 287 146 287 138 252 c 1,22,-1
 60 252 l 1,23,-1
 72 617 l 1,24,-1
 418 617 l 1,25,-1
 418 522 l 1,26,-1
 147 522 l 1,27,-1
 140 352 l 1,28,29
 170 383 170 383 201.5 395.5 c 128,-1,30
 233 408 233 408 273 408 c 0,31,32
 335 408 335 408 376.5 379.5 c 128,-1,33
 418 351 418 351 439.5 306 c 128,-1,34
 461 261 461 261 461 211 c 256,0,1
EndSplineSet
Substitution2: "'cv01' Zeichenvariante 01 in Ethiopic lookup 12 subtable" five.punct
EndChar

StartChar: five.punct
Encoding: 1114126 -1 36
Width: 562
Flags: W
LayerCount: 2
Fore
SplineSet
517 217 m 0,0,1
 517 149 517 149 485 96.5 c 128,-1,2
 453 44 453 44 390 14 c 128,-1,3
 327 -16 327 -16 235 -16 c 0,4,5
 183 -16 183 -16 140 2.5 c 128,-1,6
 97 21 97 21 71 48.5 c 128,-1,7
 45 76 45 76 45 102 c 0,8,9
 45 129 45 129 63 143.5 c 128,-1,10
 81 158 81 158 108 158 c 0,11,12
 116 158 116 158 124 156.5 c 128,-1,13
 132 155 132 155 135 154 c 1,14,-1
 173 62 l 1,15,16
 185 51 185 51 209 42 c 128,-1,17
 233 33 233 33 250 33 c 0,18,19
 303 33 303 33 339.5 58 c 128,-1,20
 376 83 376 83 395.5 120.5 c 128,-1,21
 415 158 415 158 415 193 c 0,22,23
 415 277 415 277 366 317.5 c 128,-1,24
 317 358 317 358 244 358 c 0,25,26
 220 358 220 358 192.5 353 c 128,-1,27
 165 348 165 348 140.5 341 c 128,-1,28
 116 334 116 334 100.5 329 c 0,29,-1
 85 324 l 1,30,-1
 85 671 l 1,31,-1
 471 671 l 1,32,-1
 471 586 l 1,33,-1
 156 586 l 1,34,-1
 156 396 l 2,35,36
 157 396 157 396 177 402.5 c 128,-1,37
 197 409 197 409 227.5 415.5 c 128,-1,38
 258 422 258 422 291 422 c 0,39,40
 395 422 395 422 456 368 c 128,-1,41
 517 314 517 314 517 217 c 0,0,1
EndSplineSet
EndChar

StartChar: six
Encoding: 54 54 37
Width: 540
Flags: W
LayerCount: 2
Fore
SplineSet
485 215 m 0,0,1
 485 141 485 141 452.5 93 c 128,-1,2
 420 45 420 45 368.5 22.5 c 128,-1,3
 317 0 317 0 260 0 c 0,4,5
 217 0 217 0 177.5 13.5 c 128,-1,6
 138 27 138 27 107.5 61 c 128,-1,7
 77 95 77 95 59 154 c 128,-1,8
 41 213 41 213 41 304 c 0,9,10
 41 426 41 426 71.5 498.5 c 128,-1,11
 102 571 102 571 155 603 c 128,-1,12
 208 635 208 635 276 635 c 0,13,14
 332 635 332 635 373.5 615 c 128,-1,15
 415 595 415 595 438 561.5 c 128,-1,16
 461 528 461 528 461 487 c 1,17,-1
 355 487 l 1,18,19
 355 506 355 506 348 525 c 128,-1,20
 341 544 341 544 324 557 c 128,-1,21
 307 570 307 570 276 570 c 0,22,23
 240 570 240 570 215 554 c 128,-1,24
 190 538 190 538 173.5 491.5 c 128,-1,25
 157 445 157 445 147 355 c 1,26,27
 167 378 167 378 202.5 396 c 128,-1,28
 238 414 238 414 292 414 c 0,29,30
 323 414 323 414 357 404 c 128,-1,31
 391 394 391 394 420 370.5 c 128,-1,32
 449 347 449 347 467 309 c 128,-1,33
 485 271 485 271 485 215 c 0,0,1
379 210 m 256,34,35
 379 249 379 249 363.5 280.5 c 128,-1,36
 348 312 348 312 322 330.5 c 128,-1,37
 296 349 296 349 264 349 c 0,38,39
 233 349 233 349 206.5 330.5 c 128,-1,40
 180 312 180 312 164.5 280.5 c 128,-1,41
 149 249 149 249 149 210 c 256,42,43
 149 171 149 171 164.5 139.5 c 128,-1,44
 180 108 180 108 206.5 89 c 128,-1,45
 233 70 233 70 264 70 c 0,46,47
 296 70 296 70 322 89 c 128,-1,48
 348 108 348 108 363.5 139.5 c 128,-1,49
 379 171 379 171 379 210 c 256,34,35
EndSplineSet
Substitution2: "'cv01' Zeichenvariante 01 in Ethiopic lookup 12 subtable" six.punct
EndChar

StartChar: six.punct
Encoding: 1114127 -1 38
Width: 562
Flags: W
LayerCount: 2
Fore
SplineSet
523 229 m 0,0,1
 523 156 523 156 490.5 100.5 c 128,-1,2
 458 45 458 45 403 14.5 c 128,-1,3
 348 -16 348 -16 280 -16 c 0,4,5
 213 -16 213 -16 158.5 14 c 128,-1,6
 104 44 104 44 72 111 c 128,-1,7
 40 178 40 178 40 287 c 0,8,9
 40 407 40 407 87 496.5 c 128,-1,10
 134 586 134 586 223.5 636.5 c 128,-1,11
 313 687 313 687 440 687 c 1,12,-1
 440 626 l 1,13,-1
 398 626 l 2,14,15
 336 626 336 626 283 595.5 c 128,-1,16
 230 565 230 565 194 508.5 c 128,-1,17
 158 452 158 452 148 374 c 1,18,19
 190 410 190 410 231.5 423.5 c 128,-1,20
 273 437 273 437 315 437 c 0,21,22
 378 437 378 437 425 410 c 128,-1,23
 472 383 472 383 497.5 336 c 128,-1,24
 523 289 523 289 523 229 c 0,0,1
421 216 m 0,25,26
 421 290 421 290 383.5 331 c 128,-1,27
 346 372 346 372 280 372 c 0,28,29
 248 372 248 372 211 358.5 c 128,-1,30
 174 345 174 345 145 322 c 1,31,32
 144 306 144 306 143.5 292 c 128,-1,33
 143 278 143 278 143 267 c 0,34,35
 143 199 143 199 157 147 c 128,-1,36
 171 95 171 95 201.5 65.5 c 128,-1,37
 232 36 232 36 280 36 c 0,38,39
 328 36 328 36 359.5 60 c 128,-1,40
 391 84 391 84 406 125 c 128,-1,41
 421 166 421 166 421 216 c 0,25,26
EndSplineSet
EndChar

StartChar: seven
Encoding: 55 55 39
Width: 540
Flags: W
LayerCount: 2
Fore
SplineSet
461 522 m 1,0,-1
 257 0 l 1,1,-1
 123 0 l 1,2,-1
 374 522 l 1,3,-1
 54 522 l 1,4,-1
 54 617 l 1,5,-1
 461 617 l 1,6,-1
 461 522 l 1,0,-1
EndSplineSet
Substitution2: "'cv01' Zeichenvariante 01 in Ethiopic lookup 12 subtable" seven.punct
EndChar

StartChar: seven.punct
Encoding: 1114128 -1 40
Width: 562
Flags: W
LayerCount: 2
Fore
SplineSet
521 615 m 1,0,-1
 193 17 l 1,1,-1
 193 -16 l 1,2,-1
 87 -16 l 1,3,-1
 417 586 l 1,4,-1
 109 586 l 1,5,-1
 93 495 l 1,6,-1
 42 495 l 1,7,-1
 42 671 l 1,8,-1
 521 671 l 1,9,-1
 521 615 l 1,0,-1
EndSplineSet
EndChar

StartChar: eight
Encoding: 56 56 41
Width: 540
Flags: W
LayerCount: 2
Fore
SplineSet
473 176 m 0,0,1
 473 126 473 126 445.5 86 c 128,-1,2
 418 46 418 46 369.5 23 c 128,-1,3
 321 0 321 0 259 0 c 0,4,5
 192 0 192 0 143 23 c 128,-1,6
 94 46 94 46 67.5 86 c 128,-1,7
 41 126 41 126 41 176 c 0,8,9
 41 229 41 229 75 272.5 c 128,-1,10
 109 316 109 316 181 333 c 1,11,12
 115 348 115 348 83.5 387 c 128,-1,13
 52 426 52 426 52 478 c 0,14,15
 52 521 52 521 77 557 c 128,-1,16
 102 593 102 593 148 614 c 128,-1,17
 194 635 194 635 257 635 c 0,18,19
 358 635 358 635 410 589 c 128,-1,20
 462 543 462 543 462 478 c 0,21,22
 462 448 462 448 451 418.5 c 128,-1,23
 440 389 440 389 413.5 367 c 128,-1,24
 387 345 387 345 338 334 c 1,25,26
 408 317 408 317 440.5 273.5 c 128,-1,27
 473 230 473 230 473 176 c 0,0,1
362 469 m 0,28,29
 362 520 362 520 331.5 544.5 c 128,-1,30
 301 569 301 569 258 569 c 0,31,32
 216 569 216 569 185.5 543 c 128,-1,33
 155 517 155 517 155 469 c 0,34,35
 155 423 155 423 185 396.5 c 128,-1,36
 215 370 215 370 258 370 c 0,37,38
 301 370 301 370 331.5 396.5 c 128,-1,39
 362 423 362 423 362 469 c 0,28,29
373 184 m 0,40,41
 373 238 373 238 340 265.5 c 128,-1,42
 307 293 307 293 259 293 c 0,43,44
 210 293 210 293 176.5 265 c 128,-1,45
 143 237 143 237 143 183 c 0,46,47
 143 144 143 144 159.5 119 c 128,-1,48
 176 94 176 94 202.5 82 c 128,-1,49
 229 70 229 70 257 70 c 0,50,51
 286 70 286 70 312.5 82.5 c 128,-1,52
 339 95 339 95 356 120 c 128,-1,53
 373 145 373 145 373 184 c 0,40,41
EndSplineSet
Substitution2: "'cv01' Zeichenvariante 01 in Ethiopic lookup 12 subtable" eight.punct
EndChar

StartChar: eight.punct
Encoding: 1114129 -1 42
Width: 562
Flags: W
LayerCount: 2
Fore
SplineSet
522 182 m 0,0,1
 522 125 522 125 490.5 80 c 128,-1,2
 459 35 459 35 404.5 9.5 c 128,-1,3
 350 -16 350 -16 281 -16 c 0,4,5
 208 -16 208 -16 153.5 9.5 c 128,-1,6
 99 35 99 35 69.5 79.5 c 128,-1,7
 40 124 40 124 40 180 c 0,8,9
 40 225 40 225 60.5 257.5 c 128,-1,10
 81 290 81 290 113.5 311.5 c 128,-1,11
 146 333 146 333 183 347 c 1,12,13
 156 358 156 358 129 378.5 c 128,-1,14
 102 399 102 399 84.5 429 c 128,-1,15
 67 459 67 459 67 499 c 0,16,17
 67 557 67 557 94 599 c 128,-1,18
 121 641 121 641 169 664 c 128,-1,19
 217 687 217 687 281 687 c 0,20,21
 342 687 342 687 390.5 664.5 c 128,-1,22
 439 642 439 642 467 602.5 c 128,-1,23
 495 563 495 563 495 515 c 0,24,25
 495 473 495 473 475 441 c 128,-1,26
 455 409 455 409 426.5 387.5 c 128,-1,27
 398 366 398 366 373 353 c 1,28,29
 405 342 405 342 439.5 321 c 128,-1,30
 474 300 474 300 498 266.5 c 128,-1,31
 522 233 522 233 522 182 c 0,0,1
403 506 m 0,32,33
 403 568 403 568 367 602 c 128,-1,34
 331 636 331 636 281 636 c 0,35,36
 247 636 247 636 221 620 c 128,-1,37
 195 604 195 604 180.5 578 c 128,-1,38
 166 552 166 552 166 522 c 0,39,40
 166 470 166 470 209.5 435.5 c 128,-1,41
 253 401 253 401 330 372 c 1,42,43
 361 394 361 394 382 427 c 128,-1,44
 403 460 403 460 403 506 c 0,32,33
421 166 m 0,45,46
 421 207 421 207 399 232 c 128,-1,47
 377 257 377 257 335.5 277 c 128,-1,48
 294 297 294 297 235 320 c 2,49,-1
 223 325 l 1,50,51
 185 304 185 304 159 273 c 128,-1,52
 133 242 133 242 133 188 c 0,53,54
 133 124 133 124 170.5 81 c 128,-1,55
 208 38 208 38 281 38 c 0,56,57
 324 38 324 38 355.5 56 c 128,-1,58
 387 74 387 74 404 103.5 c 128,-1,59
 421 133 421 133 421 166 c 0,45,46
EndSplineSet
EndChar

StartChar: nine
Encoding: 57 57 43
Width: 540
Flags: W
LayerCount: 2
Fore
SplineSet
485 331 m 0,0,1
 485 209 485 209 455 136.5 c 128,-1,2
 425 64 425 64 372 32 c 128,-1,3
 319 0 319 0 250 0 c 0,4,5
 195 0 195 0 153.5 20 c 128,-1,6
 112 40 112 40 89 73.5 c 128,-1,7
 66 107 66 107 66 148 c 1,8,-1
 172 148 l 1,9,10
 172 130 172 130 179 111 c 128,-1,11
 186 92 186 92 203 79 c 128,-1,12
 220 66 220 66 250 66 c 0,13,14
 286 66 286 66 311 82 c 128,-1,15
 336 98 336 98 353.5 144 c 128,-1,16
 371 190 371 190 380 280 c 1,17,18
 360 257 360 257 324 239 c 128,-1,19
 288 221 288 221 234 221 c 0,20,21
 203 221 203 221 169 231.5 c 128,-1,22
 135 242 135 242 106 265 c 128,-1,23
 77 288 77 288 59 326 c 128,-1,24
 41 364 41 364 41 420 c 0,25,26
 41 495 41 495 73 542.5 c 128,-1,27
 105 590 105 590 156.5 612.5 c 128,-1,28
 208 635 208 635 266 635 c 0,29,30
 309 635 309 635 348.5 621 c 128,-1,31
 388 607 388 607 419 574 c 128,-1,32
 450 541 450 541 467.5 481.5 c 128,-1,33
 485 422 485 422 485 331 c 0,0,1
377 426 m 0,34,35
 377 465 377 465 361.5 496 c 128,-1,36
 346 527 346 527 320 546 c 128,-1,37
 294 565 294 565 262 565 c 0,38,39
 231 565 231 565 205 546 c 128,-1,40
 179 527 179 527 163.5 495.5 c 128,-1,41
 148 464 148 464 148 426 c 0,42,43
 148 388 148 388 163.5 356 c 128,-1,44
 179 324 179 324 205 305 c 128,-1,45
 231 286 231 286 262 286 c 0,46,47
 294 286 294 286 320 305 c 128,-1,48
 346 324 346 324 361.5 356 c 128,-1,49
 377 388 377 388 377 426 c 0,34,35
EndSplineSet
Substitution2: "'cv01' Zeichenvariante 01 in Ethiopic lookup 12 subtable" nine.punct
EndChar

StartChar: nine.punct
Encoding: 1114130 -1 44
Width: 562
Flags: W
LayerCount: 2
Fore
SplineSet
523 384 m 0,0,1
 523 265 523 265 475.5 174.5 c 128,-1,2
 428 84 428 84 338.5 34 c 128,-1,3
 249 -16 249 -16 122 -16 c 1,4,-1
 122 45 l 1,5,-1
 163 45 l 2,6,7
 225 45 225 45 279 75.5 c 128,-1,8
 333 106 333 106 369 162.5 c 128,-1,9
 405 219 405 219 415 297 c 1,10,11
 373 261 373 261 331.5 247.5 c 128,-1,12
 290 234 290 234 248 234 c 0,13,14
 185 234 185 234 138 261 c 128,-1,15
 91 288 91 288 65.5 334.5 c 128,-1,16
 40 381 40 381 40 441 c 0,17,18
 40 514 40 514 72.5 569.5 c 128,-1,19
 105 625 105 625 160 656 c 128,-1,20
 215 687 215 687 282 687 c 256,21,22
 349 687 349 687 404 657 c 128,-1,23
 459 627 459 627 491 560.5 c 128,-1,24
 523 494 523 494 523 384 c 0,0,1
419 404 m 0,25,26
 419 472 419 472 405 524 c 128,-1,27
 391 576 391 576 360.5 605.5 c 128,-1,28
 330 635 330 635 282 635 c 256,29,30
 234 635 234 635 202.5 610.5 c 128,-1,31
 171 586 171 586 156 545.5 c 128,-1,32
 141 505 141 505 141 455 c 0,33,34
 141 381 141 381 178.5 340 c 128,-1,35
 216 299 216 299 282 299 c 0,36,37
 314 299 314 299 351 313 c 128,-1,38
 388 327 388 327 417 349 c 1,39,40
 418 365 418 365 418.5 379 c 128,-1,41
 419 393 419 393 419 404 c 0,25,26
EndSplineSet
EndChar

StartChar: colon
Encoding: 58 58 45
Width: 279
Flags: W
LayerCount: 2
Fore
SplineSet
196 427 m 0,0,1
 196 400 196 400 176 380 c 128,-1,2
 156 360 156 360 128 360 c 256,3,4
 100 360 100 360 80.5 379.5 c 128,-1,5
 61 399 61 399 61 427 c 0,6,7
 61 455 61 455 80.5 474.5 c 128,-1,8
 100 494 100 494 128 494 c 256,9,10
 156 494 156 494 176 474.5 c 128,-1,11
 196 455 196 455 196 427 c 0,0,1
196 55 m 0,12,13
 196 27 196 27 176 7.5 c 128,-1,14
 156 -12 156 -12 128 -12 c 256,15,16
 100 -12 100 -12 80.5 7.5 c 128,-1,17
 61 27 61 27 61 55 c 0,18,19
 61 82 61 82 80.5 102 c 128,-1,20
 100 122 100 122 128 122 c 256,21,22
 156 122 156 122 176 102 c 128,-1,23
 196 82 196 82 196 55 c 0,12,13
EndSplineSet
EndChar

StartChar: semicolon
Encoding: 59 59 46
Width: 279
Flags: W
LayerCount: 2
Fore
SplineSet
195 427 m 0,0,1
 195 400 195 400 175.5 380 c 128,-1,2
 156 360 156 360 128 360 c 256,3,4
 100 360 100 360 80.5 379.5 c 128,-1,5
 61 399 61 399 61 427 c 0,6,7
 61 455 61 455 81 474.5 c 128,-1,8
 101 494 101 494 129 494 c 256,9,10
 157 494 157 494 176 474.5 c 128,-1,11
 195 455 195 455 195 427 c 0,0,1
206 10 m 0,12,13
 206 -40 206 -40 181.5 -79 c 128,-1,14
 157 -118 157 -118 117.5 -142 c 128,-1,15
 78 -166 78 -166 32 -170 c 1,16,-1
 32 -134 l 1,17,18
 84 -122 84 -122 113 -92.5 c 128,-1,19
 142 -63 142 -63 142 3 c 2,20,-1
 142 7 l 1,21,-1
 79 7 l 1,22,23
 77 9 77 9 69 21 c 128,-1,24
 61 33 61 33 61 53 c 0,25,26
 61 79 61 79 78.5 100.5 c 128,-1,27
 96 122 96 122 123 122 c 0,28,29
 166 122 166 122 186 90 c 128,-1,30
 206 58 206 58 206 10 c 0,12,13
EndSplineSet
EndChar

StartChar: less
Encoding: 60 60 47
Width: 833
Flags: W
LayerCount: 2
Fore
SplineSet
704 37 m 1,0,-1
 129 272 l 1,1,-1
 129 323 l 1,2,-1
 704 559 l 1,3,-1
 704 497 l 1,4,-1
 216 298 l 1,5,-1
 704 100 l 1,6,-1
 704 37 l 1,0,-1
EndSplineSet
EndChar

StartChar: equal
Encoding: 61 61 48
Width: 592
Flags: W
LayerCount: 2
Fore
SplineSet
519 341 m 1,0,-1
 73 341 l 1,1,-1
 73 446 l 1,2,-1
 519 446 l 1,3,-1
 519 341 l 1,0,-1
519 128 m 1,4,-1
 73 128 l 1,5,-1
 73 233 l 1,6,-1
 519 233 l 1,7,-1
 519 128 l 1,4,-1
EndSplineSet
Substitution2: "'cv01' Zeichenvariante 01 in Ethiopic lookup 12 subtable" equal.punct
EndChar

StartChar: equal.punct
Encoding: 1114131 -1 49
Width: 1000
Flags: W
LayerCount: 2
Fore
SplineSet
800 360 m 1,0,-1
 200 360 l 1,1,-1
 200 422 l 1,2,-1
 800 422 l 1,3,-1
 800 360 l 1,0,-1
800 178 m 1,4,-1
 200 178 l 1,5,-1
 200 240 l 1,6,-1
 800 240 l 1,7,-1
 800 178 l 1,4,-1
EndSplineSet
EndChar

StartChar: greater
Encoding: 62 62 50
Width: 833
Flags: W
LayerCount: 2
Fore
SplineSet
704 272 m 1,0,-1
 129 37 l 1,1,-1
 129 100 l 1,2,-1
 617 298 l 1,3,-1
 129 497 l 1,4,-1
 129 559 l 1,5,-1
 704 323 l 1,6,-1
 704 272 l 1,0,-1
EndSplineSet
EndChar

StartChar: question
Encoding: 63 63 51
Width: 585
Flags: W
LayerCount: 2
Fore
SplineSet
406 500 m 0,0,1
 406 463 406 463 392 433 c 128,-1,2
 378 403 378 403 358 377 c 128,-1,3
 338 351 338 351 317.5 327 c 128,-1,4
 297 303 297 303 283.5 278 c 128,-1,5
 270 253 270 253 270 225 c 0,6,7
 270 220 270 220 272 210 c 0,8,-1
 274 200 l 1,9,-1
 213 201 l 1,10,11
 204 219 204 219 198.5 239 c 128,-1,12
 193 259 193 259 193 288 c 0,13,14
 193 318 193 318 205 346 c 128,-1,15
 217 374 217 374 232.5 400 c 128,-1,16
 248 426 248 426 260 448 c 128,-1,17
 272 470 272 470 272 487 c 0,18,19
 272 513 272 513 255 530 c 128,-1,20
 238 547 238 547 207 547 c 0,21,22
 178 547 178 547 164.5 534 c 128,-1,23
 151 521 151 521 146 507 c 1,24,-1
 110 507 l 1,25,26
 99 517 99 517 92.5 531.5 c 128,-1,27
 86 546 86 546 86 557 c 0,28,29
 86 577 86 577 101.5 599 c 128,-1,30
 117 621 117 621 150.5 637 c 128,-1,31
 184 653 184 653 238 653 c 128,-1,32
 292 653 292 653 329.5 630.5 c 128,-1,33
 367 608 367 608 386.5 573.5 c 128,-1,34
 406 539 406 539 406 500 c 0,0,1
317 77 m 128,-1,36
 317 45 317 45 295 22.5 c 128,-1,37
 273 0 273 0 241 0 c 128,-1,38
 209 0 209 0 186.5 22.5 c 128,-1,39
 164 45 164 45 164 77 c 128,-1,40
 164 109 164 109 186.5 131 c 128,-1,41
 209 153 209 153 241 153 c 128,-1,42
 273 153 273 153 295 131 c 128,-1,35
 317 109 317 109 317 77 c 128,-1,36
EndSplineSet
Substitution2: "'cv01' Zeichenvariante 01 in Ethiopic lookup 12 subtable" question.punct
EndChar

StartChar: question.punct
Encoding: 1114132 -1 52
Width: 485
Flags: W
LayerCount: 2
Fore
SplineSet
417 508 m 0,0,1
 417 461 417 461 398.5 425.5 c 128,-1,2
 380 390 380 390 351 364.5 c 128,-1,3
 322 339 322 339 289 321.5 c 128,-1,4
 256 304 256 304 227 291 c 1,5,-1
 227 180 l 1,6,-1
 171 180 l 1,7,-1
 171 325 l 1,8,9
 203 336 203 336 236.5 358 c 128,-1,10
 270 380 270 380 293 415.5 c 128,-1,11
 316 451 316 451 316 500 c 0,12,13
 316 570 316 570 278.5 604 c 128,-1,14
 241 638 241 638 173 638 c 1,15,-1
 132 536 l 1,16,17
 124.5 535.5 l 0,18,19
 117 535 117 535 115 535 c 0,20,21
 88 535 88 535 69 548 c 128,-1,22
 50 561 50 561 50 589 c 0,23,24
 50 613 50 613 67 635.5 c 128,-1,25
 84 658 84 658 119.5 672.5 c 128,-1,26
 155 687 155 687 209 687 c 0,27,28
 268 687 268 687 315 665 c 128,-1,29
 362 643 362 643 389.5 603 c 128,-1,30
 417 563 417 563 417 508 c 0,0,1
262 49 m 0,31,32
 262 24 262 24 244 6 c 128,-1,33
 226 -12 226 -12 200 -12 c 256,34,35
 175 -12 175 -12 157 6 c 128,-1,36
 139 24 139 24 139 50 c 128,-1,37
 139 76 139 76 157 93.5 c 128,-1,38
 175 111 175 111 200 111 c 0,39,40
 226 111 226 111 244 93 c 128,-1,41
 262 75 262 75 262 49 c 0,31,32
EndSplineSet
EndChar

StartChar: at
Encoding: 64 64 53
Width: 936
Flags: W
LayerCount: 2
Fore
SplineSet
864 373 m 0,0,1
 864 297 864 297 840.5 238 c 128,-1,2
 817 179 817 179 779.5 138.5 c 128,-1,3
 742 98 742 98 700 77 c 128,-1,4
 658 56 658 56 620 56 c 0,5,6
 578 56 578 56 560 77 c 128,-1,7
 542 98 542 98 542 139 c 1,8,9
 503 100 503 100 467.5 78.5 c 128,-1,10
 432 57 432 57 397 57 c 0,11,12
 342 57 342 57 307 101 c 128,-1,13
 272 145 272 145 272 220 c 0,14,15
 272 277 272 277 293 326.5 c 128,-1,16
 314 376 314 376 349.5 413.5 c 128,-1,17
 385 451 385 451 429.5 471.5 c 128,-1,18
 474 492 474 492 521 492 c 0,19,20
 542 492 542 492 569.5 484.5 c 128,-1,21
 597 477 597 477 619 465 c 1,22,-1
 637 488 l 1,23,-1
 693 488 l 1,24,25
 692 484 692 484 686.5 461 c 128,-1,26
 681 438 681 438 673.5 404.5 c 128,-1,27
 666 371 666 371 657.5 333.5 c 128,-1,28
 649 296 649 296 641.5 264 c 128,-1,29
 634 232 634 232 629.5 211.5 c 0,30,-1
 625 191 l 2,31,32
 621 173 621 173 621 159 c 0,33,34
 621 138 621 138 631 125.5 c 128,-1,35
 641 113 641 113 662 113 c 0,36,37
 684 113 684 113 710.5 131 c 128,-1,38
 737 149 737 149 761 183 c 128,-1,39
 785 217 785 217 800 264.5 c 128,-1,40
 815 312 815 312 815 372 c 0,41,42
 815 442 815 442 791.5 494 c 128,-1,43
 768 546 768 546 728 580 c 128,-1,44
 688 614 688 614 638 630.5 c 128,-1,45
 588 647 588 647 535 647 c 0,46,47
 450 647 450 647 378.5 617.5 c 128,-1,48
 307 588 307 588 254.5 535.5 c 128,-1,49
 202 483 202 483 173.5 411.5 c 128,-1,50
 145 340 145 340 145 257 c 0,51,52
 145 155 145 155 186.5 73.5 c 128,-1,53
 228 -8 228 -8 306.5 -55.5 c 128,-1,54
 385 -103 385 -103 495 -103 c 0,55,56
 582 -103 582 -103 647.5 -78.5 c 128,-1,57
 713 -54 713 -54 759 -29 c 1,58,-1
 773 -65 l 1,59,60
 706 -101 706 -101 632 -127 c 128,-1,61
 558 -153 558 -153 471 -153 c 0,62,63
 390 -153 390 -153 318.5 -126 c 128,-1,64
 247 -99 247 -99 192 -48 c 128,-1,65
 137 3 137 3 105 75.5 c 128,-1,66
 73 148 73 148 73 239 c 0,67,68
 73 350 73 350 111 434.5 c 128,-1,69
 149 519 149 519 213.5 576 c 128,-1,70
 278 633 278 633 358 662 c 128,-1,71
 438 691 438 691 522 691 c 0,72,73
 621 691 621 691 698 654.5 c 128,-1,74
 775 618 775 618 819.5 547 c 128,-1,75
 864 476 864 476 864 373 c 0,0,1
584 393 m 2,76,77
 584 394 584 394 584 396 c 0,78,79
 584 405 584 405 576.5 418 c 128,-1,80
 569 431 569 431 555.5 440.5 c 128,-1,81
 542 450 542 450 525 450 c 0,82,83
 476 450 476 450 439.5 420.5 c 128,-1,84
 403 391 403 391 383.5 340.5 c 128,-1,85
 364 290 364 290 364 229 c 0,86,87
 364 175 364 175 384.5 148 c 128,-1,88
 405 121 405 121 442 121 c 0,89,90
 476 121 476 121 502 144 c 128,-1,91
 528 167 528 167 544 186 c 1,92,-1
 584 393 l 2,76,77
EndSplineSet
EndChar

StartChar: A
Encoding: 65 65 54
Width: 673
Flags: W
LayerCount: 2
Fore
SplineSet
669 0 m 1,0,-1
 431 0 l 1,1,-1
 431 43 l 1,2,-1
 489 48 l 2,3,4
 493 48 493 48 496.5 53 c 128,-1,5
 500 58 500 58 500 62 c 0,6,7
 500 64 500 64 499 65 c 2,8,-1
 430 248 l 1,9,-1
 199 248 l 1,10,-1
 133 68 l 2,11,12
 133 67 133 67 132 65 c 0,13,14
 132 59 132 59 137.5 53.5 c 128,-1,15
 143 48 143 48 147 48 c 2,16,-1
 206 43 l 1,17,-1
 206 0 l 1,18,-1
 5 0 l 1,19,-1
 5 43 l 1,20,-1
 63 55 l 1,21,-1
 296 687 l 1,22,-1
 371 687 l 1,23,-1
 603 70 l 2,24,25
 607 60 607 60 610 56.5 c 128,-1,26
 613 53 613 53 624 51 c 2,27,-1
 669 43 l 1,28,-1
 669 0 l 1,0,-1
412 296 m 1,29,-1
 314 558 l 1,30,-1
 217 296 l 1,31,-1
 412 296 l 1,29,-1
EndSplineSet
EndChar

StartChar: B
Encoding: 66 66 55
Width: 604
Flags: W
LayerCount: 2
Fore
SplineSet
566 198 m 0,0,1
 566 137 566 137 541.5 98.5 c 128,-1,2
 517 60 517 60 478 38.5 c 128,-1,3
 439 17 439 17 395.5 8.5 c 128,-1,4
 352 0 352 0 312 0 c 2,5,-1
 32 0 l 1,6,-1
 32 43 l 1,7,-1
 85 47 l 2,8,9
 96 48 96 48 101 55 c 128,-1,10
 106 62 106 62 106 69 c 2,11,-1
 106 602 l 2,12,13
 106 609 106 609 101 616.5 c 128,-1,14
 96 624 96 624 85 624 c 2,15,-1
 32 628 l 1,16,-1
 32 671 l 1,17,-1
 300 671 l 2,18,19
 420 671 420 671 472.5 628 c 128,-1,20
 525 585 525 585 525 510 c 0,21,22
 525 460 525 460 501.5 428.5 c 128,-1,23
 478 397 478 397 444.5 380.5 c 128,-1,24
 411 364 411 364 381 356 c 1,25,26
 426 356 426 356 468.5 341 c 128,-1,27
 511 326 511 326 538.5 291.5 c 128,-1,28
 566 257 566 257 566 198 c 0,0,1
417 503 m 0,29,30
 417 562 417 562 378.5 593.5 c 128,-1,31
 340 625 340 625 263 625 c 0,32,33
 247 625 247 625 229 623.5 c 128,-1,34
 211 622 211 622 206 622 c 1,35,-1
 206 369 l 1,36,37
 220 368.5 l 0,38,39
 234 368 234 368 242 368 c 0,40,41
 340 368 340 368 378.5 403.5 c 128,-1,42
 417 439 417 439 417 503 c 0,29,30
457 190 m 0,43,44
 457 258 457 258 416 290 c 128,-1,45
 375 322 375 322 296 322 c 0,46,47
 280 322 280 322 260 320.5 c 128,-1,48
 240 319 240 319 224.5 317.5 c 128,-1,49
 209 316 209 316 206 316 c 1,50,-1
 206 52 l 1,51,-1
 217.5 51 l 0,52,53
 229 50 229 50 244 49.5 c 128,-1,54
 259 49 259 49 268 49 c 0,55,56
 373 49 373 49 415 84 c 128,-1,57
 457 119 457 119 457 190 c 0,43,44
EndSplineSet
EndChar

StartChar: C
Encoding: 67 67 56
Width: 626
Flags: W
LayerCount: 2
Fore
SplineSet
588 185 m 1,0,-1
 588 23 l 1,1,2
 586 22 586 22 557 12 c 128,-1,3
 528 2 528 2 483.5 -7 c 128,-1,4
 439 -16 439 -16 388 -16 c 0,5,6
 304 -16 304 -16 239 13 c 128,-1,7
 174 42 174 42 129.5 92 c 128,-1,8
 85 142 85 142 62 205 c 128,-1,9
 39 268 39 268 39 337 c 0,10,11
 39 441 39 441 83 519.5 c 128,-1,12
 127 598 127 598 206 642.5 c 128,-1,13
 285 687 285 687 389 687 c 0,14,15
 438 687 438 687 482.5 677 c 128,-1,16
 527 667 527 667 588 648 c 1,17,-1
 588 491 l 1,18,-1
 528 491 l 1,19,-1
 513 582 l 2,20,21
 511 590 511 590 505.5 596.5 c 128,-1,22
 500 603 500 603 496 605 c 2,23,-1
 492 607 l 2,24,25
 479 613 479 613 454 622 c 128,-1,26
 429 631 429 631 394 631 c 0,27,28
 326 631 326 631 271.5 597.5 c 128,-1,29
 217 564 217 564 185.5 498.5 c 128,-1,30
 154 433 154 433 154 337 c 0,31,32
 154 197 154 197 221.5 118 c 128,-1,33
 289 39 289 39 407 39 c 0,34,35
 442 39 442 39 464 47.5 c 128,-1,36
 486 56 486 56 488 56 c 0,37,38
 504 62 504 62 507 76 c 2,39,-1
 530 185 l 1,40,-1
 588 185 l 1,0,-1
EndSplineSet
EndChar

StartChar: D
Encoding: 68 68 57
Width: 695
Flags: W
LayerCount: 2
Fore
SplineSet
657 337 m 0,0,1
 657 272 657 272 638 211 c 128,-1,2
 619 150 619 150 578 102.5 c 128,-1,3
 537 55 537 55 470.5 27.5 c 128,-1,4
 404 0 404 0 310 0 c 2,5,-1
 32 0 l 1,6,-1
 32 43 l 1,7,-1
 85 47 l 2,8,9
 96 48 96 48 101.5 55 c 128,-1,10
 107 62 107 62 107 69 c 2,11,-1
 107 602 l 2,12,13
 107 609 107 609 101.5 616.5 c 128,-1,14
 96 624 96 624 85 624 c 2,15,-1
 32 628 l 1,16,-1
 32 671 l 1,17,-1
 290 671 l 2,18,19
 395 671 395 671 478 635.5 c 128,-1,20
 561 600 561 600 609 526.5 c 128,-1,21
 657 453 657 453 657 337 c 0,0,1
544 335 m 0,22,23
 544 440 544 440 512 503 c 128,-1,24
 480 566 480 566 421.5 594.5 c 128,-1,25
 363 623 363 623 284 623 c 2,26,-1
 208 623 l 1,27,-1
 208 48 l 1,28,-1
 289 49 l 2,29,30
 366 50 366 50 423 78.5 c 128,-1,31
 480 107 480 107 512 169.5 c 128,-1,32
 544 232 544 232 544 335 c 0,22,23
EndSplineSet
EndChar

StartChar: E
Encoding: 69 69 58
Width: 583
Flags: W
LayerCount: 2
Fore
SplineSet
551 0 m 1,0,-1
 32 0 l 1,1,-1
 32 43 l 1,2,-1
 84 47 l 2,3,4
 95 48 95 48 100.5 55 c 128,-1,5
 106 62 106 62 106 69 c 2,6,-1
 106 602 l 2,7,8
 106 609 106 609 100.5 616.5 c 128,-1,9
 95 624 95 624 84 624 c 2,10,-1
 32 628 l 1,11,-1
 32 671 l 1,12,-1
 518 671 l 1,13,-1
 518 522 l 1,14,-1
 458 522 l 1,15,-1
 443 604 l 2,16,17
 443 611 443 611 437.5 617 c 128,-1,18
 432 623 432 623 425 623 c 2,19,-1
 208 623 l 1,20,-1
 208 374 l 1,21,-1
 358 374 l 2,22,23
 365 374 365 374 370.5 380 c 128,-1,24
 376 386 376 386 376 391 c 2,25,-1
 386 460 l 1,26,-1
 437 460 l 1,27,-1
 437 237 l 1,28,-1
 386 237 l 1,29,-1
 376 306 l 2,30,31
 376 311 376 311 370 317.5 c 128,-1,32
 364 324 364 324 358 324 c 2,33,-1
 208 324 l 1,34,-1
 208 49 l 1,35,-1
 461 49 l 2,36,37
 467 49 467 49 473 56 c 128,-1,38
 479 63 479 63 479 68 c 2,39,-1
 497 167 l 1,40,-1
 551 167 l 1,41,-1
 551 0 l 1,0,-1
EndSplineSet
EndChar

StartChar: F
Encoding: 70 70 59
Width: 541
Flags: W
LayerCount: 2
Fore
SplineSet
511 512 m 1,0,-1
 452 512 l 1,1,-1
 438 604 l 2,2,3
 437 611 437 611 432.5 616.5 c 128,-1,4
 428 622 428 622 421 622 c 2,5,-1
 208 622 l 1,6,-1
 208 362 l 1,7,-1
 361 362 l 2,8,9
 368 362 368 362 373 368.5 c 128,-1,10
 378 375 378 375 379 380 c 2,11,-1
 388 450 l 1,12,-1
 438 450 l 1,13,-1
 438 225 l 1,14,-1
 388 225 l 1,15,-1
 379 295 l 2,16,17
 379 300 379 300 373 306.5 c 128,-1,18
 367 313 367 313 361 313 c 2,19,-1
 208 313 l 1,20,-1
 208 69 l 2,21,22
 208 62 208 62 213 55 c 128,-1,23
 218 48 218 48 229 47 c 2,24,-1
 296 43 l 1,25,-1
 296 0 l 1,26,-1
 33 0 l 1,27,-1
 33 43 l 1,28,-1
 86 47 l 2,29,30
 97 48 97 48 102 55 c 128,-1,31
 107 62 107 62 107 69 c 2,32,-1
 107 602 l 2,33,34
 107 609 107 609 102 616.5 c 128,-1,35
 97 624 97 624 86 624 c 2,36,-1
 25 628 l 1,37,-1
 25 671 l 1,38,-1
 511 671 l 1,39,-1
 511 512 l 1,0,-1
EndSplineSet
EndChar

StartChar: G
Encoding: 71 71 60
Width: 694
Flags: W
LayerCount: 2
Fore
SplineSet
670 281 m 1,0,-1
 619 276 l 2,1,2
 608 276 608 276 603 269.5 c 128,-1,3
 598 263 598 263 598 255 c 2,4,-1
 598 24 l 1,5,6
 568 14 l 0,7,8
 538 4 538 4 490 -6 c 128,-1,9
 442 -16 442 -16 388 -16 c 0,10,11
 305 -16 305 -16 240 13 c 128,-1,12
 175 42 175 42 130 91.5 c 128,-1,13
 85 141 85 141 62 204.5 c 128,-1,14
 39 268 39 268 39 337 c 0,15,16
 39 442 39 442 82.5 521 c 128,-1,17
 126 600 126 600 207.5 643.5 c 128,-1,18
 289 687 289 687 401 687 c 0,19,20
 452 687 452 687 495.5 677.5 c 128,-1,21
 539 668 539 668 581 657 c 2,22,-1
 597 653 l 1,23,-1
 597 491 l 1,24,-1
 537 491 l 1,25,-1
 521 581 l 2,26,27
 520 590 520 590 514 596 c 128,-1,28
 508 602 508 602 501 605 c 0,29,30
 499 605 499 605 495 607 c 0,31,32
 480 614 480 614 454.5 622.5 c 128,-1,33
 429 631 429 631 397 631 c 0,34,35
 325 631 325 631 270 597.5 c 128,-1,36
 215 564 215 564 184 499.5 c 128,-1,37
 153 435 153 435 153 342 c 0,38,39
 153 198 153 198 222.5 119 c 128,-1,40
 292 40 292 40 409 40 c 0,41,42
 442 40 442 40 468 47.5 c 128,-1,43
 494 55 494 55 497 55 c 1,44,-1
 497 255 l 2,45,46
 497 263 497 263 492 269 c 128,-1,47
 487 275 487 275 476 276 c 2,48,-1
 409 281 l 1,49,-1
 409 324 l 1,50,-1
 670 324 l 1,51,-1
 670 281 l 1,0,-1
EndSplineSet
EndChar

StartChar: H
Encoding: 72 72 61
Width: 743
Flags: W
LayerCount: 2
Fore
SplineSet
711 0 m 1,0,-1
 458 0 l 1,1,-1
 458 43 l 1,2,-1
 515 47 l 2,3,4
 525 48 525 48 530.5 55 c 128,-1,5
 536 62 536 62 536 69 c 2,6,-1
 536 327 l 1,7,-1
 207 327 l 1,8,-1
 207 69 l 2,9,10
 207 62 207 62 212 55 c 128,-1,11
 217 48 217 48 228 47 c 2,12,-1
 285 43 l 1,13,-1
 285 0 l 1,14,-1
 32 0 l 1,15,-1
 32 43 l 1,16,-1
 84 47 l 2,17,18
 95 48 95 48 100.5 55 c 128,-1,19
 106 62 106 62 106 69 c 2,20,-1
 106 602 l 2,21,22
 106 609 106 609 100.5 616 c 128,-1,23
 95 623 95 623 84 623 c 2,24,-1
 32 627 l 1,25,-1
 32 671 l 1,26,-1
 285 671 l 1,27,-1
 285 627 l 1,28,-1
 228 623 l 2,29,30
 217 623 217 623 212 616 c 128,-1,31
 207 609 207 609 207 602 c 2,32,-1
 207 377 l 1,33,-1
 536 377 l 1,34,-1
 536 602 l 2,35,36
 536 609 536 609 530.5 616 c 128,-1,37
 525 623 525 623 515 623 c 2,38,-1
 458 627 l 1,39,-1
 458 671 l 1,40,-1
 711 671 l 1,41,-1
 711 627 l 1,42,-1
 659 623 l 2,43,44
 648 623 648 623 642.5 616 c 128,-1,45
 637 609 637 609 637 602 c 2,46,-1
 637 69 l 2,47,48
 637 62 637 62 642.5 55 c 128,-1,49
 648 48 648 48 659 47 c 2,50,-1
 711 43 l 1,51,-1
 711 0 l 1,0,-1
EndSplineSet
EndChar

StartChar: I
Encoding: 73 73 62
Width: 330
Flags: W
LayerCount: 2
Fore
SplineSet
297 0 m 1,0,-1
 33 0 l 1,1,-1
 33 43 l 1,2,-1
 93 47 l 2,3,4
 104 48 104 48 109 55 c 128,-1,5
 114 62 114 62 114 69 c 2,6,-1
 114 602 l 2,7,8
 114 609 114 609 109 616 c 128,-1,9
 104 623 104 623 93 623 c 2,10,-1
 33 627 l 1,11,-1
 33 671 l 1,12,-1
 297 671 l 1,13,-1
 297 627 l 1,14,-1
 236 623 l 2,15,16
 226 623 226 623 220.5 616 c 128,-1,17
 215 609 215 609 215 602 c 2,18,-1
 215 69 l 2,19,20
 215 62 215 62 220.5 55 c 128,-1,21
 226 48 226 48 236 47 c 2,22,-1
 297 43 l 1,23,-1
 297 0 l 1,0,-1
EndSplineSet
EndChar

StartChar: J
Encoding: 74 74 63
Width: 484
Flags: W
LayerCount: 2
Fore
SplineSet
459 628 m 1,0,-1
 401 624 l 2,1,2
 391 624 391 624 385.5 616.5 c 128,-1,3
 380 609 380 609 380 602 c 2,4,-1
 380 253 l 2,5,6
 380 170 380 170 358.5 109.5 c 128,-1,7
 337 49 337 49 289 16.5 c 128,-1,8
 241 -16 241 -16 160 -16 c 0,9,10
 128 -16 128 -16 98 -9.5 c 128,-1,11
 68 -3 68 -3 48 4 c 128,-1,12
 28 11 28 11 25 12 c 1,13,-1
 25 183 l 1,14,-1
 85 183 l 1,15,-1
 107 61 l 2,16,17
 110 46 110 46 124 40.5 c 128,-1,18
 138 35 138 35 153 35 c 0,19,20
 221 35 221 35 250 88 c 128,-1,21
 279 141 279 141 279 246 c 2,22,-1
 279 602 l 2,23,24
 279 609 279 609 274 616.5 c 128,-1,25
 269 624 269 624 258 624 c 2,26,-1
 195 628 l 1,27,-1
 195 671 l 1,28,-1
 459 671 l 1,29,-1
 459 628 l 1,0,-1
EndSplineSet
EndChar

StartChar: K
Encoding: 75 75 64
Width: 638
Flags: W
LayerCount: 2
Fore
SplineSet
638 0 m 1,0,-1
 463 0 l 1,1,-1
 463 31 l 1,2,-1
 277 298 l 1,3,-1
 207 298 l 1,4,-1
 207 69 l 2,5,6
 207 62 207 62 212.5 55 c 128,-1,7
 218 48 218 48 229 47 c 2,8,-1
 286 43 l 1,9,-1
 286 0 l 1,10,-1
 32 0 l 1,11,-1
 32 43 l 1,12,-1
 85 47 l 2,13,14
 96 48 96 48 101 55 c 128,-1,15
 106 62 106 62 106 69 c 2,16,-1
 106 602 l 2,17,18
 106 609 106 609 101 616.5 c 128,-1,19
 96 624 96 624 85 624 c 2,20,-1
 32 628 l 1,21,-1
 32 671 l 1,22,-1
 286 671 l 1,23,-1
 286 628 l 1,24,-1
 229 624 l 2,25,26
 218 624 218 624 212.5 616.5 c 128,-1,27
 207 609 207 609 207 602 c 2,28,-1
 207 340 l 1,29,-1
 243 340 l 1,30,-1
 461 606 l 2,31,32
 463 608 463 608 463 611 c 0,33,34
 463 622 463 622 453 623 c 2,35,-1
 402 628 l 1,36,-1
 402 671 l 1,37,-1
 614 671 l 1,38,-1
 614 628 l 1,39,40
 598 626.5 l 0,41,42
 582 625 582 625 565.5 623 c 128,-1,43
 549 621 549 621 546 620 c 2,44,-1
 342 376 l 1,45,-1
 566 48 l 1,46,-1
 638 43 l 1,47,-1
 638 0 l 1,0,-1
EndSplineSet
EndChar

StartChar: L
Encoding: 76 76 65
Width: 530
Flags: W
LayerCount: 2
Fore
SplineSet
513 0 m 1,0,-1
 27 0 l 1,1,-1
 27 43 l 1,2,-1
 85 47 l 2,3,4
 96 48 96 48 101 55 c 128,-1,5
 106 62 106 62 106 69 c 2,6,-1
 106 602 l 2,7,8
 106 609 106 609 101 616.5 c 128,-1,9
 96 624 96 624 85 624 c 2,10,-1
 27 628 l 1,11,-1
 27 671 l 1,12,-1
 282 671 l 1,13,-1
 282 628 l 1,14,-1
 229 624 l 2,15,16
 218 624 218 624 212.5 616.5 c 128,-1,17
 207 609 207 609 207 602 c 2,18,-1
 207 49 l 1,19,-1
 417 49 l 2,20,21
 424 49 424 49 431 54.5 c 128,-1,22
 438 60 438 60 439 66 c 2,23,-1
 455 186 l 1,24,-1
 513 186 l 1,25,-1
 513 0 l 1,0,-1
EndSplineSet
EndChar

StartChar: M
Encoding: 77 77 66
Width: 875
Flags: W
LayerCount: 2
Fore
SplineSet
845 0 m 1,0,-1
 593 0 l 1,1,-1
 593 43 l 1,2,-1
 646 47 l 2,3,4
 657 48 657 48 662.5 55 c 128,-1,5
 668 62 668 62 668 69 c 2,6,-1
 668 620 l 1,7,-1
 438 0 l 1,8,-1
 388 0 l 1,9,-1
 166 611 l 1,10,-1
 166 69 l 2,11,12
 166 62 166 62 171.5 55 c 128,-1,13
 177 48 177 48 188 47 c 2,14,-1
 245 43 l 1,15,-1
 245 0 l 1,16,-1
 29 0 l 1,17,-1
 29 43 l 1,18,-1
 86 47 l 2,19,20
 97 48 97 48 102 55 c 128,-1,21
 107 62 107 62 107 69 c 2,22,-1
 107 602 l 2,23,24
 107 609 107 609 102 616.5 c 128,-1,25
 97 624 97 624 86 624 c 2,26,-1
 29 628 l 1,27,-1
 29 671 l 1,28,-1
 253 671 l 1,29,-1
 253 644 l 1,30,-1
 434 153 l 1,31,-1
 615 641 l 1,32,-1
 615 671 l 1,33,-1
 845 671 l 1,34,-1
 845 628 l 1,35,-1
 791 624 l 2,36,37
 780 624 780 624 774.5 616.5 c 128,-1,38
 769 609 769 609 769 602 c 2,39,-1
 769 69 l 2,40,41
 769 62 769 62 774.5 55 c 128,-1,42
 780 48 780 48 791 47 c 2,43,-1
 845 43 l 1,44,-1
 845 0 l 1,0,-1
EndSplineSet
EndChar

StartChar: N
Encoding: 78 78 67
Width: 721
Flags: W
LayerCount: 2
Fore
SplineSet
692 628 m 1,0,-1
 636 624 l 2,1,2
 625 624 625 624 620 616.5 c 128,-1,3
 615 609 615 609 615 602 c 2,4,-1
 615 0 l 1,5,-1
 537 0 l 1,6,-1
 165 560 l 1,7,-1
 165 69 l 2,8,9
 165 62 165 62 170 55 c 128,-1,10
 175 48 175 48 186 47 c 2,11,-1
 243 43 l 1,12,-1
 243 0 l 1,13,-1
 27 0 l 1,14,-1
 27 43 l 1,15,-1
 84 47 l 2,16,17
 95 48 95 48 100.5 55 c 128,-1,18
 106 62 106 62 106 69 c 2,19,-1
 106 602 l 2,20,21
 106 609 106 609 100.5 616.5 c 128,-1,22
 95 624 95 624 84 624 c 2,23,-1
 25 628 l 1,24,-1
 25 671 l 1,25,-1
 223 671 l 1,26,-1
 223 646 l 1,27,-1
 556 143 l 1,28,-1
 556 602 l 2,29,30
 556 609 556 609 550.5 616.5 c 128,-1,31
 545 624 545 624 535 624 c 2,32,-1
 478 628 l 1,33,-1
 478 671 l 1,34,-1
 692 671 l 1,35,-1
 692 628 l 1,0,-1
EndSplineSet
EndChar

StartChar: O
Encoding: 79 79 68
Width: 730
Flags: W
LayerCount: 2
Fore
SplineSet
692 335 m 256,0,1
 692 262 692 262 669 198.5 c 128,-1,2
 646 135 646 135 603 87 c 128,-1,3
 560 39 560 39 499.5 11.5 c 128,-1,4
 439 -16 439 -16 366 -16 c 0,5,6
 268 -16 268 -16 194.5 30 c 128,-1,7
 121 76 121 76 80 155.5 c 128,-1,8
 39 235 39 235 39 336 c 0,9,10
 39 409 39 409 61.5 472.5 c 128,-1,11
 84 536 84 536 127 584.5 c 128,-1,12
 170 633 170 633 230.5 660 c 128,-1,13
 291 687 291 687 365 687 c 0,14,15
 439 687 439 687 499.5 659.5 c 128,-1,16
 560 632 560 632 603 583.5 c 128,-1,17
 646 535 646 535 669 471.5 c 128,-1,18
 692 408 692 408 692 335 c 256,0,1
576 334 m 0,19,20
 576 416 576 416 552.5 483 c 128,-1,21
 529 550 529 550 482.5 590 c 128,-1,22
 436 630 436 630 366 630 c 0,23,24
 294 630 294 630 247 589.5 c 128,-1,25
 200 549 200 549 177 482.5 c 128,-1,26
 154 416 154 416 154 336 c 0,27,28
 154 256 154 256 177 188.5 c 128,-1,29
 200 121 200 121 246.5 80 c 128,-1,30
 293 39 293 39 364 39 c 0,31,32
 436 39 436 39 483 80 c 128,-1,33
 530 121 530 121 553 188 c 128,-1,34
 576 255 576 255 576 334 c 0,19,20
EndSplineSet
EndChar

StartChar: P
Encoding: 80 80 69
Width: 579
Flags: W
LayerCount: 2
Fore
SplineSet
540 469 m 0,0,1
 540 396 540 396 505.5 347.5 c 128,-1,2
 471 299 471 299 412.5 275 c 128,-1,3
 354 251 354 251 282 251 c 2,4,-1
 279 251 l 2,5,6
 259 251 259 251 235.5 252.5 c 128,-1,7
 212 254 212 254 208 255 c 1,8,-1
 208 69 l 2,9,10
 208 62 208 62 213 55 c 128,-1,11
 218 48 218 48 229 47 c 2,12,-1
 295 43 l 1,13,-1
 295 0 l 1,14,-1
 32 0 l 1,15,-1
 32 43 l 1,16,-1
 85 47 l 2,17,18
 96 48 96 48 101.5 55 c 128,-1,19
 107 62 107 62 107 69 c 2,20,-1
 107 602 l 2,21,22
 107 609 107 609 101.5 616.5 c 128,-1,23
 96 624 96 624 85 624 c 2,24,-1
 25 628 l 1,25,-1
 25 671 l 1,26,-1
 264 671 l 2,27,28
 406 671 406 671 473 625.5 c 128,-1,29
 540 580 540 580 540 469 c 0,0,1
436 468 m 0,30,31
 436 541 436 541 395 581.5 c 128,-1,32
 354 622 354 622 259 622 c 0,33,34
 245 622 245 622 226.5 621.5 c 0,35,-1
 208 621 l 1,36,-1
 208 306 l 1,37,38
 210 306 210 306 230 303.5 c 128,-1,39
 250 301 250 301 264 301 c 2,40,-1
 267 301 l 2,41,42
 345 301 345 301 390.5 341.5 c 128,-1,43
 436 382 436 382 436 468 c 0,30,31
EndSplineSet
EndChar

StartChar: Q
Encoding: 81 81 70
Width: 738
Flags: W
LayerCount: 2
Fore
SplineSet
700 335 m 0,0,1
 700 245 700 245 667 172 c 128,-1,2
 634 99 634 99 572.5 51 c 128,-1,3
 511 3 511 3 424 -11 c 1,4,5
 425 -67 425 -67 459 -99.5 c 128,-1,6
 493 -132 493 -132 562 -132 c 0,7,8
 597 -132 597 -132 622 -128 c 128,-1,9
 647 -124 647 -124 656 -122 c 0,10,11
 657 -121.5 l 0,12,-1
 658 -121 l 2,13,-1
 658 -164 l 2,14,15
 657.5 -164.5 l 0,16,17
 657 -165 657 -165 656 -165 c 0,18,19
 642 -168 642 -168 601 -174.5 c 128,-1,20
 560 -181 560 -181 510 -181 c 0,21,22
 405 -181 405 -181 361 -135.5 c 128,-1,23
 317 -90 317 -90 317 -13 c 1,24,25
 237 -1 237 -1 174 44 c 128,-1,26
 111 89 111 89 75 163 c 128,-1,27
 39 237 39 237 39 335 c 0,28,29
 39 408 39 408 62 472 c 128,-1,30
 85 536 85 536 128.5 584.5 c 128,-1,31
 172 633 172 633 232.5 660 c 128,-1,32
 293 687 293 687 368 687 c 0,33,34
 470 687 470 687 544.5 640 c 128,-1,35
 619 593 619 593 659.5 513.5 c 128,-1,36
 700 434 700 434 700 335 c 0,0,1
582 335 m 0,37,38
 582 414 582 414 559.5 481 c 128,-1,39
 537 548 537 548 490 589.5 c 128,-1,40
 443 631 443 631 369 631 c 0,41,42
 296 631 296 631 249 590.5 c 128,-1,43
 202 550 202 550 179 483.5 c 128,-1,44
 156 417 156 417 156 337 c 0,45,46
 156 259 156 259 179.5 191 c 128,-1,47
 203 123 203 123 250.5 81 c 128,-1,48
 298 39 298 39 369 39 c 0,49,50
 441 39 441 39 488.5 80.5 c 128,-1,51
 536 122 536 122 559 189.5 c 128,-1,52
 582 257 582 257 582 335 c 0,37,38
EndSplineSet
EndChar

StartChar: R
Encoding: 82 82 71
Width: 648
Flags: W
LayerCount: 2
Fore
SplineSet
649 -3 m 1,0,1
 643 -3 643 -3 624 -9.5 c 128,-1,2
 605 -16 605 -16 583 -16 c 0,3,4
 532 -16 532 -16 502 1 c 128,-1,5
 472 18 472 18 455.5 46 c 128,-1,6
 439 74 439 74 429.5 108 c 128,-1,7
 420 142 420 142 410 175 c 128,-1,8
 400 208 400 208 383 236.5 c 128,-1,9
 366 265 366 265 335.5 282 c 128,-1,10
 305 299 305 299 252 299 c 0,11,12
 236 299 236 299 222 298 c 128,-1,13
 208 297 208 297 207 297 c 2,14,-1
 207 69 l 2,15,16
 207 62 207 62 212 55 c 128,-1,17
 217 48 217 48 228 47 c 2,18,-1
 281 43 l 1,19,-1
 281 0 l 1,20,-1
 32 0 l 1,21,-1
 32 43 l 1,22,-1
 84 47 l 2,23,24
 95 48 95 48 100.5 55 c 128,-1,25
 106 62 106 62 106 69 c 2,26,-1
 106 602 l 2,27,28
 106 609 106 609 100.5 616.5 c 128,-1,29
 95 624 95 624 84 624 c 2,30,-1
 32 628 l 1,31,-1
 32 671 l 1,32,-1
 293 671 l 2,33,34
 407 671 407 671 472.5 631.5 c 128,-1,35
 538 592 538 592 538 493 c 0,36,37
 538 441 538 441 514.5 407.5 c 128,-1,38
 491 374 491 374 454 355 c 128,-1,39
 417 336 417 336 374 326 c 1,40,41
 420 315 420 315 446.5 294 c 128,-1,42
 473 273 473 273 485.5 247 c 128,-1,43
 498 221 498 221 504.5 192.5 c 128,-1,44
 511 164 511 164 517 137 c 128,-1,45
 523 110 523 110 536 88.5 c 128,-1,46
 549 67 549 67 575.5 54.5 c 128,-1,47
 602 42 602 42 649 42 c 1,48,-1
 649 -3 l 1,0,1
429 489 m 0,49,50
 429 553 429 553 388.5 587.5 c 128,-1,51
 348 622 348 622 253 622 c 2,52,-1
 207 622 l 1,53,-1
 207 348 l 1,54,55
 209 348 209 348 227 347.5 c 128,-1,56
 245 347 245 347 257 347 c 0,57,58
 340 347 340 347 384.5 378 c 128,-1,59
 429 409 429 409 429 489 c 0,49,50
EndSplineSet
EndChar

StartChar: S
Encoding: 83 83 72
Width: 520
Flags: W
LayerCount: 2
Fore
SplineSet
482 188 m 0,0,1
 482 138 482 138 455 91 c 128,-1,2
 428 44 428 44 369.5 14 c 128,-1,3
 311 -16 311 -16 217 -16 c 0,4,5
 163 -16 163 -16 123 -7 c 128,-1,6
 83 2 83 2 61 11.5 c 0,7,-1
 39 21 l 1,8,-1
 39 198 l 1,9,-1
 102 198 l 1,10,-1
 115 85 l 2,11,12
 116 79 116 79 121.5 72 c 128,-1,13
 127 65 127 65 132 63 c 0,14,15
 134 63 134 63 160.5 51.5 c 128,-1,16
 187 40 187 40 233 40 c 0,17,18
 297 40 297 40 338.5 71.5 c 128,-1,19
 380 103 380 103 380 158 c 0,20,21
 380 188 380 188 363 211 c 128,-1,22
 346 234 346 234 319 251.5 c 128,-1,23
 292 269 292 269 261.5 283.5 c 128,-1,24
 231 298 231 298 204 311 c 0,25,26
 163 331 163 331 128 353 c 128,-1,27
 93 375 93 375 71.5 407.5 c 128,-1,28
 50 440 50 440 50 491 c 0,29,30
 50 551 50 551 80 595 c 128,-1,31
 110 639 110 639 162.5 663 c 128,-1,32
 215 687 215 687 281 687 c 0,33,34
 335 687 335 687 376 676.5 c 128,-1,35
 417 666 417 666 448 656 c 2,36,-1
 457 653 l 1,37,-1
 457 497 l 1,38,-1
 400 497 l 1,39,-1
 385 593 l 2,40,41
 384 600 384 600 379 603 c 128,-1,42
 374 606 374 606 369 610 c 0,43,44
 365 613 365 613 345 623 c 128,-1,45
 325 633 325 633 282 633 c 0,46,47
 222 633 222 633 187.5 599.5 c 128,-1,48
 153 566 153 566 153 515 c 0,49,50
 153 469 153 469 189 439 c 128,-1,51
 225 409 225 409 292 383 c 0,52,53
 383 349 383 349 432.5 306 c 128,-1,54
 482 263 482 263 482 188 c 0,0,1
EndSplineSet
EndChar

StartChar: T
Encoding: 84 84 73
Width: 599
Flags: W
LayerCount: 2
Fore
SplineSet
583 511 m 1,0,-1
 524 511 l 1,1,-1
 510 605 l 2,2,3
 507 622 507 622 493 622 c 2,4,-1
 350 622 l 1,5,-1
 350 69 l 2,6,7
 350 62 350 62 355 55 c 128,-1,8
 360 48 360 48 371 47 c 2,9,-1
 435 43 l 1,10,-1
 435 0 l 1,11,-1
 164 0 l 1,12,-1
 164 43 l 1,13,-1
 228 47 l 2,14,15
 239 48 239 48 244 55 c 128,-1,16
 249 62 249 62 249 69 c 2,17,-1
 249 622 l 1,18,-1
 105 622 l 2,19,20
 90 622 90 622 88 605 c 2,21,-1
 74 511 l 1,22,-1
 16 511 l 1,23,-1
 16 671 l 1,24,-1
 583 671 l 1,25,-1
 583 511 l 1,0,-1
EndSplineSet
EndChar

StartChar: U
Encoding: 85 85 74
Width: 711
Flags: W
LayerCount: 2
Fore
SplineSet
685 628 m 1,0,-1
 627 624 l 2,1,2
 616 624 616 624 611 616.5 c 128,-1,3
 606 609 606 609 606 602 c 2,4,-1
 606 222 l 2,5,6
 606 99 606 99 540.5 41.5 c 128,-1,7
 475 -16 475 -16 349 -16 c 0,8,9
 225 -16 225 -16 165 44 c 128,-1,10
 105 104 105 104 105 222 c 2,11,-1
 105 602 l 2,12,13
 105 609 105 609 100 616.5 c 128,-1,14
 95 624 95 624 84 624 c 2,15,-1
 31 628 l 1,16,-1
 31 671 l 1,17,-1
 285 671 l 1,18,-1
 285 628 l 1,19,-1
 228 624 l 2,20,21
 217 624 217 624 212 616.5 c 128,-1,22
 207 609 207 609 207 602 c 2,23,-1
 207 248 l 2,24,25
 207 189 207 189 220 145 c 128,-1,26
 233 101 233 101 270 76 c 128,-1,27
 307 51 307 51 376 51 c 256,28,29
 445 51 445 51 482 77 c 128,-1,30
 519 103 519 103 533 148 c 128,-1,31
 547 193 547 193 547 248 c 2,32,-1
 547 602 l 2,33,34
 547 609 547 609 541.5 616.5 c 128,-1,35
 536 624 536 624 525 624 c 2,36,-1
 468 628 l 1,37,-1
 468 671 l 1,38,-1
 685 671 l 1,39,-1
 685 628 l 1,0,-1
EndSplineSet
Substitution2: "Single Substitution lookup 0 subtable" O
EndChar

StartChar: V
Encoding: 86 86 75
Width: 666
Flags: W
LayerCount: 2
Fore
SplineSet
656 628 m 1,0,-1
 598 617 l 1,1,-1
 374 -16 l 1,2,-1
 298 -16 l 1,3,-1
 69 618 l 1,4,-1
 10 628 l 1,5,-1
 10 671 l 1,6,-1
 249 671 l 1,7,-1
 249 628 l 1,8,-1
 190 623 l 2,9,10
 186 623 186 623 183.5 618 c 128,-1,11
 181 613 181 613 181 608 c 0,12,13
 181 606 181 606 181 605 c 2,14,-1
 357 111 l 1,15,-1
 526 603 l 2,16,17
 526 604 526 604 526 606 c 0,18,19
 526 611 526 611 522 617 c 128,-1,20
 518 623 518 623 512 623 c 2,21,-1
 457 628 l 1,22,-1
 457 671 l 1,23,-1
 656 671 l 1,24,-1
 656 628 l 1,0,-1
EndSplineSet
EndChar

StartChar: W
Encoding: 87 87 76
Width: 931
Flags: W
LayerCount: 2
Fore
SplineSet
921 628 m 1,0,-1
 860 616 l 1,1,-1
 707 -16 l 1,2,-1
 634 -16 l 1,3,-1
 467 538 l 1,4,-1
 303 -16 l 1,5,-1
 231 -16 l 1,6,-1
 68 616 l 1,7,-1
 10 628 l 1,8,-1
 10 671 l 1,9,-1
 239 671 l 1,10,-1
 239 628 l 1,11,-1
 179 622 l 2,12,13
 168 621 168 621 168 607 c 0,14,15
 168 606 168 606 169 602 c 2,16,-1
 288 151 l 1,17,-1
 445 671 l 1,18,-1
 522 671 l 1,19,-1
 683 135 l 1,20,-1
 794 602 l 2,21,22
 794 603 794 603 794 605 c 0,23,24
 794 620 794 620 780 622 c 2,25,-1
 717 628 l 1,26,-1
 717 671 l 1,27,-1
 921 671 l 1,28,-1
 921 628 l 1,0,-1
EndSplineSet
EndChar

StartChar: X
Encoding: 88 88 77
Width: 633
Flags: W
LayerCount: 2
Fore
SplineSet
624 0 m 1,0,-1
 367 0 l 1,1,-1
 367 43 l 1,2,-1
 425 49 l 2,3,4
 439 51 439 51 439 63 c 0,5,6
 439 66 439 66 437 70 c 2,7,-1
 304 279 l 1,8,-1
 150 67 l 2,9,10
 148 63 148 63 147 59 c 0,11,12
 147 49 147 49 162 48 c 2,13,-1
 222 43 l 1,14,-1
 222 0 l 1,15,-1
 10 0 l 1,16,-1
 10 43 l 1,17,-1
 70 55 l 1,18,-1
 271 331 l 1,19,-1
 89 616 l 1,20,-1
 23 628 l 1,21,-1
 23 671 l 1,22,-1
 274 671 l 1,23,-1
 274 628 l 1,24,-1
 223 623 l 2,25,26
 208 623 208 623 208 611 c 0,27,28
 208 607 208 607 211 603 c 2,29,-1
 333 415 l 1,30,-1
 468 600 l 2,31,32
 471 604 471 604 471 608 c 0,33,34
 471 620 471 620 457 621 c 2,35,-1
 406 628 l 1,36,-1
 406 671 l 1,37,-1
 615 671 l 1,38,-1
 615 628 l 1,39,-1
 551 618 l 1,40,-1
 365 363 l 1,41,-1
 562 55 l 1,42,-1
 624 43 l 1,43,-1
 624 0 l 1,0,-1
EndSplineSet
EndChar

StartChar: Y
Encoding: 89 89 78
Width: 625
Flags: W
LayerCount: 2
Fore
SplineSet
616 628 m 1,0,-1
 562 618 l 1,1,-1
 361 285 l 1,2,-1
 361 69 l 2,3,4
 361 62 361 62 366.5 55 c 128,-1,5
 372 48 372 48 382 47 c 2,6,-1
 446 43 l 1,7,-1
 446 0 l 1,8,-1
 176 0 l 1,9,-1
 176 43 l 1,10,-1
 238 47 l 2,11,12
 249 48 249 48 254.5 55 c 128,-1,13
 260 62 260 62 260 69 c 2,14,-1
 260 270 l 1,15,-1
 68 616 l 1,16,-1
 10 628 l 1,17,-1
 10 671 l 1,18,-1
 247 671 l 1,19,-1
 247 628 l 1,20,-1
 197 623 l 2,21,22
 183 621 183 621 183 611 c 0,23,24
 183 606 183 606 185 603 c 2,25,-1
 326 342 l 1,26,-1
 481 600 l 2,27,28
 483 603 483 603 483 607 c 0,29,30
 483 619 483 619 469 621 c 2,31,-1
 413 628 l 1,32,-1
 413 671 l 1,33,-1
 616 671 l 1,34,-1
 616 628 l 1,0,-1
EndSplineSet
EndChar

StartChar: Z
Encoding: 90 90 79
Width: 575
Flags: W
LayerCount: 2
Fore
SplineSet
536 0 m 1,0,-1
 39 0 l 1,1,-1
 39 44 l 1,2,-1
 411 621 l 1,3,-1
 151 621 l 2,4,5
 138 621 138 621 134 604 c 2,6,-1
 119 511 l 1,7,-1
 60 511 l 1,8,-1
 60 671 l 1,9,-1
 531 671 l 1,10,-1
 531 625 l 1,11,-1
 158 51 l 1,12,-1
 443 51 l 2,13,14
 450 51 450 51 454.5 56.5 c 128,-1,15
 459 62 459 62 460 69 c 2,16,-1
 477 185 l 1,17,-1
 536 185 l 1,18,-1
 536 0 l 1,0,-1
EndSplineSet
EndChar

StartChar: bracketleft
Encoding: 91 91 80
Width: 332
Flags: W
LayerCount: 2
Fore
SplineSet
285 -77 m 1,0,-1
 86 -77 l 1,1,-1
 86 726 l 1,2,-1
 285 726 l 1,3,-1
 285 666 l 1,4,-1
 179 666 l 1,5,-1
 179 -20 l 1,6,-1
 285 -20 l 1,7,-1
 285 -77 l 1,0,-1
EndSplineSet
EndChar

StartChar: backslash
Encoding: 92 92 81
Width: 405
Flags: W
LayerCount: 2
Fore
SplineSet
108 699 m 1,0,-1
 407 -6 l 1,1,-1
 297 -6 l 1,2,-1
 0 699 l 1,3,-1
 108 699 l 1,0,-1
EndSplineSet
EndChar

StartChar: bracketright
Encoding: 93 93 82
Width: 332
Flags: W
LayerCount: 2
Fore
SplineSet
239 -77 m 1,0,-1
 40 -77 l 1,1,-1
 40 -17 l 1,2,-1
 146 -17 l 1,3,-1
 146 669 l 1,4,-1
 40 669 l 1,5,-1
 40 726 l 1,6,-1
 239 726 l 1,7,-1
 239 -77 l 1,0,-1
EndSplineSet
EndChar

StartChar: asciicircum
Encoding: 94 94 83
Width: 958
Flags: W
LayerCount: 2
Fore
SplineSet
740 11 m 1,0,-1
 677 11 l 1,1,-1
 479 499 l 1,2,-1
 280 11 l 1,3,-1
 218 11 l 1,4,-1
 454 586 l 1,5,-1
 505 586 l 1,6,-1
 740 11 l 1,0,-1
EndSplineSet
EndChar

StartChar: underscore
Encoding: 95 95 84
Width: 600
Flags: W
LayerCount: 2
Fore
SplineSet
600 -333 m 1,0,-1
 0 -333 l 1,1,-1
 0 -234 l 1,2,-1
 600 -234 l 1,3,-1
 600 -333 l 1,0,-1
EndSplineSet
EndChar

StartChar: grave
Encoding: 96 96 85
Width: 350
Flags: W
LayerCount: 2
Fore
SplineSet
232 551 m 1,0,-1
 175 551 l 1,1,-1
 23 648 l 2,2,3
 0 663 0 663 0 688 c 0,4,5
 0 703 0 703 10 718 c 128,-1,6
 20 733 20 733 46 733 c 0,7,8
 67 733 67 733 77 726 c 128,-1,9
 87 719 87 719 98 706 c 2,10,-1
 232 551 l 1,0,-1
EndSplineSet
EndChar

StartChar: a
Encoding: 97 97 86
Width: 508
Flags: W
LayerCount: 2
Fore
SplineSet
492 0 m 1,0,-1
 344 0 l 1,1,-1
 331 59 l 1,2,3
 316 48.5 l 0,4,5
 301 38 301 38 276.5 23.5 c 128,-1,6
 252 9 252 9 222.5 -1.5 c 128,-1,7
 193 -12 193 -12 164 -12 c 0,8,9
 110 -12 110 -12 72 24 c 128,-1,10
 34 60 34 60 34 123 c 0,11,12
 34 151 34 151 44 175 c 128,-1,13
 54 199 54 199 84 220.5 c 128,-1,14
 114 242 114 242 173.5 263 c 128,-1,15
 233 284 233 284 331 305 c 1,16,-1
 331 348 l 2,17,18
 331 447 331 447 238 447 c 0,19,20
 212 447 212 447 193 442 c 128,-1,21
 174 437 174 437 167 434 c 1,22,-1
 167 347 l 1,23,-1
 94 347 l 2,24,25
 80 347 80 347 68.5 352 c 128,-1,26
 57 357 57 357 57 376 c 0,27,28
 57 417 57 417 88.5 443 c 128,-1,29
 120 469 120 469 168 481.5 c 128,-1,30
 216 494 216 494 265 494 c 0,31,32
 327 494 327 494 361.5 475 c 128,-1,33
 396 456 396 456 409.5 422 c 128,-1,34
 423 388 423 388 423 344 c 2,35,-1
 423 64 l 2,36,37
 423 55 423 55 429 49 c 128,-1,38
 435 43 435 43 444 42 c 2,39,-1
 492 39 l 1,40,-1
 492 0 l 1,0,-1
331 94 m 1,41,-1
 331 267 l 1,42,43
 264 250 264 250 224 233.5 c 128,-1,44
 184 217 184 217 164.5 200 c 128,-1,45
 145 183 145 183 139 165.5 c 128,-1,46
 133 148 133 148 133 130 c 0,47,48
 133 99 133 99 152.5 73 c 128,-1,49
 172 47 172 47 208 47 c 0,50,51
 228 47 228 47 249.5 54 c 128,-1,52
 271 61 271 61 289.5 70.5 c 128,-1,53
 308 80 308 80 314 83.5 c 0,54,-1
 331 94 l 1,41,-1
EndSplineSet
EndChar

StartChar: b
Encoding: 98 98 87
Width: 555
Flags: W
LayerCount: 2
Fore
SplineSet
521 264 m 0,0,1
 521 189 521 189 491 129 c 128,-1,2
 461 69 461 69 397.5 34.5 c 128,-1,3
 334 0 334 0 234 0 c 2,4,-1
 90 0 l 1,5,-1
 90 665 l 1,6,-1
 14 665 l 1,7,-1
 14 698 l 1,8,-1
 143 737 l 1,9,-1
 183 737 l 1,10,-1
 183 457 l 1,11,12
 200 465 200 465 238.5 479.5 c 128,-1,13
 277 494 277 494 321 494 c 0,14,15
 387 494 387 494 431.5 462.5 c 128,-1,16
 476 431 476 431 498.5 378.5 c 128,-1,17
 521 326 521 326 521 264 c 0,0,1
419 244 m 0,18,19
 419 339 419 339 379 387 c 128,-1,20
 339 435 339 435 266 435 c 0,21,22
 249 435 249 435 223.5 429.5 c 128,-1,23
 198 424 198 424 183 419 c 1,24,-1
 183 48 l 1,25,26
 200.5 47.5 l 0,27,28
 218 47 218 47 232 47 c 0,29,30
 321 47 321 47 370 91 c 128,-1,31
 419 135 419 135 419 244 c 0,18,19
EndSplineSet
EndChar

StartChar: c
Encoding: 99 99 88
Width: 465
Flags: W
LayerCount: 2
Fore
SplineSet
432 94 m 1,0,-1
 432 37 l 1,1,2
 398 19 398 19 356 3.5 c 128,-1,3
 314 -12 314 -12 263 -12 c 0,4,5
 193 -12 193 -12 141.5 20.5 c 128,-1,6
 90 53 90 53 62 109.5 c 128,-1,7
 34 166 34 166 34 238 c 0,8,9
 34 322 34 322 67.5 379 c 128,-1,10
 101 436 101 436 156 465 c 128,-1,11
 211 494 211 494 275 494 c 0,12,13
 341 494 341 494 385.5 468.5 c 128,-1,14
 430 443 430 443 430 394 c 0,15,16
 430 365 430 365 412 350 c 128,-1,17
 394 335 394 335 371 335 c 0,18,19
 354 335 354 335 342 340.5 c 128,-1,20
 330 346 330 346 321 352 c 1,21,-1
 321 439 l 1,22,23
 298 452 298 452 279 452 c 0,24,25
 235 452 235 452 202.5 426 c 128,-1,26
 170 400 170 400 153 354.5 c 128,-1,27
 136 309 136 309 136 251 c 0,28,29
 136 196 136 196 154.5 150 c 128,-1,30
 173 104 173 104 210 77.5 c 128,-1,31
 247 51 247 51 302 51 c 0,32,33
 337 51 337 51 368.5 62 c 128,-1,34
 400 73 400 73 432 94 c 1,0,-1
EndSplineSet
EndChar

StartChar: d
Encoding: 100 100 89
Width: 563
Flags: W
LayerCount: 2
Fore
SplineSet
538 0 m 1,0,-1
 381 0 l 1,1,-1
 381 53 l 1,2,3
 347 27 347 27 308.5 7.5 c 128,-1,4
 270 -12 270 -12 226 -12 c 0,5,6
 176 -12 176 -12 139.5 9 c 128,-1,7
 103 30 103 30 80 65.5 c 128,-1,8
 57 101 57 101 45.5 143.5 c 128,-1,9
 34 186 34 186 34 228 c 0,10,11
 34 296 34 296 62 356.5 c 128,-1,12
 90 417 90 417 146.5 455.5 c 128,-1,13
 203 494 203 494 289 494 c 0,14,15
 313 494 313 494 341 489.5 c 128,-1,16
 369 485 369 485 381 482 c 1,17,-1
 381 665 l 1,18,-1
 305 665 l 1,19,-1
 305 698 l 1,20,-1
 434 737 l 1,21,-1
 474 737 l 1,22,-1
 474 64 l 2,23,24
 474 43 474 43 495 42 c 2,25,-1
 538 39 l 1,26,-1
 538 0 l 1,0,-1
381 91 m 1,27,-1
 381 431 l 1,28,29
 368 435 368 435 343 440.5 c 128,-1,30
 318 446 318 446 296 446 c 0,31,32
 222 446 222 446 177.5 391 c 128,-1,33
 133 336 133 336 133 245 c 0,34,35
 133 163 133 163 171 109.5 c 128,-1,36
 209 56 209 56 278 56 c 0,37,38
 308 56 308 56 334.5 67.5 c 128,-1,39
 361 79 361 79 381 91 c 1,27,-1
EndSplineSet
EndChar

StartChar: e
Encoding: 101 101 90
Width: 490
Flags: W
LayerCount: 2
Fore
SplineSet
456 50 m 1,0,1
 414 24 414 24 365.5 6 c 128,-1,2
 317 -12 317 -12 266 -12 c 0,3,4
 205 -12 205 -12 152.5 15 c 128,-1,5
 100 42 100 42 67 97 c 128,-1,6
 34 152 34 152 34 236 c 0,7,8
 34 314 34 314 64.5 372 c 128,-1,9
 95 430 95 430 148 462 c 128,-1,10
 201 494 201 494 269 494 c 0,11,12
 362 494 362 494 409 436 c 128,-1,13
 456 378 456 378 456 289 c 0,14,15
 456 284 456 284 456 276 c 128,-1,16
 456 268 456 268 455 261 c 1,17,-1
 131 261 l 1,18,19
 131 223 131 223 139 185 c 128,-1,20
 147 147 147 147 166 116.5 c 128,-1,21
 185 86 185 86 217.5 67.5 c 128,-1,22
 250 49 250 49 298 49 c 0,23,24
 341 49 341 49 381.5 68.5 c 128,-1,25
 422 88 422 88 456 111 c 1,26,-1
 456 50 l 1,0,1
356 306 m 1,27,-1
 356 328 l 2,28,29
 356 377 356 377 332.5 411 c 128,-1,30
 309 445 309 445 259 445 c 0,31,32
 210 445 210 445 175 408 c 128,-1,33
 140 371 140 371 136 306 c 1,34,-1
 356 306 l 1,27,-1
EndSplineSet
EndChar

StartChar: f
Encoding: 102 102 91
Width: 326
Flags: W
LayerCount: 2
Fore
SplineSet
389 677 m 0,0,1
 389 657 389 657 379 645.5 c 128,-1,2
 369 634 369 634 358 629 c 128,-1,3
 347 624 347 624 343 623 c 0,4,5
 342 624 342 624 327.5 634 c 128,-1,6
 313 644 313 644 296 656 c 128,-1,7
 279 668 279 668 265.5 678 c 128,-1,8
 252 688 252 688 251 688 c 0,9,10
 230 677 230 677 211 642.5 c 128,-1,11
 192 608 192 608 192 538 c 2,12,-1
 192 474 l 1,13,-1
 316 474 l 1,14,-1
 316 423 l 1,15,-1
 192 423 l 1,16,-1
 192 64 l 2,17,18
 192 55 192 55 198 48.5 c 128,-1,19
 204 42 204 42 213 42 c 2,20,-1
 272 39 l 1,21,-1
 272 0 l 1,22,-1
 29 0 l 1,23,-1
 29 39 l 1,24,-1
 78 42 l 2,25,26
 87 43 87 43 93 49 c 128,-1,27
 99 55 99 55 99 64 c 2,28,-1
 99 423 l 1,29,-1
 35 423 l 1,30,-1
 35 458 l 1,31,-1
 99 476 l 1,32,33
 99 525 99 525 106.5 557.5 c 128,-1,34
 114 590 114 590 133 626 c 0,35,36
 162 683 162 683 208 710 c 128,-1,37
 254 737 254 737 303 737 c 0,38,39
 345 737 345 737 367 719 c 128,-1,40
 389 701 389 701 389 677 c 0,0,1
EndSplineSet
EndChar

StartChar: g
Encoding: 103 103 92
Width: 524
Flags: W
LayerCount: 2
Fore
SplineSet
508 415 m 1,0,-1
 408 415 l 1,1,2
 419 397 419 397 427 375.5 c 128,-1,3
 435 354 435 354 435 325 c 0,4,5
 435 275 435 275 407.5 240 c 128,-1,6
 380 205 380 205 335.5 186 c 128,-1,7
 291 167 291 167 239 167 c 0,8,9
 234 167 234 167 229 167 c 128,-1,10
 224 167 224 167 219 167 c 1,11,12
 213 157 213 157 210.5 145 c 128,-1,13
 208 133 208 133 208 123 c 0,14,15
 208 114 208 114 209 107.5 c 128,-1,16
 210 101 210 101 211 100 c 2,17,-1
 225 99 l 2,18,19
 260 96 260 96 304 89.5 c 128,-1,20
 348 83 348 83 388.5 68.5 c 128,-1,21
 429 54 429 54 455.5 28 c 128,-1,22
 482 2 482 2 482 -40 c 0,23,24
 482 -87 482 -87 447.5 -130.5 c 128,-1,25
 413 -174 413 -174 354 -201.5 c 128,-1,26
 295 -229 295 -229 222 -229 c 0,27,28
 133 -229 133 -229 83.5 -188 c 128,-1,29
 34 -147 34 -147 34 -87 c 0,30,31
 34 -44 34 -44 60 -10 c 128,-1,32
 86 24 86 24 140 34 c 1,33,34
 135 50 135 50 132.5 56.5 c 128,-1,35
 130 63 130 63 130 80 c 0,36,37
 130 100 130 100 142 123.5 c 128,-1,38
 154 147 154 147 180 174 c 1,39,40
 130 185 130 185 93 224.5 c 128,-1,41
 56 264 56 264 56 324 c 0,42,43
 56 403 56 403 111.5 448.5 c 128,-1,44
 167 494 167 494 257 494 c 0,45,46
 293 494 293 494 323.5 483.5 c 128,-1,47
 354 473 354 473 373 464 c 1,48,-1
 508 464 l 1,49,-1
 508 415 l 1,0,-1
340 331 m 0,50,51
 340 363 340 363 329 390.5 c 128,-1,52
 318 418 318 418 297.5 435.5 c 128,-1,53
 277 453 277 453 247 453 c 0,54,55
 205 453 205 453 178.5 420.5 c 128,-1,56
 152 388 152 388 152 330 c 0,57,58
 152 280 152 280 176 244 c 128,-1,59
 200 208 200 208 247 208 c 0,60,61
 292 208 292 208 316 244 c 128,-1,62
 340 280 340 280 340 331 c 0,50,51
396 -67 m 0,63,64
 396 -36 396 -36 374.5 -18.5 c 128,-1,65
 353 -1 353 -1 320.5 7 c 128,-1,66
 288 15 288 15 255.5 18.5 c 128,-1,67
 223 22 223 22 200 27 c 1,68,69
 157 11 157 11 140.5 -15.5 c 128,-1,70
 124 -42 124 -42 124 -67 c 0,71,72
 124 -91 124 -91 138 -118 c 128,-1,73
 152 -145 152 -145 181 -164 c 128,-1,74
 210 -183 210 -183 255 -183 c 0,75,76
 303 -183 303 -183 334 -164 c 128,-1,77
 365 -145 365 -145 380.5 -118 c 128,-1,78
 396 -91 396 -91 396 -67 c 0,63,64
EndSplineSet
EndChar

StartChar: h
Encoding: 104 104 93
Width: 574
Flags: W
LayerCount: 2
Fore
SplineSet
551 0 m 1,0,-1
 328 0 l 1,1,-1
 328 39 l 1,2,-1
 369 42 l 2,3,4
 378 43 378 43 384.5 49 c 128,-1,5
 391 55 391 55 391 64 c 2,6,-1
 391 322 l 2,7,8
 391 365 391 365 370.5 393 c 128,-1,9
 350 421 350 421 292 421 c 0,10,11
 266 421 266 421 235.5 412.5 c 128,-1,12
 205 404 205 404 183 392 c 1,13,-1
 183 64 l 2,14,15
 183 43 183 43 203 42 c 2,16,-1
 246 39 l 1,17,-1
 246 0 l 1,18,-1
 21 0 l 1,19,-1
 21 39 l 1,20,-1
 69 42 l 2,21,22
 90 43 90 43 90 64 c 2,23,-1
 90 665 l 1,24,-1
 15 665 l 1,25,-1
 15 698 l 1,26,-1
 143 737 l 1,27,-1
 183 737 l 1,28,-1
 183 432 l 1,29,30
 201 443 201 443 230 457.5 c 128,-1,31
 259 472 259 472 290.5 483 c 128,-1,32
 322 494 322 494 348 494 c 0,33,34
 406 494 406 494 445 457 c 128,-1,35
 484 420 484 420 484 343 c 2,36,-1
 484 64 l 2,37,38
 484 55 484 55 490.5 49 c 128,-1,39
 497 43 497 43 506 42 c 2,40,-1
 551 39 l 1,41,-1
 551 0 l 1,0,-1
EndSplineSet
EndChar

StartChar: i
Encoding: 105 105 94
Width: 303
Flags: W
LayerCount: 2
Fore
SplineSet
218 647 m 0,0,1
 218 622 218 622 200.5 603.5 c 128,-1,2
 183 585 183 585 157 585 c 256,3,4
 132 585 132 585 113.5 603.5 c 128,-1,5
 95 622 95 622 95 647 c 0,6,7
 95 673 95 673 113.5 690.5 c 128,-1,8
 132 708 132 708 157 708 c 256,9,10
 182 708 182 708 200 690.5 c 128,-1,11
 218 673 218 673 218 647 c 0,0,1
269 0 m 1,12,-1
 34 0 l 1,13,-1
 34 39 l 1,14,-1
 83 42 l 2,15,16
 104 43 104 43 104 64 c 2,17,-1
 104 421 l 1,18,-1
 35 421 l 1,19,-1
 35 456 l 1,20,-1
 157 494 l 1,21,-1
 197 494 l 1,22,-1
 197 64 l 2,23,24
 197 55 197 55 203 49 c 128,-1,25
 209 43 209 43 218 42 c 2,26,-1
 269 39 l 1,27,-1
 269 0 l 1,12,-1
EndSplineSet
EndChar

StartChar: j
Encoding: 106 106 95
Width: 291
Flags: W
LayerCount: 2
Fore
SplineSet
213 647 m 0,0,1
 213 622 213 622 195.5 603.5 c 128,-1,2
 178 585 178 585 152 585 c 0,3,4
 127 585 127 585 108.5 603.5 c 128,-1,5
 90 622 90 622 90 647 c 0,6,7
 90 673 90 673 108 690.5 c 128,-1,8
 126 708 126 708 152 708 c 0,9,10
 178 708 178 708 195.5 690.5 c 128,-1,11
 213 673 213 673 213 647 c 0,0,1
202 64 m 2,12,13
 202 34 202 34 199.5 -2.5 c 128,-1,14
 197 -39 197 -39 188.5 -74 c 128,-1,15
 180 -109 180 -109 163 -136 c 0,16,17
 133 -183 133 -183 88.5 -206 c 128,-1,18
 44 -229 44 -229 -3 -229 c 0,19,20
 -34 -229 -34 -229 -56.5 -215.5 c 128,-1,21
 -79 -202 -79 -202 -79 -174 c 0,22,23
 -79 -149 -79 -149 -65 -135 c 128,-1,24
 -51 -121 -51 -121 -36 -116 c 1,25,-1
 61 -183 l 1,26,27
 89 -167 89 -167 99 -123 c 128,-1,28
 109 -79 109 -79 109 -21 c 2,29,-1
 109 423 l 1,30,-1
 38 423 l 1,31,-1
 38 456 l 1,32,-1
 161 494 l 1,33,-1
 202 494 l 1,34,-1
 202 64 l 2,12,13
EndSplineSet
EndChar

StartChar: k
Encoding: 107 107 96
Width: 534
Flags: W
LayerCount: 2
Fore
SplineSet
524 0 m 1,0,-1
 364 0 l 1,1,-1
 364 39 l 1,2,-1
 239 227 l 1,3,-1
 183 227 l 1,4,-1
 183 64 l 2,5,6
 183 43 183 43 204 42 c 2,7,-1
 247 39 l 1,8,-1
 247 0 l 1,9,-1
 20 0 l 1,10,-1
 20 39 l 1,11,-1
 69 42 l 2,12,13
 90 43 90 43 90 64 c 2,14,-1
 90 665 l 1,15,-1
 14 665 l 1,16,-1
 14 698 l 1,17,-1
 142 737 l 1,18,-1
 183 737 l 1,19,-1
 183 256 l 1,20,-1
 203 256 l 1,21,-1
 350 422 l 2,22,23
 352 424 352 424 352 428 c 0,24,25
 352 438 352 438 342 439 c 2,26,-1
 301 443 l 1,27,-1
 301 482 l 1,28,-1
 495 482 l 1,29,-1
 495 443 l 1,30,-1
 431 436 l 1,31,-1
 299 295 l 1,32,-1
 471 45 l 1,33,-1
 524 39 l 1,34,-1
 524 0 l 1,0,-1
EndSplineSet
Substitution2: "Single Substitution lookup 0 subtable" e
EndChar

StartChar: l
Encoding: 108 108 97
Width: 296
Flags: W
LayerCount: 2
Fore
SplineSet
270 0 m 1,0,-1
 27 0 l 1,1,-1
 27 39 l 1,2,-1
 80 42 l 2,3,4
 87 42 87 42 94.5 49.5 c 128,-1,5
 102 57 102 57 102 63 c 2,6,-1
 102 665 l 1,7,-1
 26 665 l 1,8,-1
 26 698 l 1,9,-1
 154 737 l 1,10,-1
 195 737 l 1,11,-1
 195 63 l 2,12,13
 195 57 195 57 202 49.5 c 128,-1,14
 209 42 209 42 216 42 c 2,15,-1
 270 39 l 1,16,-1
 270 0 l 1,0,-1
EndSplineSet
EndChar

StartChar: m
Encoding: 109 109 98
Width: 850
Flags: W
LayerCount: 2
Fore
SplineSet
828 0 m 1,0,-1
 604 0 l 1,1,-1
 604 39 l 1,2,-1
 646 42 l 2,3,4
 667 43 667 43 667 64 c 2,5,-1
 667 319 l 2,6,7
 667 365 667 365 647.5 393 c 128,-1,8
 628 421 628 421 578 421 c 0,9,10
 553 421 553 421 523.5 413 c 128,-1,11
 494 405 494 405 471 393 c 1,12,-1
 471 64 l 2,13,14
 471 43 471 43 492 42 c 2,15,-1
 534 39 l 1,16,-1
 534 0 l 1,17,-1
 315 0 l 1,18,-1
 315 39 l 1,19,-1
 357 42 l 2,20,21
 378 43 378 43 378 64 c 2,22,-1
 378 325 l 2,23,24
 378 367 378 367 358 394 c 128,-1,25
 338 421 338 421 290 421 c 0,26,27
 262 421 262 421 231 411.5 c 128,-1,28
 200 402 200 402 183 392 c 1,29,-1
 183 64 l 2,30,31
 183 43 183 43 204 42 c 2,32,-1
 246 39 l 1,33,-1
 246 0 l 1,34,-1
 20 0 l 1,35,-1
 20 39 l 1,36,-1
 69 42 l 2,37,38
 90 43 90 43 90 64 c 2,39,-1
 90 411 l 1,40,-1
 21 411 l 1,41,-1
 21 444 l 1,42,-1
 142 482 l 1,43,-1
 183 482 l 1,44,-1
 183 432 l 1,45,46
 205 446 205 446 233.5 460 c 128,-1,47
 262 474 262 474 291 484 c 128,-1,48
 320 494 320 494 346 494 c 0,49,50
 389 494 389 494 416 472 c 128,-1,51
 443 450 443 450 456 425 c 1,52,53
 476 438 476 438 507 454 c 128,-1,54
 538 470 538 470 571 482 c 128,-1,55
 604 494 604 494 630 494 c 0,56,57
 683 494 683 494 710.5 470 c 128,-1,58
 738 446 738 446 748.5 410.5 c 128,-1,59
 759 375 759 375 759 341 c 2,60,-1
 759 64 l 2,61,62
 759 55 759 55 765 49 c 128,-1,63
 771 43 771 43 780 42 c 2,64,-1
 828 39 l 1,65,-1
 828 0 l 1,0,-1
EndSplineSet
EndChar

StartChar: n
Encoding: 110 110 99
Width: 566
Flags: W
LayerCount: 2
Fore
SplineSet
547 0 m 1,0,-1
 326 0 l 1,1,-1
 326 39 l 1,2,-1
 368 42 l 2,3,4
 377 43 377 43 383 49 c 128,-1,5
 389 55 389 55 389 64 c 2,6,-1
 389 324 l 2,7,8
 389 371 389 371 367 396 c 128,-1,9
 345 421 345 421 293 421 c 0,10,11
 265 421 265 421 236.5 413 c 128,-1,12
 208 405 208 405 183 392 c 1,13,-1
 183 64 l 2,14,15
 183 43 183 43 204 42 c 2,16,-1
 246 39 l 1,17,-1
 246 0 l 1,18,-1
 20 0 l 1,19,-1
 20 39 l 1,20,-1
 69 42 l 2,21,22
 90 43 90 43 90 64 c 2,23,-1
 90 411 l 1,24,-1
 20 411 l 1,25,-1
 20 444 l 1,26,-1
 142 482 l 1,27,-1
 183 482 l 1,28,-1
 183 432 l 1,29,30
 225 456 225 456 269 475 c 128,-1,31
 313 494 313 494 348 494 c 0,32,33
 413 494 413 494 447.5 453.5 c 128,-1,34
 482 413 482 413 482 340 c 2,35,-1
 482 64 l 2,36,37
 482 55 482 55 488 49 c 128,-1,38
 494 43 494 43 503 42 c 2,39,-1
 547 39 l 1,40,-1
 547 0 l 1,0,-1
EndSplineSet
MultipleSubs2: "Multiple Substitution lookup 1 subtable" p e
Substitution2: "Single Substitution lookup 0 subtable" p
EndChar

StartChar: o
Encoding: 111 111 100
Width: 543
Flags: W
LayerCount: 2
Fore
SplineSet
510 240 m 0,0,1
 510 169 510 169 480.5 112 c 128,-1,2
 451 55 451 55 397.5 21.5 c 128,-1,3
 344 -12 344 -12 271 -12 c 0,4,5
 198 -12 198 -12 145 21 c 128,-1,6
 92 54 92 54 63 111 c 128,-1,7
 34 168 34 168 34 240 c 0,8,9
 34 311 34 311 63 369 c 128,-1,10
 92 427 92 427 146 460.5 c 128,-1,11
 200 494 200 494 274 494 c 0,12,13
 349 494 349 494 401.5 460 c 128,-1,14
 454 426 454 426 482 368 c 128,-1,15
 510 310 510 310 510 240 c 0,0,1
406 241 m 256,16,17
 406 296 406 296 391.5 343.5 c 128,-1,18
 377 391 377 391 347.5 420 c 128,-1,19
 318 449 318 449 273 449 c 0,20,21
 227 449 227 449 197 420 c 128,-1,22
 167 391 167 391 153 343.5 c 128,-1,23
 139 296 139 296 139 241 c 0,24,25
 139 187 139 187 153.5 139.5 c 128,-1,26
 168 92 168 92 197.5 62.5 c 128,-1,27
 227 33 227 33 272 33 c 0,28,29
 318 33 318 33 347.5 62.5 c 128,-1,30
 377 92 377 92 391.5 139 c 128,-1,31
 406 186 406 186 406 241 c 256,16,17
EndSplineSet
Substitution2: "Single Substitution lookup 0 subtable" T
EndChar

StartChar: p
Encoding: 112 112 101
Width: 559
Flags: W
LayerCount: 2
Fore
SplineSet
525 248 m 0,0,1
 525 169 525 169 494.5 110.5 c 128,-1,2
 464 52 464 52 407.5 20 c 128,-1,3
 351 -12 351 -12 272 -12 c 0,4,5
 254 -12 254 -12 233 -9.5 c 128,-1,6
 212 -7 212 -7 197.5 -5 c 0,7,-1
 183 -3 l 1,8,-1
 183 -152 l 2,9,10
 183 -161 183 -161 189.5 -166.5 c 128,-1,11
 196 -172 196 -172 205 -173 c 2,12,-1
 264 -179 l 1,13,-1
 264 -218 l 1,14,-1
 21 -218 l 1,15,-1
 21 -179 l 1,16,-1
 69 -173 l 2,17,18
 90 -172 90 -172 90 -152 c 2,19,-1
 90 411 l 1,20,-1
 21 411 l 1,21,-1
 21 444 l 1,22,-1
 144 482 l 1,23,-1
 183 482 l 1,24,-1
 183 432 l 1,25,26
 195.5 441.5 l 0,27,28
 208 451 208 451 229 463.5 c 128,-1,29
 250 476 250 476 277.5 485 c 128,-1,30
 305 494 305 494 334 494 c 0,31,32
 386 494 386 494 429 463.5 c 128,-1,33
 472 433 472 433 498.5 378 c 128,-1,34
 525 323 525 323 525 248 c 0,0,1
425 234 m 256,35,36
 425 286 425 286 409 329 c 128,-1,37
 393 372 393 372 362 398 c 128,-1,38
 331 424 331 424 285 424 c 0,39,40
 260 424 260 424 236.5 416.5 c 128,-1,41
 213 409 213 409 198 401.5 c 0,42,-1
 183 394 l 1,43,-1
 183 50 l 1,44,-1
 208 42 l 0,45,46
 233 34 233 34 264 34 c 0,47,48
 319 34 319 34 354.5 62.5 c 128,-1,49
 390 91 390 91 407.5 136.5 c 128,-1,50
 425 182 425 182 425 234 c 256,35,36
EndSplineSet
EndChar

StartChar: q
Encoding: 113 113 102
Width: 548
Flags: W
LayerCount: 2
Fore
SplineSet
534 -218 m 1,0,-1
 292 -218 l 1,1,-1
 292 -180 l 1,2,-1
 351 -175 l 2,3,4
 360 -174 360 -174 366 -168.5 c 128,-1,5
 372 -163 372 -163 372 -154 c 2,6,-1
 372 27 l 1,7,8
 344 13 344 13 305 0.5 c 128,-1,9
 266 -12 266 -12 232 -12 c 0,10,11
 170 -12 170 -12 126 20.5 c 128,-1,12
 82 53 82 53 58 108 c 128,-1,13
 34 163 34 163 34 229 c 0,14,15
 34 352 34 352 110.5 423 c 128,-1,16
 187 494 187 494 323 494 c 0,17,18
 350 494 350 494 392 489.5 c 128,-1,19
 434 485 434 485 465 478 c 1,20,-1
 465 -154 l 2,21,22
 465 -163 465 -163 471 -168 c 128,-1,23
 477 -173 477 -173 486 -175 c 2,24,-1
 534 -180 l 1,25,-1
 534 -218 l 1,0,-1
372 61 m 1,26,-1
 372 438 l 1,27,28
 358 441 358 441 340.5 444.5 c 128,-1,29
 323 448 323 448 303 448 c 0,30,31
 221 448 221 448 178 392.5 c 128,-1,32
 135 337 135 337 135 245 c 0,33,34
 135 194 135 194 150.5 148.5 c 128,-1,35
 166 103 166 103 199 75 c 128,-1,36
 232 47 232 47 286 47 c 0,37,38
 305 47 305 47 330 51.5 c 128,-1,39
 355 56 355 56 372 61 c 1,26,-1
EndSplineSet
EndChar

StartChar: r
Encoding: 114 114 103
Width: 391
Flags: W
LayerCount: 2
Fore
SplineSet
381 380 m 1,0,-1
 342 380 l 1,1,2
 333 391 333 391 320 399 c 128,-1,3
 307 407 307 407 288 407 c 0,4,5
 264 407 264 407 239 390.5 c 128,-1,6
 214 374 214 374 188 345 c 1,7,-1
 188 64 l 2,8,9
 188 43 188 43 209 42 c 2,10,-1
 275 39 l 1,11,-1
 275 0 l 1,12,-1
 25 0 l 1,13,-1
 25 38 l 1,14,-1
 74 42 l 2,15,16
 83 43 83 43 89 49 c 128,-1,17
 95 55 95 55 95 64 c 2,18,-1
 95 411 l 1,19,-1
 23 411 l 1,20,-1
 23 444 l 1,21,-1
 147 482 l 1,22,-1
 188 482 l 1,23,-1
 188 393 l 1,24,25
 203 409 203 409 225 433 c 128,-1,26
 247 457 247 457 271.5 475.5 c 128,-1,27
 296 494 296 494 320 494 c 0,28,29
 336 494 336 494 354 489 c 128,-1,30
 372 484 372 484 381 479 c 1,31,-1
 381 380 l 1,0,-1
EndSplineSet
EndChar

StartChar: s
Encoding: 115 115 104
Width: 397
Flags: W
LayerCount: 2
Fore
SplineSet
364 145 m 0,0,1
 364 71 364 71 313 29.5 c 128,-1,2
 262 -12 262 -12 173 -12 c 0,3,4
 127 -12 127 -12 88 -2.5 c 128,-1,5
 49 7 49 7 34 13 c 1,6,-1
 34 146 l 1,7,-1
 85 146 l 1,8,-1
 97 61 l 1,9,10
 112 51 112 51 134.5 42 c 128,-1,11
 157 33 157 33 186 33 c 0,12,13
 229 33 229 33 252.5 57 c 128,-1,14
 276 81 276 81 276 111 c 0,15,16
 276 151 276 151 247.5 171 c 128,-1,17
 219 191 219 191 167 216 c 2,18,-1
 154 222 l 2,19,20
 99 248 99 248 70 276 c 128,-1,21
 41 304 41 304 41 349 c 0,22,23
 41 416 41 416 88 455 c 128,-1,24
 135 494 135 494 221 494 c 0,25,26
 265 494 265 494 299.5 486 c 128,-1,27
 334 478 334 478 349 471 c 1,28,-1
 349 353 l 1,29,-1
 297 353 l 1,30,-1
 289 423 l 1,31,32
 278 431 278 431 257 438.5 c 128,-1,33
 236 446 236 446 213 446 c 0,34,35
 172 446 172 446 152 427 c 128,-1,36
 132 408 132 408 132 379 c 0,37,38
 132 345 132 345 156 325.5 c 128,-1,39
 180 306 180 306 244 277 c 0,40,41
 296 253 296 253 330 223.5 c 128,-1,42
 364 194 364 194 364 145 c 0,0,1
EndSplineSet
EndChar

StartChar: t
Encoding: 116 116 105
Width: 339
Flags: W
LayerCount: 2
Fore
SplineSet
333 61 m 1,0,-1
 333 21 l 1,1,2
 314 12.5 l 0,3,4
 295 4 295 4 264.5 -4 c 128,-1,5
 234 -12 234 -12 198 -12 c 0,6,7
 142 -12 142 -12 116.5 14.5 c 128,-1,8
 91 41 91 41 91 100 c 2,9,-1
 91 432 l 1,10,-1
 27 432 l 1,11,-1
 27 465 l 1,12,-1
 95 497 l 1,13,-1
 140 603 l 1,14,-1
 184 603 l 1,15,-1
 184 482 l 1,16,-1
 325 482 l 1,17,-1
 325 432 l 1,18,-1
 184 432 l 1,19,-1
 184 153 l 2,20,21
 184 93 184 93 204 68.5 c 128,-1,22
 224 44 224 44 264 44 c 0,23,24
 293 44 293 44 303 48 c 0,25,-1
 333 61 l 1,0,-1
EndSplineSet
EndChar

StartChar: u
Encoding: 117 117 106
Width: 568
Flags: W
LayerCount: 2
Fore
SplineSet
548 0 m 1,0,-1
 389 0 l 1,1,-1
 389 57 l 1,2,3
 372 44 372 44 345.5 28 c 128,-1,4
 319 12 319 12 289 0 c 128,-1,5
 259 -12 259 -12 229 -12 c 0,6,7
 165 -12 165 -12 128 26.5 c 128,-1,8
 91 65 91 65 91 150 c 2,9,-1
 91 421 l 1,10,-1
 21 421 l 1,11,-1
 21 455 l 1,12,-1
 144 494 l 1,13,-1
 184 494 l 1,14,-1
 184 169 l 2,15,16
 184 116 184 116 206 86 c 128,-1,17
 228 56 228 56 281 56 c 0,18,19
 312 56 312 56 341.5 66.5 c 128,-1,20
 371 77 371 77 389 86 c 1,21,-1
 389 421 l 1,22,-1
 319 421 l 1,23,-1
 319 455 l 1,24,-1
 441 494 l 1,25,-1
 482 494 l 1,26,-1
 482 64 l 2,27,28
 482 55 482 55 488.5 49 c 128,-1,29
 495 43 495 43 504 42 c 2,30,-1
 548 39 l 1,31,-1
 548 0 l 1,0,-1
EndSplineSet
EndChar

StartChar: v
Encoding: 118 118 107
Width: 528
Flags: W
LayerCount: 2
Fore
SplineSet
519 443 m 1,0,-1
 466 437 l 1,1,-1
 291 0 l 1,2,-1
 226 0 l 1,3,-1
 65 437 l 1,4,-1
 10 443 l 1,5,-1
 10 482 l 1,6,-1
 231 482 l 1,7,-1
 231 443 l 1,8,-1
 183 440 l 2,9,10
 167 439 167 439 167 424 c 0,11,12
 167 422 167 422 168 418 c 2,13,-1
 280 105 l 1,14,-1
 403 418 l 2,15,16
 404 421 404 421 404 424 c 0,17,18
 404 439 404 439 389 440 c 2,19,-1
 344 443 l 1,20,-1
 344 482 l 1,21,-1
 519 482 l 1,22,-1
 519 443 l 1,0,-1
EndSplineSet
EndChar

StartChar: w
Encoding: 119 119 108
Width: 783
Flags: W
LayerCount: 2
Fore
SplineSet
773 443 m 1,0,-1
 722 437 l 1,1,-1
 585 0 l 1,2,-1
 514 0 l 1,3,-1
 396 374 l 1,4,-1
 264 0 l 1,5,-1
 193 0 l 1,6,-1
 65 437 l 1,7,-1
 10 443 l 1,8,-1
 10 482 l 1,9,-1
 229 482 l 1,10,-1
 229 443 l 1,11,-1
 182 440 l 2,12,13
 166 439 166 439 167 423 c 0,14,15
 167 420 167 420 167 418 c 2,16,-1
 250 107 l 1,17,-1
 379 482 l 1,18,-1
 450 482 l 1,19,-1
 566 107 l 1,20,-1
 658 418 l 2,21,22
 658 419 658 419 659 423 c 0,23,24
 659 429 659 429 655 434 c 128,-1,25
 651 439 651 439 644 440 c 2,26,-1
 598 443 l 1,27,-1
 598 482 l 1,28,-1
 773 482 l 1,29,-1
 773 443 l 1,0,-1
EndSplineSet
Substitution2: "Single Substitution lookup 0 subtable" y
EndChar

StartChar: x
Encoding: 120 120 109
Width: 509
Flags: W
LayerCount: 2
Fore
SplineSet
500 0 m 1,0,-1
 285 0 l 1,1,-1
 285 39 l 1,2,-1
 319 43 l 2,3,4
 330 44 330 44 330 55 c 0,5,6
 330 58 330 58 328 61 c 2,7,-1
 242 189 l 1,8,-1
 144 61 l 2,9,10
 142 59 142 59 142 53 c 0,11,12
 142 43 142 43 150 43 c 2,13,-1
 200 39 l 1,14,-1
 200 0 l 1,15,-1
 10 0 l 1,16,-1
 10 39 l 1,17,-1
 67 47 l 1,18,-1
 210 233 l 1,19,-1
 74 434 l 1,20,-1
 15 443 l 1,21,-1
 15 482 l 1,22,-1
 235 482 l 1,23,-1
 235 443 l 1,24,-1
 200 438 l 2,25,26
 188 437 188 437 188 425 c 0,27,28
 188 422 188 422 190 420 c 2,29,-1
 269 308 l 1,30,-1
 356 420 l 2,31,32
 358 423 358 423 358 427 c 0,33,34
 358 437 358 437 349 438 c 2,35,-1
 306 443 l 1,36,-1
 306 482 l 1,37,-1
 486 482 l 1,38,-1
 486 443 l 1,39,-1
 432 434 l 1,40,-1
 298 263 l 1,41,-1
 446 47 l 1,42,-1
 500 39 l 1,43,-1
 500 0 l 1,0,-1
EndSplineSet
EndChar

StartChar: y
Encoding: 121 121 110
Width: 529
Flags: W
LayerCount: 2
Fore
SplineSet
520 443 m 1,0,-1
 468 437 l 1,1,-1
 276 -31 l 2,2,3
 270 -47 270 -47 256.5 -77 c 128,-1,4
 243 -107 243 -107 224.5 -138.5 c 128,-1,5
 206 -170 206 -170 185 -191 c 0,6,7
 167 -209 167 -209 145.5 -219 c 128,-1,8
 124 -229 124 -229 98 -229 c 0,9,10
 62 -229 62 -229 43.5 -211.5 c 128,-1,11
 25 -194 25 -194 25 -172 c 0,12,13
 25 -139 25 -139 57 -112 c 1,14,-1
 151 -155 l 1,15,16
 168 -138 168 -138 184.5 -110 c 128,-1,17
 201 -82 201 -82 214.5 -51.5 c 128,-1,18
 228 -21 228 -21 235 1 c 1,19,-1
 65 437 l 1,20,-1
 10 443 l 1,21,-1
 10 482 l 1,22,-1
 231 482 l 1,23,-1
 231 443 l 1,24,-1
 183 440 l 2,25,26
 167 439 167 439 167 424 c 0,27,28
 167 420 167 420 168 418 c 2,29,-1
 284 123 l 1,30,-1
 403 418 l 2,31,32
 404 421 404 421 404 424 c 0,33,34
 404 439 404 439 389 440 c 2,35,-1
 342 443 l 1,36,-1
 342 482 l 1,37,-1
 520 482 l 1,38,-1
 520 443 l 1,0,-1
EndSplineSet
EndChar

StartChar: z
Encoding: 122 122 111
Width: 461
Flags: W
LayerCount: 2
Fore
SplineSet
428 0 m 1,0,-1
 34 0 l 1,1,-1
 34 53 l 1,2,-1
 299 435 l 1,3,-1
 125 435 l 2,4,5
 118 435 118 435 112 428 c 128,-1,6
 106 421 106 421 105 414 c 2,7,-1
 95 340 l 1,8,-1
 44 340 l 1,9,-1
 44 482 l 1,10,-1
 414 482 l 1,11,-1
 414 441 l 1,12,-1
 140 48 l 1,13,-1
 342 48 l 2,14,15
 349 48 349 48 356 56 c 128,-1,16
 363 64 363 64 364 72 c 2,17,-1
 374 151 l 1,18,-1
 428 151 l 1,19,-1
 428 0 l 1,0,-1
EndSplineSet
EndChar

StartChar: braceleft
Encoding: 123 123 112
Width: 487
Flags: W
LayerCount: 2
Fore
SplineSet
419 -82 m 1,0,-1
 419 -123 l 1,1,2
 366 -123 366 -123 318 -114 c 128,-1,3
 270 -105 270 -105 245 -79 c 0,4,5
 217 -49 217 -49 210.5 -10.5 c 128,-1,6
 204 28 204 28 204 70 c 2,7,-1
 204 122 l 2,8,9
 204 183 204 183 193 214 c 128,-1,10
 182 245 182 245 151 256.5 c 128,-1,11
 120 268 120 268 60 268 c 1,12,-1
 60 313 l 1,13,14
 120 313 120 313 151 324.5 c 128,-1,15
 182 336 182 336 193 367.5 c 128,-1,16
 204 399 204 399 204 459 c 2,17,-1
 204 511 l 2,18,19
 204 553 204 553 210.5 591.5 c 128,-1,20
 217 630 217 630 245 660 c 0,21,22
 269 686 269 686 317.5 695 c 128,-1,23
 366 704 366 704 419 704 c 1,24,-1
 419 663 l 1,25,26
 411 663 411 663 391 661 c 128,-1,27
 371 659 371 659 350.5 652.5 c 128,-1,28
 330 646 330 646 317 633 c 0,29,30
 300 615 300 615 296.5 585.5 c 128,-1,31
 293 556 293 556 293 522 c 2,32,-1
 293 485 l 2,33,34
 293 429 293 429 283.5 390.5 c 128,-1,35
 274 352 274 352 245.5 328 c 128,-1,36
 217 304 217 304 158 291 c 1,37,38
 217 279 217 279 245.5 254 c 128,-1,39
 274 229 274 229 283.5 190 c 128,-1,40
 293 151 293 151 293 96 c 2,41,-1
 293 59 l 2,42,43
 293 26 293 26 296.5 -4 c 128,-1,44
 300 -34 300 -34 317 -52 c 0,45,46
 330 -66 330 -66 350.5 -72 c 128,-1,47
 371 -78 371 -78 391 -80 c 128,-1,48
 411 -82 411 -82 419 -82 c 1,0,-1
EndSplineSet
EndChar

StartChar: bar
Encoding: 124 124 113
Width: 500
Flags: W
LayerCount: 2
Fore
SplineSet
285 -236 m 1,0,-1
 215 -236 l 1,1,-1
 215 764 l 1,2,-1
 285 764 l 1,3,-1
 285 -236 l 1,0,-1
EndSplineSet
EndChar

StartChar: braceright
Encoding: 125 125 114
Width: 487
Flags: W
LayerCount: 2
Fore
SplineSet
428 313 m 1,0,-1
 428 268 l 1,1,2
 369 268 369 268 338 257.5 c 128,-1,3
 307 247 307 247 295.5 216 c 128,-1,4
 284 185 284 185 284 125 c 2,5,-1
 284 70 l 2,6,7
 284 28 284 28 278 -10.5 c 128,-1,8
 272 -49 272 -49 243 -79 c 0,9,10
 218 -105 218 -105 170.5 -114 c 128,-1,11
 123 -123 123 -123 69 -123 c 1,12,-1
 69 -82 l 1,13,14
 78 -82 78 -82 97.5 -80 c 128,-1,15
 117 -78 117 -78 138 -71.5 c 128,-1,16
 159 -65 159 -65 171 -52 c 0,17,18
 187 -35 187 -35 191 -6 c 128,-1,19
 195 23 195 23 195 56 c 0,20,21
 195 66 195 66 195 76 c 128,-1,22
 195 86 195 86 195 96 c 0,23,24
 195 152 195 152 204.5 190.5 c 128,-1,25
 214 229 214 229 243 254 c 128,-1,26
 272 279 272 279 330 291 c 1,27,28
 271 304 271 304 242.5 328 c 128,-1,29
 214 352 214 352 204.5 390.5 c 128,-1,30
 195 429 195 429 195 485 c 0,31,32
 195 495 195 495 195 505 c 128,-1,33
 195 515 195 515 195 525 c 0,34,35
 195 558 195 558 191 587 c 128,-1,36
 187 616 187 616 171 633 c 0,37,38
 159 647 159 647 138 653 c 128,-1,39
 117 659 117 659 97.5 661 c 128,-1,40
 78 663 78 663 69 663 c 1,41,-1
 69 704 l 1,42,43
 123 704 123 704 170.5 695 c 128,-1,44
 218 686 218 686 243 660 c 0,45,46
 272 630 272 630 278 591.5 c 128,-1,47
 284 553 284 553 284 511 c 2,48,-1
 284 457 l 2,49,50
 284 397 284 397 295.5 366 c 128,-1,51
 307 335 307 335 338 324 c 128,-1,52
 369 313 369 313 428 313 c 1,0,-1
EndSplineSet
EndChar

StartChar: asciitilde
Encoding: 126 126 115
Width: 833
Flags: W
LayerCount: 2
Fore
SplineSet
747 371 m 1,0,-1
 747 306 l 1,1,2
 689 266 689 266 645.5 251 c 128,-1,3
 602 236 602 236 559 236 c 0,4,5
 523 236 523 236 488 246 c 128,-1,6
 453 256 453 256 417.5 269.5 c 128,-1,7
 382 283 382 283 345.5 293 c 128,-1,8
 309 303 309 303 270 303 c 0,9,10
 232 303 232 303 184 282.5 c 128,-1,11
 136 262 136 262 86 225 c 1,12,-1
 86 290 l 1,13,14
 140 328 140 328 188 344.5 c 128,-1,15
 236 361 236 361 276 361 c 0,16,17
 313 361 313 361 349.5 351 c 128,-1,18
 386 341 386 341 422 327.5 c 128,-1,19
 458 314 458 314 492.5 304 c 128,-1,20
 527 294 527 294 560 294 c 0,21,22
 596 294 596 294 641.5 311 c 128,-1,23
 687 328 687 328 747 371 c 1,0,-1
EndSplineSet
EndChar

StartChar: exclamdown
Encoding: 161 161 117
Width: 540
Flags: W
LayerCount: 2
Fore
SplineSet
315 465 m 0,0,1
 315 433 315 433 293 410.5 c 128,-1,2
 271 388 271 388 239 388 c 0,3,4
 207 388 207 388 184.5 410.5 c 128,-1,5
 162 433 162 433 162 465 c 0,6,7
 162 497 162 497 184.5 519 c 128,-1,8
 207 541 207 541 239 541 c 0,9,10
 271 541 271 541 293 519 c 128,-1,11
 315 497 315 497 315 465 c 0,0,1
307 -0 m 0,12,13
 307 -58 307 -58 289 -85 c 128,-1,14
 271 -112 271 -112 239 -112 c 0,15,16
 207 -112 207 -112 190 -87.5 c 128,-1,17
 173 -63 173 -63 173 0 c 0,18,19
 173 12 173 12 174 28.5 c 128,-1,20
 175 45 175 45 179.5 78.5 c 128,-1,21
 184 112 184 112 192.5 174 c 128,-1,22
 201 236 201 236 216 341 c 1,23,-1
 263 341 l 1,24,25
 277 238 277 238 285.5 176 c 128,-1,26
 294 114 294 114 299 80.5 c 128,-1,27
 304 47 304 47 305.5 30.5 c 128,-1,28
 307 14 307 14 307 -0 c 0,12,13
EndSplineSet
Substitution2: "'cv01' Zeichenvariante 01 in Ethiopic lookup 12 subtable" exclamdown.punct
EndChar

StartChar: exclamdown.punct
Encoding: 1114133 -1 118
Width: 337
Flags: W
LayerCount: 2
Fore
SplineSet
230 432 m 0,0,1
 230 407 230 407 212 389 c 128,-1,2
 194 371 194 371 169 371 c 256,3,4
 144 371 144 371 125.5 388.5 c 128,-1,5
 107 406 107 406 107 432 c 256,6,7
 107 458 107 458 125.5 476 c 128,-1,8
 144 494 144 494 169 494 c 256,9,10
 194 494 194 494 212 476 c 128,-1,11
 230 458 230 458 230 432 c 0,0,1
229 -128 m 2,12,13
 229 -131 229 -131 229 -134.5 c 128,-1,14
 229 -138 229 -138 229 -141 c 0,15,16
 229 -176 229 -176 212.5 -190.5 c 128,-1,17
 196 -205 196 -205 169 -205 c 256,18,19
 142 -205 142 -205 124.5 -190.5 c 128,-1,20
 107 -176 107 -176 107 -140 c 0,21,22
 107 -137 107 -137 107 -134 c 128,-1,23
 107 -131 107 -131 108 -128 c 2,24,-1
 145 301 l 1,25,-1
 193 301 l 1,26,-1
 229 -128 l 2,12,13
EndSplineSet
EndChar

StartChar: cent
Encoding: 162 162 119
Width: 562
Flags: W
LayerCount: 2
Fore
SplineSet
487 23 m 1,0,1
 485 21 485 21 449.5 10.5 c 128,-1,2
 414 0 414 0 343 0 c 1,3,-1
 343 -99 l 1,4,-1
 295 -99 l 1,5,-1
 295 2 l 1,6,7
 227 10 227 10 178 43.5 c 128,-1,8
 129 77 129 77 102.5 130.5 c 128,-1,9
 76 184 76 184 76 252 c 0,10,11
 76 318 76 318 103.5 371.5 c 128,-1,12
 131 425 131 425 180 459 c 128,-1,13
 229 493 229 493 295 502 c 1,14,-1
 295 604 l 1,15,-1
 343 604 l 1,16,-1
 343 506 l 1,17,18
 381 506 381 506 414.5 500 c 128,-1,19
 448 494 448 494 487 481 c 1,20,-1
 487 334 l 1,21,-1
 439 334 l 1,22,23
 432 378 432 378 429 396.5 c 128,-1,24
 426 415 426 415 425 418.5 c 128,-1,25
 424 422 424 422 424 423 c 0,26,27
 423 428 423 428 420.5 434 c 128,-1,28
 418 440 418 440 413 442 c 0,29,30
 402 448 402 448 388 452.5 c 128,-1,31
 374 457 374 457 343 457 c 1,32,-1
 343 48 l 1,33,34
 375 49 375 49 394 55.5 c 0,35,-1
 413 62 l 2,36,37
 417 64 417 64 420 69.5 c 128,-1,38
 423 75 423 75 425 78 c 2,39,-1
 438 174 l 1,40,-1
 487 174 l 1,41,-1
 487 23 l 1,0,1
295 51 m 1,42,-1
 295 454 l 1,43,44
 269 448 269 448 240.5 425 c 128,-1,45
 212 402 212 402 192 360 c 128,-1,46
 172 318 172 318 172 255 c 0,47,48
 172 166 172 166 208.5 114.5 c 128,-1,49
 245 63 245 63 295 51 c 1,42,-1
EndSplineSet
EndChar

StartChar: sterling
Encoding: 163 163 120
Width: 562
Flags: W
LayerCount: 2
Fore
SplineSet
520 631 m 0,0,1
 520 607 520 607 501 590.5 c 128,-1,2
 482 574 482 574 458 574 c 0,3,4
 447 574 447 574 434.5 576.5 c 0,5,-1
 422 579 l 1,6,-1
 422 679 l 1,7,8
 407 683 l 0,9,10
 392 687 392 687 377 687 c 0,11,12
 334 687 334 687 307 669 c 128,-1,13
 280 651 280 651 266.5 622 c 128,-1,14
 253 593 253 593 248 558 c 128,-1,15
 243 523 243 523 243 489 c 0,16,17
 243 467 243 467 243.5 441 c 128,-1,18
 244 415 244 415 244.5 396.5 c 0,19,-1
 245 378 l 1,20,-1
 431 378 l 1,21,-1
 431 329 l 1,22,-1
 245 329 l 1,23,24
 245 265 245 265 237 219 c 128,-1,25
 229 173 229 173 206 138.5 c 128,-1,26
 183 104 183 104 139 76 c 1,27,-1
 155.5 77.5 l 0,28,29
 172 79 172 79 192 80.5 c 128,-1,30
 212 82 212 82 222 82 c 2,31,-1
 518 82 l 1,32,-1
 518 0 l 1,33,-1
 43 0 l 1,34,-1
 43 61 l 1,35,36
 104 77 104 77 128 124.5 c 128,-1,37
 152 172 152 172 152 250 c 2,38,-1
 152 256 l 2,39,40
 152 257 152 257 152 269 c 0,41,42
 152 280 152 280 152 294 c 128,-1,43
 152 308 152 308 151.5 318.5 c 0,44,-1
 151 329 l 1,45,-1
 81 329 l 1,46,-1
 81 378 l 1,47,-1
 150 378 l 1,48,-1
 149.5 390.5 l 0,49,50
 149 403 149 403 149 421.5 c 128,-1,51
 149 440 149 440 149 458.5 c 128,-1,52
 149 477 149 477 149 488 c 0,53,54
 149 557 149 557 171.5 613.5 c 128,-1,55
 194 670 194 670 241.5 703.5 c 128,-1,56
 289 737 289 737 362 737 c 0,57,58
 385 737 385 737 412 731 c 128,-1,59
 439 725 439 725 464 712.5 c 128,-1,60
 489 700 489 700 504.5 680 c 128,-1,61
 520 660 520 660 520 631 c 0,0,1
EndSplineSet
EndChar

StartChar: currency
Encoding: 164 164 121
Width: 605
Flags: W
LayerCount: 2
Fore
SplineSet
564 205 m 1,0,-1
 529 170 l 1,1,-1
 428 271 l 1,2,3
 403 251 403 251 371 240 c 128,-1,4
 339 229 339 229 304 229 c 0,5,6
 232 229 232 229 179 271 c 1,7,-1
 78 170 l 1,8,-1
 42 206 l 1,9,-1
 144 307 l 1,10,11
 124 333 124 333 112 365.5 c 128,-1,12
 100 398 100 398 100 433 c 256,13,14
 100 468 100 468 111.5 500 c 128,-1,15
 123 532 123 532 142 557 c 1,16,-1
 42 657 l 1,17,-1
 78 692 l 1,18,-1
 177 592 l 1,19,20
 232 636 232 636 304 636 c 0,21,22
 339 636 339 636 371 624.5 c 128,-1,23
 403 613 403 613 429 593 c 1,24,-1
 529 692 l 1,25,-1
 564 657 l 1,26,-1
 465 557 l 1,27,28
 507 505 507 505 507 433 c 0,29,30
 507 360 507 360 463 306 c 1,31,-1
 564 205 l 1,0,-1
457 433 m 256,32,33
 457 475 457 475 436.5 510 c 128,-1,34
 416 545 416 545 381.5 565.5 c 128,-1,35
 347 586 347 586 304 586 c 256,36,37
 262 586 262 586 226.5 565.5 c 128,-1,38
 191 545 191 545 170.5 510.5 c 128,-1,39
 150 476 150 476 150 433 c 256,40,41
 150 391 150 391 170.5 356 c 128,-1,42
 191 321 191 321 226.5 300 c 128,-1,43
 262 279 262 279 304 279 c 256,44,45
 346 279 346 279 381 300 c 128,-1,46
 416 321 416 321 436.5 356 c 128,-1,47
 457 391 457 391 457 433 c 256,32,33
EndSplineSet
EndChar

StartChar: yen
Encoding: 165 165 122
Width: 596
Flags: W
LayerCount: 2
Fore
SplineSet
586 629 m 1,0,-1
 530 616 l 1,1,-1
 423 427 l 1,2,-1
 564 427 l 1,3,-1
 564 383 l 1,4,-1
 398 383 l 1,5,-1
 340 281 l 1,6,-1
 564 281 l 1,7,-1
 564 237 l 1,8,-1
 341 237 l 1,9,-1
 341 69 l 2,10,11
 341 64 341 64 347.5 56 c 128,-1,12
 354 48 354 48 367 47 c 2,13,-1
 425 42 l 1,14,-1
 425 0 l 1,15,-1
 164 0 l 1,16,-1
 164 42 l 1,17,-1
 223 47 l 2,18,19
 237 48 237 48 242.5 56 c 128,-1,20
 248 64 248 64 248 69 c 2,21,-1
 248 237 l 1,22,-1
 32 237 l 1,23,-1
 32 281 l 1,24,-1
 246 281 l 1,25,-1
 192 383 l 1,26,-1
 32 383 l 1,27,-1
 32 427 l 1,28,-1
 168 427 l 1,29,-1
 69 617 l 1,30,-1
 10 629 l 1,31,-1
 10 671 l 1,32,-1
 234 671 l 1,33,-1
 234 629 l 1,34,-1
 191 622 l 2,35,36
 177 620 177 620 177 607 c 0,37,38
 177 605 177 605 179 600 c 2,39,-1
 311 342 l 1,40,-1
 456 599 l 2,41,42
 458 602 458 602 458 607 c 0,43,44
 458 619 458 619 443 621 c 2,45,-1
 395 629 l 1,46,-1
 395 671 l 1,47,-1
 586 671 l 1,48,-1
 586 629 l 1,0,-1
EndSplineSet
EndChar

StartChar: brokenbar
Encoding: 166 166 123
Width: 500
Flags: W
LayerCount: 2
Fore
SplineSet
284 329 m 1,0,-1
 216 329 l 1,1,-1
 216 700 l 1,2,-1
 284 700 l 1,3,-1
 284 329 l 1,0,-1
284 -171 m 1,4,-1
 216 -171 l 1,5,-1
 216 200 l 1,6,-1
 284 200 l 1,7,-1
 284 -171 l 1,4,-1
EndSplineSet
EndChar

StartChar: section
Encoding: 167 167 124
Width: 500
Flags: W
LayerCount: 2
Fore
SplineSet
441 325 m 0,0,1
 441 286 441 286 423.5 254 c 128,-1,2
 406 222 406 222 378.5 198.5 c 128,-1,3
 351 175 351 175 320 163 c 1,4,5
 363 143 363 143 393 111 c 128,-1,6
 423 79 423 79 423 31 c 0,7,8
 423 -14 423 -14 399 -48.5 c 128,-1,9
 375 -83 375 -83 333 -102.5 c 128,-1,10
 291 -122 291 -122 237 -122 c 0,11,12
 185 -122 185 -122 143.5 -110 c 128,-1,13
 102 -98 102 -98 83 -90 c 1,14,-1
 83 41 l 1,15,-1
 133 41 l 1,16,17
 135 27 135 27 136.5 21 c 128,-1,18
 138 15 138 15 139 8.5 c 128,-1,19
 140 2 140 2 142 -10 c 128,-1,20
 144 -22 144 -22 147 -49 c 1,21,22
 165 -61 165 -61 192 -68 c 128,-1,23
 219 -75 219 -75 241 -75 c 0,24,25
 285 -75 285 -75 314.5 -53 c 128,-1,26
 344 -31 344 -31 344 6 c 0,27,28
 344 35 344 35 323.5 56 c 128,-1,29
 303 77 303 77 270.5 94 c 128,-1,30
 238 111 238 111 201.5 129 c 128,-1,31
 165 147 165 147 132.5 170 c 128,-1,32
 100 193 100 193 79.5 225.5 c 128,-1,33
 59 258 59 258 59 305 c 0,34,35
 59 349 59 349 75 378.5 c 128,-1,36
 91 408 91 408 118 427.5 c 128,-1,37
 145 447 145 447 177 462 c 1,38,39
 133 485 133 485 105 515 c 128,-1,40
 77 545 77 545 77 590 c 0,41,42
 77 658 77 658 125.5 697.5 c 128,-1,43
 174 737 174 737 271 737 c 0,44,45
 314 737 314 737 354.5 728.5 c 128,-1,46
 395 720 395 720 410 713 c 1,47,-1
 410 583 l 1,48,-1
 363 583 l 1,49,-1
 353 664 l 1,50,51
 336 673 336 673 312.5 683 c 128,-1,52
 289 693 289 693 259 693 c 0,53,54
 215 693 215 693 187 669 c 128,-1,55
 159 645 159 645 159 609 c 0,56,57
 159 584 159 584 179.5 564.5 c 128,-1,58
 200 545 200 545 232 528.5 c 128,-1,59
 264 512 264 512 300 494.5 c 128,-1,60
 336 477 336 477 368 454 c 128,-1,61
 400 431 400 431 420.5 399.5 c 128,-1,62
 441 368 441 368 441 325 c 0,0,1
363 300 m 0,63,64
 363 345 363 345 327 379.5 c 128,-1,65
 291 414 291 414 225 441 c 1,66,67
 179 425 179 425 157 393 c 128,-1,68
 135 361 135 361 135 328 c 0,69,70
 135 282 135 282 170.5 250 c 128,-1,71
 206 218 206 218 279 183 c 1,72,73
 294 191 294 191 313.5 208.5 c 128,-1,74
 333 226 333 226 348 250 c 128,-1,75
 363 274 363 274 363 300 c 0,63,64
EndSplineSet
EndChar

StartChar: dieresis
Encoding: 168 168 125
Width: 315
Flags: W
LayerCount: 2
Fore
SplineSet
316 641 m 256,0,1
 316 619 316 619 300.5 602 c 128,-1,2
 285 585 285 585 262 585 c 256,3,4
 240 585 240 585 223.5 602 c 128,-1,5
 207 619 207 619 207 641 c 0,6,7
 207 662 207 662 224 679 c 128,-1,8
 241 696 241 696 262 696 c 0,9,10
 284 696 284 696 300 679.5 c 128,-1,11
 316 663 316 663 316 641 c 256,0,1
109 641 m 256,12,13
 109 619 109 619 93 602 c 128,-1,14
 77 585 77 585 54 585 c 0,15,16
 32 585 32 585 16 601.5 c 128,-1,17
 0 618 0 618 0 640 c 0,18,19
 0 661 0 661 16 678.5 c 128,-1,20
 32 696 32 696 54 696 c 0,21,22
 76 696 76 696 92.5 679.5 c 128,-1,23
 109 663 109 663 109 641 c 256,12,13
EndSplineSet
EndChar

StartChar: copyright
Encoding: 169 169 126
Width: 868
Flags: W
LayerCount: 2
Fore
SplineSet
808 361 m 256,0,1
 808 283 808 283 779 215 c 128,-1,2
 750 147 750 147 698.5 95.5 c 128,-1,3
 647 44 647 44 579.5 15 c 128,-1,4
 512 -14 512 -14 434 -14 c 256,5,6
 356 -14 356 -14 288.5 15 c 128,-1,7
 221 44 221 44 169.5 95.5 c 128,-1,8
 118 147 118 147 89 215 c 128,-1,9
 60 283 60 283 60 361 c 256,10,11
 60 439 60 439 89 506.5 c 128,-1,12
 118 574 118 574 169.5 626 c 128,-1,13
 221 678 221 678 288.5 707 c 128,-1,14
 356 736 356 736 434 736 c 256,15,16
 512 736 512 736 579.5 707 c 128,-1,17
 647 678 647 678 698.5 626 c 128,-1,18
 750 574 750 574 779 506.5 c 128,-1,19
 808 439 808 439 808 361 c 256,0,1
758 361 m 256,20,21
 758 428 758 428 733 487 c 128,-1,22
 708 546 708 546 663.5 590.5 c 128,-1,23
 619 635 619 635 560 660.5 c 128,-1,24
 501 686 501 686 434 686 c 0,25,26
 367 686 367 686 308.5 660.5 c 128,-1,27
 250 635 250 635 205 590.5 c 128,-1,28
 160 546 160 546 135 487 c 128,-1,29
 110 428 110 428 110 361 c 256,30,31
 110 294 110 294 135 235 c 128,-1,32
 160 176 160 176 205 131 c 128,-1,33
 250 86 250 86 308.5 61 c 128,-1,34
 367 36 367 36 434 36 c 0,35,36
 501 36 501 36 560 61 c 128,-1,37
 619 86 619 86 663.5 131 c 128,-1,38
 708 176 708 176 733 235 c 128,-1,39
 758 294 758 294 758 361 c 256,20,21
629 289 m 1,40,41
 625 244 625 244 604.5 206.5 c 128,-1,42
 584 169 584 169 543 147 c 128,-1,43
 502 125 502 125 437 125 c 0,44,45
 397 125 397 125 359.5 135.5 c 128,-1,46
 322 146 322 146 291.5 172 c 128,-1,47
 261 198 261 198 243 243.5 c 128,-1,48
 225 289 225 289 225 359 c 0,49,50
 225 430 225 430 245 483.5 c 128,-1,51
 265 537 265 537 310 567 c 128,-1,52
 355 597 355 597 429 597 c 0,53,54
 489 597 489 597 527.5 583 c 128,-1,55
 566 569 566 569 587 546.5 c 128,-1,56
 608 524 608 524 616.5 497.5 c 128,-1,57
 625 471 625 471 625 445 c 1,58,-1
 545 445 l 1,59,60
 545 491 545 491 516 517 c 128,-1,61
 487 543 487 543 423 543 c 0,62,63
 394 543 394 543 367 524 c 128,-1,64
 340 505 340 505 323.5 464 c 128,-1,65
 307 423 307 423 307 359 c 0,66,67
 307 262 307 262 343.5 224.5 c 128,-1,68
 380 187 380 187 438 187 c 0,69,70
 478 187 478 187 501.5 204 c 128,-1,71
 525 221 525 221 536 245 c 128,-1,72
 547 269 547 269 549 289 c 1,73,-1
 629 289 l 1,40,41
EndSplineSet
Substitution2: "'cv01' Zeichenvariante 01 in Ethiopic lookup 12 subtable" copyright.punct
EndChar

StartChar: copyright.punct
Encoding: 1114134 -1 127
Width: 836
Flags: W
LayerCount: 2
Fore
SplineSet
803 351 m 0,0,1
 803 271 803 271 773 201 c 128,-1,2
 743 131 743 131 690.5 77.5 c 128,-1,3
 638 24 638 24 568 -6 c 128,-1,4
 498 -36 498 -36 418 -36 c 0,5,6
 339 -36 339 -36 269.5 -6 c 128,-1,7
 200 24 200 24 147 77.5 c 128,-1,8
 94 131 94 131 64 201 c 128,-1,9
 34 271 34 271 34 350 c 0,10,11
 34 430 34 430 64 500 c 128,-1,12
 94 570 94 570 147 623.5 c 128,-1,13
 200 677 200 677 269.5 707 c 128,-1,14
 339 737 339 737 419 737 c 0,15,16
 500 737 500 737 569.5 706.5 c 128,-1,17
 639 676 639 676 691.5 622.5 c 128,-1,18
 744 569 744 569 773.5 499.5 c 128,-1,19
 803 430 803 430 803 351 c 0,0,1
760 350 m 256,20,21
 760 421 760 421 733.5 483.5 c 128,-1,22
 707 546 707 546 660 593.5 c 128,-1,23
 613 641 613 641 551.5 668 c 128,-1,24
 490 695 490 695 419 695 c 256,25,26
 348 695 348 695 286 668 c 128,-1,27
 224 641 224 641 177 593.5 c 128,-1,28
 130 546 130 546 103.5 483.5 c 128,-1,29
 77 421 77 421 77 350 c 0,30,31
 77 279 77 279 103.5 217 c 128,-1,32
 130 155 130 155 177 107.5 c 128,-1,33
 224 60 224 60 286 33 c 128,-1,34
 348 6 348 6 418 6 c 256,35,36
 488 6 488 6 550 33 c 128,-1,37
 612 60 612 60 659.5 107.5 c 128,-1,38
 707 155 707 155 733.5 217 c 128,-1,39
 760 279 760 279 760 350 c 256,20,21
576 138 m 1,40,41
 573 137 573 137 552.5 131 c 128,-1,42
 532 125 532 125 501 119.5 c 128,-1,43
 470 114 470 114 434 114 c 0,44,45
 355 114 355 114 300.5 147 c 128,-1,46
 246 180 246 180 217.5 233.5 c 128,-1,47
 189 287 189 287 189 350 c 0,48,49
 189 419 189 419 219.5 472 c 128,-1,50
 250 525 250 525 305.5 555 c 128,-1,51
 361 585 361 585 435 585 c 0,52,53
 474 585 474 585 508.5 577.5 c 128,-1,54
 543 570 543 570 576 560 c 1,55,-1
 576 441 l 1,56,-1
 531 441 l 1,57,-1
 516 517 l 1,58,59
 505 524 505 524 485.5 531 c 128,-1,60
 466 538 466 538 445 538 c 0,61,62
 403 538 403 538 365.5 516 c 128,-1,63
 328 494 328 494 304.5 452.5 c 128,-1,64
 281 411 281 411 281 352 c 0,65,66
 281 291 281 291 303 248 c 128,-1,67
 325 205 325 205 360.5 182.5 c 128,-1,68
 396 160 396 160 435 160 c 0,69,70
 459 160 459 160 482 166.5 c 128,-1,71
 505 173 505 173 518 179 c 1,72,-1
 532 264 l 1,73,-1
 576 264 l 1,74,-1
 576 138 l 1,40,41
EndSplineSet
EndChar

StartChar: ordfeminine
Encoding: 170 170 128
Width: 340
Flags: W
LayerCount: 2
Fore
SplineSet
325 383 m 1,0,-1
 229 383 l 1,1,-1
 220 418 l 1,2,3
 203.5 407.5 l 0,4,5
 187 397 187 397 162 386.5 c 128,-1,6
 137 376 137 376 111 376 c 0,7,8
 77 376 77 376 52 397 c 128,-1,9
 27 418 27 418 27 457 c 0,10,11
 27 474 27 474 33.5 488 c 128,-1,12
 40 502 40 502 59.5 515 c 128,-1,13
 79 528 79 528 117.5 540.5 c 128,-1,14
 156 553 156 553 220 566 c 1,15,-1
 220 592 l 2,16,17
 220 651 220 651 160 651 c 0,18,19
 143 651 143 651 130.5 648 c 128,-1,20
 118 645 118 645 113 643 c 1,21,-1
 113 591 l 1,22,-1
 66 591 l 2,23,24
 57 591 57 591 49.5 594 c 128,-1,25
 42 597 42 597 42 608 c 0,26,27
 42 633 42 633 62.5 649 c 128,-1,28
 83 665 83 665 114 672 c 128,-1,29
 145 679 145 679 177 679 c 0,30,31
 238 679 238 679 259 654 c 128,-1,32
 280 629 280 629 280 589 c 2,33,-1
 280 421 l 2,34,35
 280 410 280 410 293 408 c 2,36,-1
 325 406 l 1,37,-1
 325 383 l 1,0,-1
220 439 m 1,38,-1
 220 543 l 1,39,40
 161 530 161 530 133.5 516.5 c 128,-1,41
 106 503 106 503 98.5 489.5 c 128,-1,42
 91 476 91 476 91 461 c 0,43,44
 91 442 91 442 104 426.5 c 128,-1,45
 117 411 117 411 140 411 c 0,46,47
 158 411 158 411 176.5 418 c 128,-1,48
 195 425 195 425 201.5 428.5 c 0,49,-1
 220 439 l 1,38,-1
322 304 m 1,50,-1
 31 304 l 1,51,-1
 31 334 l 1,52,-1
 322 334 l 1,53,-1
 322 304 l 1,50,-1
EndSplineSet
EndChar

StartChar: guillemotleft
Encoding: 171 171 129
Width: 600
Flags: W
LayerCount: 2
Fore
SplineSet
554 561 m 1,0,-1
 416 323 l 1,1,-1
 539 130 l 1,2,-1
 424 114 l 1,3,-1
 301 316 l 1,4,-1
 428 546 l 1,5,-1
 554 561 l 1,0,-1
354 561 m 1,6,-1
 216 323 l 1,7,-1
 339 130 l 1,8,-1
 224 114 l 1,9,-1
 101 316 l 1,10,-1
 228 546 l 1,11,-1
 354 561 l 1,6,-1
EndSplineSet
Substitution2: "'cv01' Zeichenvariante 01 in Ethiopic lookup 12 subtable" guillemotleft.punct
EndChar

StartChar: guillemotleft.punct
Encoding: 1114135 -1 130
Width: 441
Flags: W
LayerCount: 2
Fore
SplineSet
402 64 m 1,0,-1
 235 200 l 1,1,-1
 235 280 l 1,2,-1
 402 417 l 1,3,-1
 402 346 l 1,4,-1
 287 240 l 1,5,-1
 402 133 l 1,6,-1
 402 64 l 1,0,-1
205 64 m 1,7,-1
 38 200 l 1,8,-1
 38 280 l 1,9,-1
 205 417 l 1,10,-1
 205 346 l 1,11,-1
 89 240 l 1,12,-1
 205 133 l 1,13,-1
 205 64 l 1,7,-1
EndSplineSet
EndChar

StartChar: logicalnot
Encoding: 172 172 131
Width: 833
Flags: W
LayerCount: 2
Fore
SplineSet
704 189 m 1,0,-1
 644 189 l 1,1,-1
 644 360 l 1,2,-1
 129 360 l 1,3,-1
 129 420 l 1,4,-1
 704 420 l 1,5,-1
 704 189 l 1,0,-1
EndSplineSet
EndChar

StartChar: uni00AD
Encoding: 173 173 132
Width: 319
Flags: W
LayerCount: 2
Fore
SplineSet
276 203 m 1,0,-1
 44 203 l 1,1,-1
 44 278 l 1,2,-1
 276 278 l 1,3,-1
 276 203 l 1,0,-1
EndSplineSet
EndChar

StartChar: registered
Encoding: 174 174 133
Width: 836
Flags: W
LayerCount: 2
Fore
SplineSet
803 350 m 0,0,1
 803 270 803 270 773 200 c 128,-1,2
 743 130 743 130 690 77 c 128,-1,3
 637 24 637 24 567 -6 c 128,-1,4
 497 -36 497 -36 417 -36 c 0,5,6
 338 -36 338 -36 269 -6 c 128,-1,7
 200 24 200 24 147 77 c 128,-1,8
 94 130 94 130 64 200.5 c 128,-1,9
 34 271 34 271 34 350 c 0,10,11
 34 430 34 430 64 500 c 128,-1,12
 94 570 94 570 147 623.5 c 128,-1,13
 200 677 200 677 269.5 707 c 128,-1,14
 339 737 339 737 419 737 c 0,15,16
 498 737 498 737 567.5 707 c 128,-1,17
 637 677 637 677 690 623.5 c 128,-1,18
 743 570 743 570 773 500 c 128,-1,19
 803 430 803 430 803 350 c 0,0,1
760 350 m 0,20,21
 760 422 760 422 733.5 484.5 c 128,-1,22
 707 547 707 547 660 594.5 c 128,-1,23
 613 642 613 642 551 668.5 c 128,-1,24
 489 695 489 695 419 695 c 256,25,26
 349 695 349 695 287 668.5 c 128,-1,27
 225 642 225 642 178 594.5 c 128,-1,28
 131 547 131 547 104 484 c 128,-1,29
 77 421 77 421 77 348 c 0,30,31
 77 278 77 278 103.5 216 c 128,-1,32
 130 154 130 154 177 107 c 128,-1,33
 224 60 224 60 285.5 33 c 128,-1,34
 347 6 347 6 418 6 c 256,35,36
 489 6 489 6 551 33 c 128,-1,37
 613 60 613 60 660 107.5 c 128,-1,38
 707 155 707 155 733.5 217.5 c 128,-1,39
 760 280 760 280 760 350 c 0,20,21
667 142 m 1,40,41
 663 142 663 142 644 139.5 c 128,-1,42
 625 137 625 137 609 137 c 0,43,44
 565 137 565 137 542 151.5 c 128,-1,45
 519 166 519 166 508.5 188.5 c 128,-1,46
 498 211 498 211 491 237 c 128,-1,47
 484 263 484 263 473.5 285.5 c 128,-1,48
 463 308 463 308 440 322.5 c 128,-1,49
 417 337 417 337 373 337 c 0,50,51
 362 337 362 337 351.5 336.5 c 128,-1,52
 341 336 341 336 340 336 c 2,53,-1
 340 187 l 2,54,55
 340 183 340 183 344 178.5 c 128,-1,56
 348 174 348 174 355 173 c 2,57,-1
 393 170 l 1,58,-1
 393 142 l 1,59,-1
 216 142 l 1,60,-1
 216 170 l 1,61,-1
 254 173 l 2,62,63
 262 174 262 174 265.5 178.5 c 128,-1,64
 269 183 269 183 269 187 c 2,65,-1
 269 535 l 2,66,67
 269 539 269 539 265.5 543.5 c 128,-1,68
 262 548 262 548 254 549 c 2,69,-1
 216 552 l 1,70,-1
 216 580 l 1,71,-1
 402 580 l 2,72,73
 484 580 484 580 530.5 554 c 128,-1,74
 577 528 577 528 577 464 c 0,75,76
 577 430 577 430 560.5 408.5 c 128,-1,77
 544 387 544 387 517.5 374.5 c 128,-1,78
 491 362 491 362 460 355 c 1,79,80
 500 346 500 346 519 329 c 128,-1,81
 538 312 538 312 545.5 291 c 128,-1,82
 553 270 553 270 557.5 249 c 128,-1,83
 562 228 562 228 571 209.5 c 128,-1,84
 580 191 580 191 602 180 c 128,-1,85
 624 169 624 169 667 169 c 1,86,-1
 667 142 l 1,40,41
499 461 m 0,87,88
 499 503 499 503 470 526 c 128,-1,89
 441 549 441 549 374 549 c 2,90,-1
 340 549 l 1,91,-1
 340 369 l 2,92,93
 341 369 341 369 355 368.5 c 128,-1,94
 369 368 369 368 377 368 c 0,95,96
 437 368 437 368 468 388.5 c 128,-1,97
 499 409 499 409 499 461 c 0,87,88
EndSplineSet
EndChar

StartChar: macron
Encoding: 175 175 134
Width: 334
Flags: W
LayerCount: 2
Fore
SplineSet
335 585 m 1,0,-1
 0 585 l 1,1,-1
 0 649 l 1,2,-1
 335 649 l 1,3,-1
 335 585 l 1,0,-1
EndSplineSet
EndChar

StartChar: degree
Encoding: 176 176 135
Width: 319
Flags: W
LayerCount: 2
Fore
SplineSet
281 610 m 0,0,1
 281 577 281 577 265 549 c 128,-1,2
 249 521 249 521 221.5 505 c 128,-1,3
 194 489 194 489 160 489 c 256,4,5
 126 489 126 489 98.5 505 c 128,-1,6
 71 521 71 521 55 549 c 128,-1,7
 39 577 39 577 39 610 c 0,8,9
 39 644 39 644 55 671 c 128,-1,10
 71 698 71 698 98.5 714.5 c 128,-1,11
 126 731 126 731 160 731 c 256,12,13
 194 731 194 731 221.5 714.5 c 128,-1,14
 249 698 249 698 265 671 c 128,-1,15
 281 644 281 644 281 610 c 0,0,1
222 610 m 0,16,17
 222 636 222 636 204 654 c 128,-1,18
 186 672 186 672 160 672 c 256,19,20
 135 672 135 672 116.5 654 c 128,-1,21
 98 636 98 636 98 610 c 0,22,23
 98 585 98 585 116.5 566.5 c 128,-1,24
 135 548 135 548 160 548 c 256,25,26
 185 548 185 548 203.5 566.5 c 128,-1,27
 222 585 222 585 222 610 c 0,16,17
EndSplineSet
EndChar

StartChar: plusminus
Encoding: 177 177 136
Width: 833
Flags: W
LayerCount: 2
Fore
SplineSet
709 351 m 1,0,-1
 446 351 l 1,1,-1
 446 183 l 1,2,-1
 388 183 l 1,3,-1
 388 351 l 1,4,-1
 124 351 l 1,5,-1
 124 408 l 1,6,-1
 388 408 l 1,7,-1
 388 576 l 1,8,-1
 446 576 l 1,9,-1
 446 408 l 1,10,-1
 709 408 l 1,11,-1
 709 351 l 1,0,-1
709 20 m 1,12,-1
 124 20 l 1,13,-1
 124 77 l 1,14,-1
 709 77 l 1,15,-1
 709 20 l 1,12,-1
EndSplineSet
EndChar

StartChar: uni00B9
Encoding: 185 185 137
Width: 404
Flags: W
LayerCount: 2
Fore
SplineSet
269 300 m 1,0,-1
 193 300 l 1,1,-1
 193 621 l 1,2,3
 173 606 173 606 140.5 592.5 c 128,-1,4
 108 579 108 579 86 573 c 1,5,-1
 86 635 l 1,6,7
 103 641 103 641 125 654 c 128,-1,8
 147 667 147 667 166 680.5 c 128,-1,9
 185 694 185 694 190 701 c 1,10,-1
 269 701 l 1,11,-1
 269 300 l 1,0,-1
EndSplineSet
Substitution2: "'cv01' Zeichenvariante 01 in Ethiopic lookup 12 subtable" uni00B9.punct
EndChar

StartChar: uni00B9.punct
Encoding: 1114136 -1 138
Width: 366
Flags: W
LayerCount: 2
Fore
SplineSet
290 383 m 1,0,-1
 70 383 l 1,1,-1
 70 412 l 1,2,-1
 136 412 l 2,3,4
 150 412 150 412 150 425 c 2,5,-1
 150 742 l 1,6,-1
 49 726 l 1,7,-1
 49 752 l 1,8,-1
 190 792 l 1,9,-1
 214 792 l 1,10,-1
 214 425 l 2,11,12
 214 420 214 420 218.5 416 c 128,-1,13
 223 412 223 412 229 410 c 2,14,-1
 290 410 l 1,15,-1
 290 383 l 1,0,-1
EndSplineSet
EndChar

StartChar: uni00B2
Encoding: 178 178 139
Width: 404
Flags: W
LayerCount: 2
Fore
SplineSet
354 601 m 0,0,1
 354 556 354 556 323.5 517.5 c 128,-1,2
 293 479 293 479 238.5 441.5 c 128,-1,3
 184 404 184 404 111 362 c 1,4,-1
 346 362 l 1,5,-1
 346 300 l 1,6,-1
 32 300 l 1,7,-1
 32 357 l 1,8,9
 126 421 126 421 178.5 465.5 c 128,-1,10
 231 510 231 510 252.5 541.5 c 128,-1,11
 274 573 274 573 274 600 c 0,12,13
 274 613 274 613 268 628 c 128,-1,14
 262 643 262 643 246.5 653 c 128,-1,15
 231 663 231 663 202 663 c 0,16,17
 159 663 159 663 141 638.5 c 128,-1,18
 123 614 123 614 120 589 c 1,19,-1
 40 589 l 1,20,21
 49 713 49 713 205 713 c 0,22,23
 277 713 277 713 315.5 682.5 c 128,-1,24
 354 652 354 652 354 601 c 0,0,1
EndSplineSet
Substitution2: "'cv01' Zeichenvariante 01 in Ethiopic lookup 12 subtable" uni00B2.punct
EndChar

StartChar: uni00B2.punct
Encoding: 1114137 -1 140
Width: 366
Flags: W
LayerCount: 2
Fore
SplineSet
335 383 m 1,0,-1
 31 383 l 1,1,-1
 31 423 l 1,2,-1
 62 446 l 2,3,4
 120 490 120 490 164 526.5 c 128,-1,5
 208 563 208 563 232.5 598 c 128,-1,6
 257 633 257 633 257 672 c 0,7,8
 257 715 257 715 229.5 737.5 c 128,-1,9
 202 760 202 760 164 760 c 0,10,11
 142 760 142 760 127 754 c 128,-1,12
 112 748 112 748 110 747 c 1,13,-1
 110 681 l 1,14,15
 101.5 675.5 l 0,16,17
 93 670 93 670 78 670 c 256,18,19
 63 670 63 670 51 679 c 128,-1,20
 39 688 39 688 39 706 c 0,21,22
 39 731 39 731 59 750.5 c 128,-1,23
 79 770 79 770 111.5 781 c 128,-1,24
 144 792 144 792 182 792 c 0,25,26
 245 792 245 792 286 761 c 128,-1,27
 327 730 327 730 327 678 c 0,28,29
 327 638 327 638 299 601 c 128,-1,30
 271 564 271 564 225 527.5 c 128,-1,31
 179 491 179 491 125 453 c 0,32,33
 119 448 119 448 112.5 443.5 c 128,-1,34
 106 439 106 439 99 434 c 1,35,-1
 292 434 l 1,36,-1
 303 485 l 1,37,-1
 335 485 l 1,38,-1
 335 383 l 1,0,-1
EndSplineSet
EndChar

StartChar: uni00B3
Encoding: 179 179 141
Width: 404
Flags: W
LayerCount: 2
Fore
SplineSet
354 421 m 256,0,1
 354 392 354 392 336.5 364 c 128,-1,2
 319 336 319 336 282 318 c 128,-1,3
 245 300 245 300 186 300 c 256,4,5
 127 300 127 300 94.5 317.5 c 128,-1,6
 62 335 62 335 49 361.5 c 128,-1,7
 36 388 36 388 36 413 c 1,8,-1
 116 413 l 1,9,10
 117 386 117 386 137 368 c 128,-1,11
 157 350 157 350 190 350 c 0,12,13
 223 350 223 350 248.5 369 c 128,-1,14
 274 388 274 388 274 420 c 0,15,16
 274 429 274 429 267.5 446 c 128,-1,17
 261 463 261 463 243.5 477 c 128,-1,18
 226 491 226 491 194 491 c 2,19,-1
 153 491 l 1,20,-1
 153 535 l 1,21,22
 206 535 206 535 229.5 546 c 128,-1,23
 253 557 253 557 259 573 c 128,-1,24
 265 589 265 589 265 604 c 0,25,26
 265 626 265 626 251.5 646.5 c 128,-1,27
 238 667 238 667 200 667 c 0,28,29
 129 667 129 667 126 608 c 1,30,-1
 45 608 l 1,31,32
 48 661 48 661 91 687 c 128,-1,33
 134 713 134 713 196 713 c 0,34,35
 258 713 258 713 302 685.5 c 128,-1,36
 346 658 346 658 346 604 c 0,37,38
 346 575 346 575 333.5 558 c 128,-1,39
 321 541 321 541 301.5 531.5 c 128,-1,40
 282 522 282 522 262 516 c 1,41,42
 282 512 282 512 303.5 500.5 c 128,-1,43
 325 489 325 489 339.5 469.5 c 128,-1,44
 354 450 354 450 354 421 c 256,0,1
EndSplineSet
Substitution2: "'cv01' Zeichenvariante 01 in Ethiopic lookup 12 subtable" uni00B3.punct
EndChar

StartChar: uni00B3.punct
Encoding: 1114138 -1 142
Width: 366
Flags: W
LayerCount: 2
Fore
SplineSet
335 498 m 0,0,1
 335 461 335 461 312 433.5 c 128,-1,2
 289 406 289 406 250.5 390.5 c 128,-1,3
 212 375 212 375 165 375 c 0,4,5
 99 375 99 375 65 398.5 c 128,-1,6
 31 422 31 422 31 444 c 0,7,8
 31 456 31 456 40 466.5 c 128,-1,9
 49 477 49 477 69 477 c 0,10,11
 73 477 73 477 80 476.5 c 128,-1,12
 87 476 87 476 91 473 c 1,13,-1
 111 419 l 1,14,15
 137 406 137 406 167 406 c 0,16,17
 212 406 212 406 240 434 c 128,-1,18
 268 462 268 462 268 498 c 0,19,20
 268 527 268 527 252.5 543.5 c 128,-1,21
 237 560 237 560 214 566.5 c 128,-1,22
 191 573 191 573 170 573 c 0,23,24
 153 573 153 573 142 571.5 c 0,25,-1
 131 570 l 1,26,-1
 131 608 l 2,27,28
 132 608 132 608 138 607.5 c 128,-1,29
 144 607 144 607 148 607 c 0,30,31
 190 607 190 607 221 625.5 c 128,-1,32
 252 644 252 644 252 684 c 0,33,34
 252 722 252 722 226 741 c 128,-1,35
 200 760 200 760 167 760 c 0,36,37
 141 760 141 760 124.5 752.5 c 0,38,-1
 108 745 l 1,39,-1
 108 686 l 2,40,41
 107 686 107 686 99 681.5 c 128,-1,42
 91 677 91 677 79 677 c 0,43,44
 68 677 68 677 55 684 c 128,-1,45
 42 691 42 691 42 711 c 0,46,47
 42 734 42 734 61.5 752.5 c 128,-1,48
 81 771 81 771 113.5 781.5 c 128,-1,49
 146 792 146 792 185 792 c 0,50,51
 241 792 241 792 279.5 765.5 c 128,-1,52
 318 739 318 739 318 691 c 0,53,54
 318 657 318 657 292.5 632 c 128,-1,55
 267 607 267 607 219 594 c 1,56,57
 246 593 246 593 273 583 c 128,-1,58
 300 573 300 573 317.5 552 c 128,-1,59
 335 531 335 531 335 498 c 0,0,1
EndSplineSet
EndChar

StartChar: acute
Encoding: 180 180 143
Width: 351
Flags: W
LayerCount: 2
Fore
SplineSet
351 688 m 0,0,1
 351 662 351 662 328 648 c 2,2,-1
 175 551 l 1,3,-1
 119 551 l 1,4,-1
 251 706 l 2,5,6
 262 719 262 719 273.5 726 c 128,-1,7
 285 733 285 733 305 733 c 0,8,9
 331 733 331 733 341 718 c 128,-1,10
 351 703 351 703 351 688 c 0,0,1
EndSplineSet
EndChar

StartChar: mu
Encoding: 181 181 144
Width: 546
Flags: W
LayerCount: 2
Fore
SplineSet
533 108 m 1,0,-1
 553 108 l 1,1,2
 548 44 548 44 519.5 16 c 128,-1,3
 491 -12 491 -12 452 -12 c 0,4,5
 422 -12 422 -12 397 8.5 c 128,-1,6
 372 29 372 29 364 85 c 1,7,8
 322 36 322 36 288.5 12 c 128,-1,9
 255 -12 255 -12 215 -12 c 0,10,11
 208 -12 208 -12 191.5 -9.5 c 128,-1,12
 175 -7 175 -7 157 2 c 128,-1,13
 139 11 139 11 126 32 c 1,14,-1
 126 8 l 2,15,16
 126 -24 126 -24 132 -56 c 128,-1,17
 138 -88 138 -88 144 -116.5 c 128,-1,18
 150 -145 150 -145 150 -165 c 0,19,20
 150 -190 150 -190 135.5 -206 c 128,-1,21
 121 -222 121 -222 102 -222 c 0,22,23
 85 -222 85 -222 71.5 -206.5 c 128,-1,24
 58 -191 58 -191 58 -167 c 0,25,26
 58 -144 58 -144 63 -125 c 128,-1,27
 68 -106 68 -106 74 -81 c 128,-1,28
 80 -56 80 -56 85 -13.5 c 128,-1,29
 90 29 90 29 90 101 c 2,30,-1
 90 482 l 1,31,-1
 183 482 l 1,32,-1
 183 197 l 2,33,34
 183 126 183 126 192 98 c 0,35,36
 198 79 198 79 214.5 65 c 128,-1,37
 231 51 231 51 255 51 c 0,38,39
 284 51 284 51 309 68.5 c 128,-1,40
 334 86 334 86 364 120 c 1,41,-1
 364 482 l 1,42,-1
 457 482 l 1,43,-1
 457 137 l 2,44,45
 457 92 457 92 461.5 72.5 c 128,-1,46
 466 53 466 53 474 49 c 128,-1,47
 482 45 482 45 491 45 c 0,48,49
 507 45 507 45 516 58 c 128,-1,50
 525 71 525 71 533 108 c 1,0,-1
EndSplineSet
EndChar

StartChar: paragraph
Encoding: 182 182 145
Width: 560
Flags: W
LayerCount: 2
Fore
SplineSet
500 683 m 1,0,-1
 440 683 l 1,1,-1
 440 0 l 1,2,-1
 390 0 l 1,3,-1
 390 683 l 1,4,-1
 300 683 l 1,5,-1
 300 0 l 1,6,-1
 250 0 l 1,7,-1
 250 382 l 1,8,9
 221 382 221 382 188 390.5 c 128,-1,10
 155 399 155 399 126 418.5 c 128,-1,11
 97 438 97 438 78.5 471 c 128,-1,12
 60 504 60 504 60 553 c 256,13,14
 60 602 60 602 78.5 634.5 c 128,-1,15
 97 667 97 667 126 686.5 c 128,-1,16
 155 706 155 706 188 714 c 128,-1,17
 221 722 221 722 250 722 c 2,18,-1
 500 722 l 1,19,-1
 500 683 l 1,0,-1
EndSplineSet
EndChar

StartChar: periodcentered
Encoding: 183 183 146
Width: 280
Flags: W
LayerCount: 2
Fore
SplineSet
208 335 m 0,0,1
 208 307 208 307 187.5 287.5 c 128,-1,2
 167 268 167 268 140 268 c 0,3,4
 112 268 112 268 92.5 287.5 c 128,-1,5
 73 307 73 307 73 335 c 256,6,7
 73 363 73 363 92.5 383 c 128,-1,8
 112 403 112 403 140 403 c 0,9,10
 167 403 167 403 187.5 383 c 128,-1,11
 208 363 208 363 208 335 c 0,0,1
EndSplineSet
EndChar

StartChar: cedilla
Encoding: 184 184 147
Width: 230
Flags: W
LayerCount: 2
Fore
SplineSet
231 -130 m 0,0,1
 231 -176 231 -176 198.5 -200.5 c 128,-1,2
 166 -225 166 -225 115 -225 c 0,3,4
 89 -225 89 -225 65 -220 c 0,5,-1
 41 -215 l 1,6,-1
 41 -176 l 1,7,8
 62 -180 l 0,9,10
 83 -184 83 -184 101 -184 c 0,11,12
 125 -184 125 -184 145.5 -175 c 128,-1,13
 166 -166 166 -166 166 -143 c 0,14,15
 166 -125 166 -125 152.5 -115.5 c 128,-1,16
 139 -106 139 -106 119 -106 c 0,17,18
 111 -106 111 -106 103.5 -109 c 0,19,-1
 96 -112 l 1,20,-1
 96 0 l 1,21,-1
 135 0 l 1,22,-1
 135 -63 l 1,23,24
 140 -62 140 -62 145 -60.5 c 128,-1,25
 150 -59 150 -59 158 -59 c 0,26,27
 188 -59 188 -59 209.5 -75.5 c 128,-1,28
 231 -92 231 -92 231 -130 c 0,0,1
EndSplineSet
EndChar

StartChar: ordmasculine
Encoding: 186 186 148
Width: 357
Flags: W
LayerCount: 2
Fore
SplineSet
334 527 m 0,0,1
 334 464 334 464 292 420 c 128,-1,2
 250 376 250 376 179 376 c 256,3,4
 108 376 108 376 66 419 c 128,-1,5
 24 462 24 462 24 527 c 0,6,7
 24 591 24 591 66 635 c 128,-1,8
 108 679 108 679 181 679 c 0,9,10
 229 679 229 679 263.5 658.5 c 128,-1,11
 298 638 298 638 316 603.5 c 128,-1,12
 334 569 334 569 334 527 c 0,0,1
332 304 m 1,13,-1
 27 304 l 1,14,-1
 27 334 l 1,15,-1
 332 334 l 1,16,-1
 332 304 l 1,13,-1
267 527 m 0,17,18
 267 576 267 576 245.5 614 c 128,-1,19
 224 652 224 652 180 652 c 0,20,21
 135 652 135 652 114 614 c 128,-1,22
 93 576 93 576 93 527 c 0,23,24
 93 495 93 495 102.5 466.5 c 128,-1,25
 112 438 112 438 131 420.5 c 128,-1,26
 150 403 150 403 179 403 c 0,27,28
 224 403 224 403 245.5 440.5 c 128,-1,29
 267 478 267 478 267 527 c 0,17,18
EndSplineSet
EndChar

StartChar: guillemotright
Encoding: 187 187 149
Width: 600
Flags: W
LayerCount: 2
Fore
SplineSet
499 359 m 1,0,-1
 372 129 l 1,1,-1
 246 114 l 1,2,-1
 384 352 l 1,3,-1
 261 545 l 1,4,-1
 376 561 l 1,5,-1
 499 359 l 1,0,-1
299 359 m 1,6,-1
 172 129 l 1,7,-1
 46 114 l 1,8,-1
 184 352 l 1,9,-1
 61 545 l 1,10,-1
 176 561 l 1,11,-1
 299 359 l 1,6,-1
EndSplineSet
Substitution2: "'cv01' Zeichenvariante 01 in Ethiopic lookup 12 subtable" guillemotright.punct
EndChar

StartChar: guillemotright.punct
Encoding: 1114139 -1 150
Width: 441
Flags: W
LayerCount: 2
Fore
SplineSet
404 201 m 1,0,-1
 237 64 l 1,1,-1
 237 135 l 1,2,-1
 353 241 l 1,3,-1
 237 348 l 1,4,-1
 237 417 l 1,5,-1
 404 281 l 1,6,-1
 404 201 l 1,0,-1
207 201 m 1,7,-1
 40 64 l 1,8,-1
 40 135 l 1,9,-1
 155 241 l 1,10,-1
 40 348 l 1,11,-1
 40 417 l 1,12,-1
 207 281 l 1,13,-1
 207 201 l 1,7,-1
EndSplineSet
EndChar

StartChar: onequarter
Encoding: 188 188 151
Width: 875
Flags: W
LayerCount: 2
Fore
SplineSet
827 114 m 1,0,-1
 753 114 l 1,1,-1
 753 -21 l 1,2,-1
 697 -21 l 1,3,-1
 697 114 l 1,4,-1
 489 114 l 1,5,-1
 489 156 l 1,6,-1
 709 406 l 1,7,-1
 753 406 l 1,8,-1
 753 155 l 1,9,-1
 827 155 l 1,10,-1
 827 114 l 1,0,-1
690 698 m 1,11,-1
 247 0 l 1,12,-1
 183 0 l 1,13,-1
 627 698 l 1,14,-1
 690 698 l 1,11,-1
289 295 m 1,15,-1
 69 295 l 1,16,-1
 69 322 l 1,17,-1
 135 324 l 2,18,19
 149 325 149 325 149 337 c 2,20,-1
 149 654 l 1,21,-1
 48 638 l 1,22,-1
 48 665 l 1,23,-1
 189 705 l 1,24,-1
 213 705 l 1,25,-1
 213 337 l 2,26,27
 213 332 213 332 217.5 328.5 c 128,-1,28
 222 325 222 325 228 324 c 2,29,-1
 289 322 l 1,30,-1
 289 295 l 1,15,-1
697 155 m 1,31,-1
 697 336 l 1,32,-1
 541 155 l 1,33,-1
 697 155 l 1,31,-1
EndSplineSet
EndChar

StartChar: onehalf
Encoding: 189 189 152
Width: 875
Flags: W
LayerCount: 2
Fore
SplineSet
830 0 m 1,0,-1
 525 0 l 1,1,-1
 525 40 l 1,2,-1
 538 50 l 2,3,4
 600 98 600 98 647 137 c 128,-1,5
 694 176 694 176 720 213 c 128,-1,6
 746 250 746 250 746 290 c 0,7,8
 746 333 746 333 722.5 355 c 128,-1,9
 699 377 699 377 661 377 c 0,10,11
 640 377 640 377 627 372 c 128,-1,12
 614 367 614 367 609 365 c 2,13,14
 608.5 364.5 l 0,15,-1
 608 364 l 2,16,-1
 608 298 l 1,17,18
 599.5 293 l 0,19,20
 591 288 591 288 576 288 c 256,21,22
 561 288 561 288 549 296.5 c 128,-1,23
 537 305 537 305 537 323 c 0,24,25
 537 348 537 348 556.5 368 c 128,-1,26
 576 388 576 388 608 399 c 128,-1,27
 640 410 640 410 678 410 c 0,28,29
 741 410 741 410 778 379 c 128,-1,30
 815 348 815 348 815 295 c 0,31,32
 815 253 815 253 784 213 c 128,-1,33
 753 173 753 173 703 133.5 c 128,-1,34
 653 94 653 94 594 51 c 1,35,-1
 786 51 l 1,36,-1
 797 103 l 1,37,-1
 830 103 l 1,38,-1
 830 0 l 1,0,-1
683 698 m 1,39,-1
 239 0 l 1,40,-1
 176 0 l 1,41,-1
 620 698 l 1,42,-1
 683 698 l 1,39,-1
287 295 m 1,43,-1
 67 295 l 1,44,-1
 67 322 l 1,45,-1
 133 324 l 2,46,47
 147 325 147 325 147 337 c 2,48,-1
 147 654 l 1,49,-1
 46 638 l 1,50,-1
 46 665 l 1,51,-1
 187 705 l 1,52,-1
 211 705 l 1,53,-1
 211 337 l 2,54,55
 211 326 211 326 226 324 c 2,56,-1
 287 322 l 1,57,-1
 287 295 l 1,43,-1
EndSplineSet
EndChar

StartChar: threequarters
Encoding: 190 190 153
Width: 875
Flags: W
LayerCount: 2
Fore
SplineSet
838 114 m 1,0,-1
 764 114 l 1,1,-1
 764 -21 l 1,2,-1
 708 -21 l 1,3,-1
 708 114 l 1,4,-1
 500 114 l 1,5,-1
 500 156 l 1,6,-1
 720 406 l 1,7,-1
 764 406 l 1,8,-1
 764 155 l 1,9,-1
 838 155 l 1,10,-1
 838 114 l 1,0,-1
335 412 m 0,11,12
 335 375 335 375 313 347.5 c 128,-1,13
 291 320 291 320 253.5 305 c 128,-1,14
 216 290 216 290 169 290 c 0,15,16
 103 290 103 290 70.5 312.5 c 128,-1,17
 38 335 38 335 38 357 c 0,18,19
 38 369 38 369 47.5 380 c 128,-1,20
 57 391 57 391 76 391 c 0,21,22
 80 391 80 391 87 390 c 128,-1,23
 94 389 94 389 98 386 c 1,24,-1
 118 333 l 1,25,26
 131 327 131 327 143 323.5 c 128,-1,27
 155 320 155 320 171 320 c 0,28,29
 216 320 216 320 242.5 348 c 128,-1,30
 269 376 269 376 269 412 c 0,31,32
 269 441 269 441 254.5 457 c 128,-1,33
 240 473 240 473 218 479.5 c 128,-1,34
 196 486 196 486 175 486 c 0,35,36
 158 486 158 486 148 485 c 0,37,-1
 138 484 l 1,38,-1
 138 521 l 1,39,-1
 155 521 l 2,40,41
 197 521 197 521 225 539 c 128,-1,42
 253 557 253 557 253 597 c 0,43,44
 253 635 253 635 228.5 654 c 128,-1,45
 204 673 204 673 171 673 c 0,46,47
 145 673 145 673 130 666 c 0,48,-1
 115 659 l 1,49,-1
 115 599 l 1,50,51
 113 599 113 599 105.5 595 c 128,-1,52
 98 591 98 591 86 591 c 0,53,54
 75 591 75 591 61.5 598 c 128,-1,55
 48 605 48 605 48 625 c 0,56,57
 48 660 48 660 88.5 683 c 128,-1,58
 129 706 129 706 188 706 c 0,59,60
 245 706 245 706 282 679 c 128,-1,61
 319 652 319 652 319 604 c 0,62,63
 319 570 319 570 293 545.5 c 128,-1,64
 267 521 267 521 219 508 c 1,65,66
 246 507 246 507 273 497 c 128,-1,67
 300 487 300 487 317.5 466 c 128,-1,68
 335 445 335 445 335 412 c 0,11,12
701 698 m 1,69,-1
 257 0 l 1,70,-1
 194 0 l 1,71,-1
 638 698 l 1,72,-1
 701 698 l 1,69,-1
708 155 m 1,73,-1
 708 336 l 1,74,-1
 552 155 l 1,75,-1
 708 155 l 1,73,-1
EndSplineSet
EndChar

StartChar: questiondown
Encoding: 191 191 154
Width: 485
Flags: W
LayerCount: 2
Fore
SplineSet
347 525 m 0,0,1
 347 500 347 500 329.5 482 c 128,-1,2
 312 464 312 464 286 464 c 128,-1,3
 260 464 260 464 242 482 c 128,-1,4
 224 500 224 500 224 526 c 128,-1,5
 224 552 224 552 242.5 569.5 c 128,-1,6
 261 587 261 587 286 587 c 256,7,8
 311 587 311 587 329 569 c 128,-1,9
 347 551 347 551 347 525 c 0,0,1
436 -14 m 0,10,11
 436 -37 436 -37 419 -60 c 128,-1,12
 402 -83 402 -83 367 -97.5 c 128,-1,13
 332 -112 332 -112 277 -112 c 0,14,15
 218 -112 218 -112 171 -90 c 128,-1,16
 124 -68 124 -68 96.5 -28 c 128,-1,17
 69 12 69 12 69 67 c 0,18,19
 69 115 69 115 87.5 150 c 128,-1,20
 106 185 106 185 135 210.5 c 128,-1,21
 164 236 164 236 197 253.5 c 128,-1,22
 230 271 230 271 259 284 c 1,23,-1
 259 396 l 1,24,-1
 315 396 l 1,25,-1
 315 251 l 1,26,27
 284 241 284 241 250 218 c 128,-1,28
 216 195 216 195 193 160 c 128,-1,29
 170 125 170 125 170 75 c 0,30,31
 170 6 170 6 207.5 -28 c 128,-1,32
 245 -62 245 -62 313 -62 c 1,33,-1
 354 39 l 1,34,-1
 362 40 l 0,35,36
 370 41 370 41 371 41 c 0,37,38
 398 41 398 41 417 28 c 128,-1,39
 436 15 436 15 436 -14 c 0,10,11
EndSplineSet
EndChar

StartChar: Agrave
Encoding: 192 192 155
Width: 673
Flags: W
LayerCount: 2
Fore
SplineSet
380 744 m 1,0,-1
 324 744 l 1,1,-1
 172 841 l 2,2,3
 162 848 162 848 155 857.5 c 128,-1,4
 148 867 148 867 148 881 c 0,5,6
 148 896 148 896 158.5 911 c 128,-1,7
 169 926 169 926 195 926 c 0,8,9
 216 926 216 926 226 919 c 128,-1,10
 236 912 236 912 247 899 c 2,11,-1
 380 744 l 1,0,-1
669 0 m 1,12,-1
 431 0 l 1,13,-1
 431 43 l 1,14,-1
 489 48 l 2,15,16
 493 48 493 48 496.5 53 c 128,-1,17
 500 58 500 58 500 62 c 0,18,19
 500 64 500 64 499 65 c 2,20,-1
 430 248 l 1,21,-1
 199 248 l 1,22,-1
 133 68 l 2,23,24
 133 67 133 67 132 65 c 0,25,26
 132 59 132 59 137.5 53.5 c 128,-1,27
 143 48 143 48 147 48 c 2,28,-1
 206 43 l 1,29,-1
 206 0 l 1,30,-1
 5 0 l 1,31,-1
 5 43 l 1,32,-1
 63 55 l 1,33,-1
 296 687 l 1,34,-1
 371 687 l 1,35,-1
 603 70 l 2,36,37
 607 60 607 60 610 56.5 c 128,-1,38
 613 53 613 53 624 51 c 2,39,-1
 669 43 l 1,40,-1
 669 0 l 1,12,-1
412 296 m 1,41,-1
 314 558 l 1,42,-1
 217 296 l 1,43,-1
 412 296 l 1,41,-1
EndSplineSet
EndChar

StartChar: Aacute
Encoding: 193 193 156
Width: 673
Flags: W
LayerCount: 2
Fore
SplineSet
502 881 m 0,0,1
 502 856 502 856 479 841 c 2,2,-1
 328 744 l 1,3,-1
 271 744 l 1,4,-1
 404 899 l 2,5,6
 415 912 415 912 426 919 c 128,-1,7
 437 926 437 926 457 926 c 0,8,9
 483 926 483 926 492.5 911 c 128,-1,10
 502 896 502 896 502 881 c 0,0,1
669 0 m 1,11,-1
 431 0 l 1,12,-1
 431 43 l 1,13,-1
 489 48 l 2,14,15
 493 48 493 48 496.5 53 c 128,-1,16
 500 58 500 58 500 62 c 0,17,18
 500 64 500 64 499 65 c 2,19,-1
 430 248 l 1,20,-1
 199 248 l 1,21,-1
 133 68 l 2,22,23
 133 67 133 67 132 65 c 0,24,25
 132 59 132 59 137.5 53.5 c 128,-1,26
 143 48 143 48 147 48 c 2,27,-1
 206 43 l 1,28,-1
 206 0 l 1,29,-1
 5 0 l 1,30,-1
 5 43 l 1,31,-1
 63 55 l 1,32,-1
 296 687 l 1,33,-1
 371 687 l 1,34,-1
 603 70 l 2,35,36
 607 60 607 60 610 56.5 c 128,-1,37
 613 53 613 53 624 51 c 2,38,-1
 669 43 l 1,39,-1
 669 0 l 1,11,-1
412 296 m 1,40,-1
 314 558 l 1,41,-1
 217 296 l 1,42,-1
 412 296 l 1,40,-1
EndSplineSet
EndChar

StartChar: Acircumflex
Encoding: 194 194 157
Width: 673
Flags: W
LayerCount: 2
Fore
SplineSet
485 744 m 1,0,-1
 425 744 l 1,1,-1
 322 844 l 1,2,-1
 218 744 l 1,3,-1
 158 744 l 1,4,-1
 284 914 l 1,5,-1
 359 914 l 1,6,-1
 485 744 l 1,0,-1
669 0 m 1,7,-1
 431 0 l 1,8,-1
 431 43 l 1,9,-1
 489 48 l 2,10,11
 493 48 493 48 496.5 53 c 128,-1,12
 500 58 500 58 500 62 c 0,13,14
 500 64 500 64 499 65 c 2,15,-1
 430 248 l 1,16,-1
 199 248 l 1,17,-1
 133 68 l 2,18,19
 133 67 133 67 132 65 c 0,20,21
 132 59 132 59 137.5 53.5 c 128,-1,22
 143 48 143 48 147 48 c 2,23,-1
 206 43 l 1,24,-1
 206 0 l 1,25,-1
 5 0 l 1,26,-1
 5 43 l 1,27,-1
 63 55 l 1,28,-1
 296 687 l 1,29,-1
 371 687 l 1,30,-1
 603 70 l 2,31,32
 607 60 607 60 610 56.5 c 128,-1,33
 613 53 613 53 624 51 c 2,34,-1
 669 43 l 1,35,-1
 669 0 l 1,7,-1
412 296 m 1,36,-1
 314 558 l 1,37,-1
 217 296 l 1,38,-1
 412 296 l 1,36,-1
EndSplineSet
EndChar

StartChar: Atilde
Encoding: 195 195 158
Width: 673
Flags: W
LayerCount: 2
Fore
SplineSet
502 885 m 1,0,1
 491 841 491 841 463 808 c 128,-1,2
 435 775 435 775 386 775 c 0,3,4
 360 775 360 775 341 787 c 128,-1,5
 322 799 322 799 301.5 811 c 128,-1,6
 281 823 281 823 248 823 c 0,7,8
 228 823 228 823 212.5 808 c 128,-1,9
 197 793 197 793 195 775 c 1,10,-1
 155 775 l 1,11,12
 166 819 166 819 194 852 c 128,-1,13
 222 885 222 885 271 885 c 0,14,15
 298 885 298 885 317 873 c 128,-1,16
 336 861 336 861 357 849 c 128,-1,17
 378 837 378 837 410 837 c 0,18,19
 430 837 430 837 445 852 c 128,-1,20
 460 867 460 867 462 885 c 1,21,-1
 502 885 l 1,0,1
669 0 m 1,22,-1
 431 0 l 1,23,-1
 431 43 l 1,24,-1
 489 48 l 2,25,26
 493 48 493 48 496.5 53 c 128,-1,27
 500 58 500 58 500 62 c 0,28,29
 500 64 500 64 499 65 c 2,30,-1
 430 248 l 1,31,-1
 199 248 l 1,32,-1
 133 68 l 2,33,34
 133 67 133 67 132 65 c 0,35,36
 132 59 132 59 137.5 53.5 c 128,-1,37
 143 48 143 48 147 48 c 2,38,-1
 206 43 l 1,39,-1
 206 0 l 1,40,-1
 5 0 l 1,41,-1
 5 43 l 1,42,-1
 63 55 l 1,43,-1
 296 687 l 1,44,-1
 371 687 l 1,45,-1
 603 70 l 2,46,47
 607 60 607 60 610 56.5 c 128,-1,48
 613 53 613 53 624 51 c 2,49,-1
 669 43 l 1,50,-1
 669 0 l 1,22,-1
412 296 m 1,51,-1
 314 558 l 1,52,-1
 217 296 l 1,53,-1
 412 296 l 1,51,-1
EndSplineSet
EndChar

StartChar: Adieresis
Encoding: 196 196 159
Width: 673
Flags: W
LayerCount: 2
Fore
SplineSet
485 831 m 256,0,1
 485 809 485 809 469 792 c 128,-1,2
 453 775 453 775 430 775 c 256,3,4
 408 775 408 775 391.5 792 c 128,-1,5
 375 809 375 809 375 831 c 0,6,7
 375 852 375 852 392 869 c 128,-1,8
 409 886 409 886 430 886 c 0,9,10
 452 886 452 886 468.5 869.5 c 128,-1,11
 485 853 485 853 485 831 c 256,0,1
278 831 m 256,12,13
 278 809 278 809 262 792 c 128,-1,14
 246 775 246 775 223 775 c 0,15,16
 201 775 201 775 184.5 791.5 c 128,-1,17
 168 808 168 808 168 830 c 0,18,19
 168 851 168 851 184.5 868.5 c 128,-1,20
 201 886 201 886 223 886 c 0,21,22
 245 886 245 886 261.5 869.5 c 128,-1,23
 278 853 278 853 278 831 c 256,12,13
669 0 m 1,24,-1
 431 0 l 1,25,-1
 431 43 l 1,26,-1
 489 48 l 2,27,28
 493 48 493 48 496.5 53 c 128,-1,29
 500 58 500 58 500 62 c 0,30,31
 500 64 500 64 499 65 c 2,32,-1
 430 248 l 1,33,-1
 199 248 l 1,34,-1
 133 68 l 2,35,36
 133 67 133 67 132 65 c 0,37,38
 132 59 132 59 137.5 53.5 c 128,-1,39
 143 48 143 48 147 48 c 2,40,-1
 206 43 l 1,41,-1
 206 0 l 1,42,-1
 5 0 l 1,43,-1
 5 43 l 1,44,-1
 63 55 l 1,45,-1
 296 687 l 1,46,-1
 371 687 l 1,47,-1
 603 70 l 2,48,49
 607 60 607 60 610 56.5 c 128,-1,50
 613 53 613 53 624 51 c 2,51,-1
 669 43 l 1,52,-1
 669 0 l 1,24,-1
412 296 m 1,53,-1
 314 558 l 1,54,-1
 217 296 l 1,55,-1
 412 296 l 1,53,-1
EndSplineSet
EndChar

StartChar: Aring
Encoding: 197 197 160
Width: 673
Flags: W
LayerCount: 2
Fore
SplineSet
452 869 m 256,0,1
 452 834 452 834 435 806 c 128,-1,2
 418 778 418 778 390 761 c 128,-1,3
 362 744 362 744 327 744 c 256,4,5
 292 744 292 744 264 761 c 128,-1,6
 236 778 236 778 219.5 806 c 128,-1,7
 203 834 203 834 203 869 c 256,8,9
 203 904 203 904 219.5 932 c 128,-1,10
 236 960 236 960 264 976.5 c 128,-1,11
 292 993 292 993 327 993 c 256,12,13
 362 993 362 993 390 976.5 c 128,-1,14
 418 960 418 960 435 932 c 128,-1,15
 452 904 452 904 452 869 c 256,0,1
669 0 m 1,16,-1
 431 0 l 1,17,-1
 431 43 l 1,18,-1
 489 48 l 2,19,20
 493 48 493 48 496.5 53 c 128,-1,21
 500 58 500 58 500 62 c 0,22,23
 500 64 500 64 499 65 c 2,24,-1
 430 248 l 1,25,-1
 199 248 l 1,26,-1
 133 68 l 2,27,28
 133 67 133 67 132 65 c 0,29,30
 132 59 132 59 137.5 53.5 c 128,-1,31
 143 48 143 48 147 48 c 2,32,-1
 206 43 l 1,33,-1
 206 0 l 1,34,-1
 5 0 l 1,35,-1
 5 43 l 1,36,-1
 63 55 l 1,37,-1
 296 687 l 1,38,-1
 371 687 l 1,39,-1
 603 70 l 2,40,41
 607 60 607 60 610 56.5 c 128,-1,42
 613 53 613 53 624 51 c 2,43,-1
 669 43 l 1,44,-1
 669 0 l 1,16,-1
392 869 m 256,45,46
 392 896 392 896 373 915 c 128,-1,47
 354 934 354 934 327 934 c 256,48,49
 300 934 300 934 281 915 c 128,-1,50
 262 896 262 896 262 869 c 256,51,52
 262 842 262 842 281 823 c 128,-1,53
 300 804 300 804 327 804 c 256,54,55
 354 804 354 804 373 823 c 128,-1,56
 392 842 392 842 392 869 c 256,45,46
412 296 m 1,57,-1
 314 558 l 1,58,-1
 217 296 l 1,59,-1
 412 296 l 1,57,-1
EndSplineSet
EndChar

StartChar: AE
Encoding: 198 198 161
Width: 933
Flags: W
LayerCount: 2
Fore
SplineSet
901 0 m 1,0,-1
 406 0 l 1,1,-1
 406 43 l 1,2,-1
 455 47 l 2,3,4
 466 48 466 48 473.5 55 c 128,-1,5
 481 62 481 62 481 69 c 2,6,-1
 481 250 l 1,7,-1
 250 250 l 1,8,-1
 138 69 l 2,9,10
 135 64 135 64 135 59 c 0,11,12
 135 49 135 49 145 48 c 2,13,-1
 202 43 l 1,14,-1
 202 0 l 1,15,-1
 5 0 l 1,16,-1
 5 43 l 1,17,-1
 58 51 l 1,18,-1
 398 603 l 2,19,20
 399 606 399 606 399 609 c 0,21,22
 399 615 399 615 394 619.5 c 128,-1,23
 389 624 389 624 384 624 c 2,24,-1
 335 629 l 1,25,-1
 335 671 l 1,26,-1
 865 671 l 1,27,-1
 865 522 l 1,28,-1
 807 522 l 1,29,-1
 793 604 l 2,30,31
 792 611 792 611 787.5 617 c 128,-1,32
 783 623 783 623 776 623 c 2,33,-1
 582 623 l 1,34,-1
 582 373 l 1,35,-1
 708 373 l 2,36,37
 715 373 715 373 720.5 379.5 c 128,-1,38
 726 386 726 386 726 391 c 2,39,-1
 735 460 l 1,40,-1
 784 460 l 1,41,-1
 784 237 l 1,42,-1
 735 237 l 1,43,-1
 726 307 l 2,44,45
 726 312 726 312 720 318 c 128,-1,46
 714 324 714 324 708 324 c 2,47,-1
 582 324 l 1,48,-1
 582 49 l 1,49,-1
 811 49 l 2,50,51
 817 49 817 49 823 56 c 128,-1,52
 829 63 829 63 829 68 c 2,53,-1
 844 167 l 1,54,-1
 901 167 l 1,55,-1
 901 0 l 1,0,-1
481 299 m 1,56,-1
 481 625 l 1,57,-1
 278 299 l 1,58,-1
 481 299 l 1,56,-1
EndSplineSet
EndChar

StartChar: Ccedilla
Encoding: 199 199 162
Width: 626
Flags: W
LayerCount: 2
Fore
SplineSet
588 185 m 1,0,-1
 588 23 l 1,1,2
 586 22 586 22 558.5 12.5 c 128,-1,3
 531 3 531 3 488.5 -6.5 c 128,-1,4
 446 -16 446 -16 396 -16 c 1,5,-1
 396 -63 l 1,6,7
 401 -62 401 -62 406 -60.5 c 128,-1,8
 411 -59 411 -59 419 -59 c 0,9,10
 449 -59 449 -59 470.5 -75.5 c 128,-1,11
 492 -92 492 -92 492 -130 c 0,12,13
 492 -176 492 -176 458.5 -200.5 c 128,-1,14
 425 -225 425 -225 375 -225 c 0,15,16
 349 -225 349 -225 325 -220 c 0,17,-1
 301 -215 l 1,18,-1
 301 -176 l 1,19,20
 322 -180 l 0,21,22
 343 -184 343 -184 362 -184 c 0,23,24
 386 -184 386 -184 406 -175 c 128,-1,25
 426 -166 426 -166 426 -143 c 0,26,27
 426 -125 426 -125 412 -115.5 c 128,-1,28
 398 -106 398 -106 379 -106 c 0,29,30
 372 -106 372 -106 364 -109 c 0,31,-1
 356 -112 l 1,32,-1
 356 -15 l 1,33,34
 279 -9 279 -9 220 21.5 c 128,-1,35
 161 52 161 52 121 101 c 128,-1,36
 81 150 81 150 60 210.5 c 128,-1,37
 39 271 39 271 39 337 c 0,38,39
 39 441 39 441 83 519.5 c 128,-1,40
 127 598 127 598 206 642.5 c 128,-1,41
 285 687 285 687 389 687 c 0,42,43
 438 687 438 687 482.5 677 c 128,-1,44
 527 667 527 667 588 648 c 1,45,-1
 588 491 l 1,46,-1
 528 491 l 1,47,-1
 513 582 l 2,48,49
 513 589 513 589 506.5 596 c 128,-1,50
 500 603 500 603 496 605 c 2,51,-1
 492 607 l 2,52,53
 479 613 479 613 454 622 c 128,-1,54
 429 631 429 631 394 631 c 0,55,56
 326 631 326 631 271.5 598 c 128,-1,57
 217 565 217 565 185.5 500.5 c 128,-1,58
 154 436 154 436 154 340 c 0,59,60
 154 247 154 247 184.5 179.5 c 128,-1,61
 215 112 215 112 271.5 75.5 c 128,-1,62
 328 39 328 39 407 39 c 0,63,64
 442 39 442 39 464 47.5 c 128,-1,65
 486 56 486 56 488 56 c 0,66,67
 504 62 504 62 507 76 c 2,68,-1
 530 185 l 1,69,-1
 588 185 l 1,0,-1
EndSplineSet
EndChar

StartChar: Egrave
Encoding: 200 200 163
Width: 583
Flags: W
LayerCount: 2
Fore
SplineSet
367 744 m 1,0,-1
 310 744 l 1,1,-1
 158 841 l 2,2,3
 135 856 135 856 135 882 c 0,4,5
 135 897 135 897 145 911.5 c 128,-1,6
 155 926 155 926 181 926 c 0,7,8
 201 926 201 926 211.5 919 c 128,-1,9
 222 912 222 912 233 899 c 2,10,-1
 367 744 l 1,0,-1
551 0 m 1,11,-1
 32 0 l 1,12,-1
 32 43 l 1,13,-1
 84 47 l 2,14,15
 95 48 95 48 100.5 55 c 128,-1,16
 106 62 106 62 106 69 c 2,17,-1
 106 602 l 2,18,19
 106 609 106 609 100.5 616.5 c 128,-1,20
 95 624 95 624 84 624 c 2,21,-1
 32 628 l 1,22,-1
 32 671 l 1,23,-1
 518 671 l 1,24,-1
 518 522 l 1,25,-1
 458 522 l 1,26,-1
 443 604 l 2,27,28
 443 611 443 611 437.5 617 c 128,-1,29
 432 623 432 623 425 623 c 2,30,-1
 208 623 l 1,31,-1
 208 374 l 1,32,-1
 358 374 l 2,33,34
 365 374 365 374 370.5 380 c 128,-1,35
 376 386 376 386 376 391 c 2,36,-1
 386 460 l 1,37,-1
 437 460 l 1,38,-1
 437 237 l 1,39,-1
 386 237 l 1,40,-1
 376 306 l 2,41,42
 376 311 376 311 370 317.5 c 128,-1,43
 364 324 364 324 358 324 c 2,44,-1
 208 324 l 1,45,-1
 208 49 l 1,46,-1
 461 49 l 2,47,48
 467 49 467 49 473 56 c 128,-1,49
 479 63 479 63 479 68 c 2,50,-1
 497 167 l 1,51,-1
 551 167 l 1,52,-1
 551 0 l 1,11,-1
EndSplineSet
EndChar

StartChar: Eacute
Encoding: 201 201 164
Width: 583
Flags: W
LayerCount: 2
Fore
SplineSet
551 0 m 1,0,-1
 32 0 l 1,1,-1
 32 43 l 1,2,-1
 84 47 l 2,3,4
 95 48 95 48 100.5 55 c 128,-1,5
 106 62 106 62 106 69 c 2,6,-1
 106 602 l 2,7,8
 106 609 106 609 100.5 616.5 c 128,-1,9
 95 624 95 624 84 624 c 2,10,-1
 32 628 l 1,11,-1
 32 671 l 1,12,-1
 518 671 l 1,13,-1
 518 522 l 1,14,-1
 458 522 l 1,15,-1
 443 604 l 2,16,17
 443 611 443 611 437.5 617 c 128,-1,18
 432 623 432 623 425 623 c 2,19,-1
 208 623 l 1,20,-1
 208 374 l 1,21,-1
 358 374 l 2,22,23
 365 374 365 374 370.5 380 c 128,-1,24
 376 386 376 386 376 391 c 2,25,-1
 386 460 l 1,26,-1
 437 460 l 1,27,-1
 437 237 l 1,28,-1
 386 237 l 1,29,-1
 376 306 l 2,30,31
 376 311 376 311 370 317.5 c 128,-1,32
 364 324 364 324 358 324 c 2,33,-1
 208 324 l 1,34,-1
 208 49 l 1,35,-1
 461 49 l 2,36,37
 467 49 467 49 473 56 c 128,-1,38
 479 63 479 63 479 68 c 2,39,-1
 497 167 l 1,40,-1
 551 167 l 1,41,-1
 551 0 l 1,0,-1
469 882 m 0,42,43
 469 856 469 856 446 841 c 2,44,-1
 294 744 l 1,45,-1
 237 744 l 1,46,-1
 371 899 l 2,47,48
 382 912 382 912 392.5 919 c 128,-1,49
 403 926 403 926 423 926 c 0,50,51
 449 926 449 926 459 911.5 c 128,-1,52
 469 897 469 897 469 882 c 0,42,43
EndSplineSet
EndChar

StartChar: Ecircumflex
Encoding: 202 202 165
Width: 583
Flags: W
LayerCount: 2
Fore
SplineSet
462 744 m 1,0,-1
 402 744 l 1,1,-1
 299 844 l 1,2,-1
 196 744 l 1,3,-1
 137 744 l 1,4,-1
 263 914 l 1,5,-1
 337 914 l 1,6,-1
 462 744 l 1,0,-1
551 0 m 1,7,-1
 32 0 l 1,8,-1
 32 43 l 1,9,-1
 84 47 l 2,10,11
 95 48 95 48 100.5 55 c 128,-1,12
 106 62 106 62 106 69 c 2,13,-1
 106 602 l 2,14,15
 106 609 106 609 100.5 616.5 c 128,-1,16
 95 624 95 624 84 624 c 2,17,-1
 32 628 l 1,18,-1
 32 671 l 1,19,-1
 518 671 l 1,20,-1
 518 522 l 1,21,-1
 458 522 l 1,22,-1
 443 604 l 2,23,24
 443 611 443 611 437.5 617 c 128,-1,25
 432 623 432 623 425 623 c 2,26,-1
 208 623 l 1,27,-1
 208 374 l 1,28,-1
 358 374 l 2,29,30
 365 374 365 374 370.5 380 c 128,-1,31
 376 386 376 386 376 391 c 2,32,-1
 386 460 l 1,33,-1
 437 460 l 1,34,-1
 437 237 l 1,35,-1
 386 237 l 1,36,-1
 376 306 l 2,37,38
 376 311 376 311 370 317.5 c 128,-1,39
 364 324 364 324 358 324 c 2,40,-1
 208 324 l 1,41,-1
 208 49 l 1,42,-1
 461 49 l 2,43,44
 467 49 467 49 473 56 c 128,-1,45
 479 63 479 63 479 68 c 2,46,-1
 497 167 l 1,47,-1
 551 167 l 1,48,-1
 551 0 l 1,7,-1
EndSplineSet
EndChar

StartChar: Edieresis
Encoding: 203 203 166
Width: 583
Flags: W
LayerCount: 2
Fore
SplineSet
464 831 m 256,0,1
 464 809 464 809 449 792 c 128,-1,2
 434 775 434 775 411 775 c 256,3,4
 389 775 389 775 372 792 c 128,-1,5
 355 809 355 809 355 831 c 0,6,7
 355 852 355 852 372.5 869 c 128,-1,8
 390 886 390 886 411 886 c 0,9,10
 433 886 433 886 448.5 869.5 c 128,-1,11
 464 853 464 853 464 831 c 256,0,1
257 831 m 256,12,13
 257 809 257 809 241.5 792 c 128,-1,14
 226 775 226 775 203 775 c 0,15,16
 181 775 181 775 164.5 791.5 c 128,-1,17
 148 808 148 808 148 830 c 0,18,19
 148 851 148 851 164.5 868.5 c 128,-1,20
 181 886 181 886 203 886 c 0,21,22
 225 886 225 886 241 869.5 c 128,-1,23
 257 853 257 853 257 831 c 256,12,13
551 0 m 1,24,-1
 32 0 l 1,25,-1
 32 43 l 1,26,-1
 84 47 l 2,27,28
 95 48 95 48 100.5 55 c 128,-1,29
 106 62 106 62 106 69 c 2,30,-1
 106 602 l 2,31,32
 106 609 106 609 100.5 616.5 c 128,-1,33
 95 624 95 624 84 624 c 2,34,-1
 32 628 l 1,35,-1
 32 671 l 1,36,-1
 518 671 l 1,37,-1
 518 522 l 1,38,-1
 458 522 l 1,39,-1
 443 604 l 2,40,41
 443 611 443 611 437.5 617 c 128,-1,42
 432 623 432 623 425 623 c 2,43,-1
 208 623 l 1,44,-1
 208 374 l 1,45,-1
 358 374 l 2,46,47
 365 374 365 374 370.5 380 c 128,-1,48
 376 386 376 386 376 391 c 2,49,-1
 386 460 l 1,50,-1
 437 460 l 1,51,-1
 437 237 l 1,52,-1
 386 237 l 1,53,-1
 376 306 l 2,54,55
 376 311 376 311 370 317.5 c 128,-1,56
 364 324 364 324 358 324 c 2,57,-1
 208 324 l 1,58,-1
 208 49 l 1,59,-1
 461 49 l 2,60,61
 467 49 467 49 473 56 c 128,-1,62
 479 63 479 63 479 68 c 2,63,-1
 497 167 l 1,64,-1
 551 167 l 1,65,-1
 551 0 l 1,24,-1
EndSplineSet
EndChar

StartChar: Igrave
Encoding: 204 204 167
Width: 330
Flags: W
LayerCount: 2
Fore
SplineSet
231 744 m 1,0,-1
 174 744 l 1,1,-1
 22 841 l 2,2,3
 -1 856 -1 856 -1 882 c 0,4,5
 -1 897 -1 897 9 911.5 c 128,-1,6
 19 926 19 926 45 926 c 0,7,8
 65 926 65 926 75.5 919 c 128,-1,9
 86 912 86 912 97 899 c 2,10,-1
 231 744 l 1,0,-1
297 0 m 1,11,-1
 33 0 l 1,12,-1
 33 43 l 1,13,-1
 93 47 l 2,14,15
 104 48 104 48 109 55 c 128,-1,16
 114 62 114 62 114 69 c 2,17,-1
 114 602 l 2,18,19
 114 609 114 609 109 616 c 128,-1,20
 104 623 104 623 93 623 c 2,21,-1
 33 627 l 1,22,-1
 33 671 l 1,23,-1
 297 671 l 1,24,-1
 297 627 l 1,25,-1
 236 623 l 2,26,27
 226 623 226 623 220.5 616 c 128,-1,28
 215 609 215 609 215 602 c 2,29,-1
 215 69 l 2,30,31
 215 62 215 62 220.5 55 c 128,-1,32
 226 48 226 48 236 47 c 2,33,-1
 297 43 l 1,34,-1
 297 0 l 1,11,-1
EndSplineSet
EndChar

StartChar: Iacute
Encoding: 205 205 168
Width: 330
Flags: W
LayerCount: 2
Fore
SplineSet
323 882 m 0,0,1
 323 856 323 856 300 841 c 2,2,-1
 148 744 l 1,3,-1
 91 744 l 1,4,-1
 225 899 l 2,5,6
 236 912 236 912 246.5 919 c 128,-1,7
 257 926 257 926 277 926 c 0,8,9
 303 926 303 926 313 911.5 c 128,-1,10
 323 897 323 897 323 882 c 0,0,1
297 0 m 1,11,-1
 33 0 l 1,12,-1
 33 43 l 1,13,-1
 93 47 l 2,14,15
 104 48 104 48 109 55 c 128,-1,16
 114 62 114 62 114 69 c 2,17,-1
 114 602 l 2,18,19
 114 609 114 609 109 616 c 128,-1,20
 104 623 104 623 93 623 c 2,21,-1
 33 627 l 1,22,-1
 33 671 l 1,23,-1
 297 671 l 1,24,-1
 297 627 l 1,25,-1
 236 623 l 2,26,27
 226 623 226 623 220.5 616 c 128,-1,28
 215 609 215 609 215 602 c 2,29,-1
 215 69 l 2,30,31
 215 62 215 62 220.5 55 c 128,-1,32
 226 48 226 48 236 47 c 2,33,-1
 297 43 l 1,34,-1
 297 0 l 1,11,-1
EndSplineSet
EndChar

StartChar: Icircumflex
Encoding: 206 206 169
Width: 330
Flags: W
LayerCount: 2
Fore
SplineSet
329 744 m 1,0,-1
 269 744 l 1,1,-1
 166 844 l 1,2,-1
 63 744 l 1,3,-1
 1 744 l 1,4,-1
 127 914 l 1,5,-1
 204 914 l 1,6,-1
 329 744 l 1,0,-1
297 0 m 1,7,-1
 33 0 l 1,8,-1
 33 43 l 1,9,-1
 93 47 l 2,10,11
 104 48 104 48 109 55 c 128,-1,12
 114 62 114 62 114 69 c 2,13,-1
 114 602 l 2,14,15
 114 609 114 609 109 616 c 128,-1,16
 104 623 104 623 93 623 c 2,17,-1
 33 627 l 1,18,-1
 33 671 l 1,19,-1
 297 671 l 1,20,-1
 297 627 l 1,21,-1
 236 623 l 2,22,23
 226 623 226 623 220.5 616 c 128,-1,24
 215 609 215 609 215 602 c 2,25,-1
 215 69 l 2,26,27
 215 62 215 62 220.5 55 c 128,-1,28
 226 48 226 48 236 47 c 2,29,-1
 297 43 l 1,30,-1
 297 0 l 1,7,-1
EndSplineSet
EndChar

StartChar: Idieresis
Encoding: 207 207 170
Width: 330
Flags: W
LayerCount: 2
Fore
SplineSet
323 831 m 256,0,1
 323 809 323 809 307.5 792 c 128,-1,2
 292 775 292 775 269 775 c 256,3,4
 247 775 247 775 230.5 792 c 128,-1,5
 214 809 214 809 214 831 c 0,6,7
 214 852 214 852 230.5 869 c 128,-1,8
 247 886 247 886 268 886 c 0,9,10
 290 886 290 886 306.5 869.5 c 128,-1,11
 323 853 323 853 323 831 c 256,0,1
116 831 m 256,12,13
 116 809 116 809 99.5 792 c 128,-1,14
 83 775 83 775 61 775 c 0,15,16
 40 775 40 775 23.5 791.5 c 128,-1,17
 7 808 7 808 7 830 c 0,18,19
 7 851 7 851 23.5 868.5 c 128,-1,20
 40 886 40 886 61 886 c 0,21,22
 83 886 83 886 99.5 869.5 c 128,-1,23
 116 853 116 853 116 831 c 256,12,13
297 0 m 1,24,-1
 33 0 l 1,25,-1
 33 43 l 1,26,-1
 93 47 l 2,27,28
 104 48 104 48 109 55 c 128,-1,29
 114 62 114 62 114 69 c 2,30,-1
 114 602 l 2,31,32
 114 609 114 609 109 616 c 128,-1,33
 104 623 104 623 93 623 c 2,34,-1
 33 627 l 1,35,-1
 33 671 l 1,36,-1
 297 671 l 1,37,-1
 297 627 l 1,38,-1
 236 623 l 2,39,40
 226 623 226 623 220.5 616 c 128,-1,41
 215 609 215 609 215 602 c 2,42,-1
 215 69 l 2,43,44
 215 62 215 62 220.5 55 c 128,-1,45
 226 48 226 48 236 47 c 2,46,-1
 297 43 l 1,47,-1
 297 0 l 1,24,-1
EndSplineSet
EndChar

StartChar: Eth
Encoding: 208 208 171
Width: 695
Flags: W
LayerCount: 2
Fore
SplineSet
657 335 m 0,0,1
 657 240 657 240 618.5 164 c 128,-1,2
 580 88 580 88 503 44 c 128,-1,3
 426 0 426 0 311 0 c 2,4,-1
 32 0 l 1,5,-1
 32 43 l 1,6,-1
 85 47 l 2,7,8
 95 48 95 48 100.5 55 c 128,-1,9
 106 62 106 62 106 69 c 2,10,-1
 106 326 l 1,11,-1
 15 326 l 1,12,-1
 15 377 l 1,13,-1
 106 377 l 1,14,-1
 106 602 l 2,15,16
 106 609 106 609 99.5 616 c 128,-1,17
 93 623 93 623 85 623 c 2,18,-1
 32 628 l 1,19,-1
 32 671 l 1,20,-1
 289 671 l 2,21,22
 366 671 366 671 432.5 652 c 128,-1,23
 499 633 499 633 549.5 593 c 128,-1,24
 600 553 600 553 628.5 489 c 128,-1,25
 657 425 657 425 657 335 c 0,0,1
544 335 m 0,26,27
 544 487 544 487 476 555 c 128,-1,28
 408 623 408 623 284 623 c 2,29,-1
 207 623 l 1,30,-1
 207 377 l 1,31,-1
 367 377 l 1,32,-1
 367 326 l 1,33,-1
 207 326 l 1,34,-1
 207 48 l 1,35,-1
 285 48 l 2,36,37
 410 48 410 48 477 118.5 c 128,-1,38
 544 189 544 189 544 335 c 0,26,27
EndSplineSet
EndChar

StartChar: Ntilde
Encoding: 209 209 172
Width: 721
Flags: W
LayerCount: 2
Fore
SplineSet
544 885 m 1,0,1
 533 841 533 841 505.5 808 c 128,-1,2
 478 775 478 775 429 775 c 0,3,4
 403 775 403 775 383.5 787 c 128,-1,5
 364 799 364 799 343.5 811 c 128,-1,6
 323 823 323 823 290 823 c 0,7,8
 270 823 270 823 255 808 c 128,-1,9
 240 793 240 793 238 775 c 1,10,-1
 198 775 l 1,11,12
 209 819 209 819 236.5 852 c 128,-1,13
 264 885 264 885 313 885 c 0,14,15
 340 885 340 885 359 873 c 128,-1,16
 378 861 378 861 399 849 c 128,-1,17
 420 837 420 837 452 837 c 0,18,19
 472 837 472 837 487 852 c 128,-1,20
 502 867 502 867 504 885 c 1,21,-1
 544 885 l 1,0,1
692 628 m 1,22,-1
 636 624 l 2,23,24
 625 624 625 624 620 616.5 c 128,-1,25
 615 609 615 609 615 602 c 2,26,-1
 615 0 l 1,27,-1
 537 0 l 1,28,-1
 165 560 l 1,29,-1
 165 69 l 2,30,31
 165 62 165 62 170 55 c 128,-1,32
 175 48 175 48 186 47 c 2,33,-1
 243 43 l 1,34,-1
 243 0 l 1,35,-1
 27 0 l 1,36,-1
 27 43 l 1,37,-1
 84 47 l 2,38,39
 95 48 95 48 100.5 55 c 128,-1,40
 106 62 106 62 106 69 c 2,41,-1
 106 602 l 2,42,43
 106 609 106 609 100.5 616.5 c 128,-1,44
 95 624 95 624 84 624 c 2,45,-1
 25 628 l 1,46,-1
 25 671 l 1,47,-1
 223 671 l 1,48,-1
 223 646 l 1,49,-1
 556 143 l 1,50,-1
 556 602 l 2,51,52
 556 609 556 609 550.5 616.5 c 128,-1,53
 545 624 545 624 535 624 c 2,54,-1
 478 628 l 1,55,-1
 478 671 l 1,56,-1
 692 671 l 1,57,-1
 692 628 l 1,22,-1
EndSplineSet
EndChar

StartChar: Ograve
Encoding: 210 210 173
Width: 730
Flags: W
LayerCount: 2
Fore
SplineSet
418 744 m 1,0,-1
 361 744 l 1,1,-1
 209 841 l 2,2,3
 186 856 186 856 186 882 c 0,4,5
 186 897 186 897 196 911.5 c 128,-1,6
 206 926 206 926 232 926 c 0,7,8
 252 926 252 926 262.5 919 c 128,-1,9
 273 912 273 912 284 899 c 2,10,-1
 418 744 l 1,0,-1
692 335 m 256,11,12
 692 262 692 262 669 198.5 c 128,-1,13
 646 135 646 135 603 87 c 128,-1,14
 560 39 560 39 499.5 11.5 c 128,-1,15
 439 -16 439 -16 366 -16 c 0,16,17
 268 -16 268 -16 194.5 30 c 128,-1,18
 121 76 121 76 80 155.5 c 128,-1,19
 39 235 39 235 39 336 c 0,20,21
 39 409 39 409 61.5 472.5 c 128,-1,22
 84 536 84 536 127 584.5 c 128,-1,23
 170 633 170 633 230.5 660 c 128,-1,24
 291 687 291 687 365 687 c 0,25,26
 439 687 439 687 499.5 659.5 c 128,-1,27
 560 632 560 632 603 583.5 c 128,-1,28
 646 535 646 535 669 471.5 c 128,-1,29
 692 408 692 408 692 335 c 256,11,12
576 334 m 0,30,31
 576 416 576 416 552.5 483 c 128,-1,32
 529 550 529 550 482.5 590 c 128,-1,33
 436 630 436 630 366 630 c 0,34,35
 294 630 294 630 247 589.5 c 128,-1,36
 200 549 200 549 177 482.5 c 128,-1,37
 154 416 154 416 154 336 c 0,38,39
 154 256 154 256 177 188.5 c 128,-1,40
 200 121 200 121 246.5 80 c 128,-1,41
 293 39 293 39 364 39 c 0,42,43
 436 39 436 39 483 80 c 128,-1,44
 530 121 530 121 553 188 c 128,-1,45
 576 255 576 255 576 334 c 0,30,31
EndSplineSet
EndChar

StartChar: Oacute
Encoding: 211 211 174
Width: 730
Flags: W
LayerCount: 2
Fore
SplineSet
540 882 m 0,0,1
 540 855 540 855 517 841 c 2,2,-1
 365 744 l 1,3,-1
 308 744 l 1,4,-1
 442 899 l 2,5,6
 453 912 453 912 463.5 919 c 128,-1,7
 474 926 474 926 494 926 c 0,8,9
 520 926 520 926 530 911.5 c 128,-1,10
 540 897 540 897 540 882 c 0,0,1
692 335 m 256,11,12
 692 262 692 262 669 198.5 c 128,-1,13
 646 135 646 135 603 87 c 128,-1,14
 560 39 560 39 499.5 11.5 c 128,-1,15
 439 -16 439 -16 366 -16 c 0,16,17
 268 -16 268 -16 194.5 30 c 128,-1,18
 121 76 121 76 80 155.5 c 128,-1,19
 39 235 39 235 39 336 c 0,20,21
 39 409 39 409 61.5 472.5 c 128,-1,22
 84 536 84 536 127 584.5 c 128,-1,23
 170 633 170 633 230.5 660 c 128,-1,24
 291 687 291 687 365 687 c 0,25,26
 439 687 439 687 499.5 659.5 c 128,-1,27
 560 632 560 632 603 583.5 c 128,-1,28
 646 535 646 535 669 471.5 c 128,-1,29
 692 408 692 408 692 335 c 256,11,12
576 334 m 0,30,31
 576 416 576 416 552.5 483 c 128,-1,32
 529 550 529 550 482.5 590 c 128,-1,33
 436 630 436 630 366 630 c 0,34,35
 294 630 294 630 247 589.5 c 128,-1,36
 200 549 200 549 177 482.5 c 128,-1,37
 154 416 154 416 154 336 c 0,38,39
 154 256 154 256 177 188.5 c 128,-1,40
 200 121 200 121 246.5 80 c 128,-1,41
 293 39 293 39 364 39 c 0,42,43
 436 39 436 39 483 80 c 128,-1,44
 530 121 530 121 553 188 c 128,-1,45
 576 255 576 255 576 334 c 0,30,31
EndSplineSet
EndChar

StartChar: Ocircumflex
Encoding: 212 212 175
Width: 730
Flags: W
LayerCount: 2
Fore
SplineSet
528 744 m 1,0,-1
 468 744 l 1,1,-1
 365 844 l 1,2,-1
 262 744 l 1,3,-1
 202 744 l 1,4,-1
 327 914 l 1,5,-1
 402 914 l 1,6,-1
 528 744 l 1,0,-1
692 335 m 256,7,8
 692 262 692 262 669 198.5 c 128,-1,9
 646 135 646 135 603 87 c 128,-1,10
 560 39 560 39 499.5 11.5 c 128,-1,11
 439 -16 439 -16 366 -16 c 0,12,13
 268 -16 268 -16 194.5 30 c 128,-1,14
 121 76 121 76 80 155.5 c 128,-1,15
 39 235 39 235 39 336 c 0,16,17
 39 409 39 409 61.5 472.5 c 128,-1,18
 84 536 84 536 127 584.5 c 128,-1,19
 170 633 170 633 230.5 660 c 128,-1,20
 291 687 291 687 365 687 c 0,21,22
 439 687 439 687 499.5 659.5 c 128,-1,23
 560 632 560 632 603 583.5 c 128,-1,24
 646 535 646 535 669 471.5 c 128,-1,25
 692 408 692 408 692 335 c 256,7,8
576 334 m 0,26,27
 576 416 576 416 552.5 483 c 128,-1,28
 529 550 529 550 482.5 590 c 128,-1,29
 436 630 436 630 366 630 c 0,30,31
 294 630 294 630 247 589.5 c 128,-1,32
 200 549 200 549 177 482.5 c 128,-1,33
 154 416 154 416 154 336 c 0,34,35
 154 256 154 256 177 188.5 c 128,-1,36
 200 121 200 121 246.5 80 c 128,-1,37
 293 39 293 39 364 39 c 0,38,39
 436 39 436 39 483 80 c 128,-1,40
 530 121 530 121 553 188 c 128,-1,41
 576 255 576 255 576 334 c 0,26,27
EndSplineSet
EndChar

StartChar: Otilde
Encoding: 213 213 176
Width: 730
Flags: W
LayerCount: 2
Fore
SplineSet
537 885 m 1,0,1
 526 841 526 841 498 808 c 128,-1,2
 470 775 470 775 421 775 c 0,3,4
 395 775 395 775 375.5 787 c 128,-1,5
 356 799 356 799 335.5 811 c 128,-1,6
 315 823 315 823 282 823 c 0,7,8
 261 823 261 823 246.5 808 c 128,-1,9
 232 793 232 793 230 775 c 1,10,-1
 190 775 l 1,11,12
 201 819 201 819 229 852 c 128,-1,13
 257 885 257 885 306 885 c 0,14,15
 332 885 332 885 351 873 c 128,-1,16
 370 861 370 861 391 849 c 128,-1,17
 412 837 412 837 444 837 c 0,18,19
 465 837 465 837 480 852 c 128,-1,20
 495 867 495 867 497 885 c 1,21,-1
 537 885 l 1,0,1
692 335 m 256,22,23
 692 262 692 262 669 198.5 c 128,-1,24
 646 135 646 135 603 87 c 128,-1,25
 560 39 560 39 499.5 11.5 c 128,-1,26
 439 -16 439 -16 366 -16 c 0,27,28
 268 -16 268 -16 194.5 30 c 128,-1,29
 121 76 121 76 80 155.5 c 128,-1,30
 39 235 39 235 39 336 c 0,31,32
 39 409 39 409 61.5 472.5 c 128,-1,33
 84 536 84 536 127 584.5 c 128,-1,34
 170 633 170 633 230.5 660 c 128,-1,35
 291 687 291 687 365 687 c 0,36,37
 439 687 439 687 499.5 659.5 c 128,-1,38
 560 632 560 632 603 583.5 c 128,-1,39
 646 535 646 535 669 471.5 c 128,-1,40
 692 408 692 408 692 335 c 256,22,23
576 334 m 0,41,42
 576 416 576 416 552.5 483 c 128,-1,43
 529 550 529 550 482.5 590 c 128,-1,44
 436 630 436 630 366 630 c 0,45,46
 294 630 294 630 247 589.5 c 128,-1,47
 200 549 200 549 177 482.5 c 128,-1,48
 154 416 154 416 154 336 c 0,49,50
 154 256 154 256 177 188.5 c 128,-1,51
 200 121 200 121 246.5 80 c 128,-1,52
 293 39 293 39 364 39 c 0,53,54
 436 39 436 39 483 80 c 128,-1,55
 530 121 530 121 553 188 c 128,-1,56
 576 255 576 255 576 334 c 0,41,42
EndSplineSet
EndChar

StartChar: Odieresis
Encoding: 214 214 177
Width: 731
Flags: W
LayerCount: 2
Fore
SplineSet
522 831 m 256,0,1
 522 809 522 809 506.5 792 c 128,-1,2
 491 775 491 775 468 775 c 0,3,4
 446 775 446 775 429.5 792 c 128,-1,5
 413 809 413 809 413 831 c 0,6,7
 413 852 413 852 429.5 869 c 128,-1,8
 446 886 446 886 467 886 c 0,9,10
 490 886 490 886 506 869.5 c 128,-1,11
 522 853 522 853 522 831 c 256,0,1
315 831 m 256,12,13
 315 809 315 809 299 792 c 128,-1,14
 283 775 283 775 260 775 c 0,15,16
 239 775 239 775 222.5 791.5 c 128,-1,17
 206 808 206 808 206 830 c 0,18,19
 206 851 206 851 222 868.5 c 128,-1,20
 238 886 238 886 260 886 c 0,21,22
 283 886 283 886 299 869.5 c 128,-1,23
 315 853 315 853 315 831 c 256,12,13
692 335 m 256,24,25
 692 262 692 262 669 198.5 c 128,-1,26
 646 135 646 135 603 87 c 128,-1,27
 560 39 560 39 499.5 11.5 c 128,-1,28
 439 -16 439 -16 366 -16 c 0,29,30
 268 -16 268 -16 194.5 30 c 128,-1,31
 121 76 121 76 80 155.5 c 128,-1,32
 39 235 39 235 39 336 c 0,33,34
 39 409 39 409 61.5 472.5 c 128,-1,35
 84 536 84 536 127 584.5 c 128,-1,36
 170 633 170 633 230.5 660 c 128,-1,37
 291 687 291 687 365 687 c 0,38,39
 439 687 439 687 499.5 659.5 c 128,-1,40
 560 632 560 632 603 583.5 c 128,-1,41
 646 535 646 535 669 471.5 c 128,-1,42
 692 408 692 408 692 335 c 256,24,25
576 334 m 0,43,44
 576 416 576 416 552.5 483 c 128,-1,45
 529 550 529 550 482.5 590 c 128,-1,46
 436 630 436 630 366 630 c 0,47,48
 294 630 294 630 247 589.5 c 128,-1,49
 200 549 200 549 177 482.5 c 128,-1,50
 154 416 154 416 154 336 c 0,51,52
 154 256 154 256 177 188.5 c 128,-1,53
 200 121 200 121 246.5 80 c 128,-1,54
 293 39 293 39 364 39 c 0,55,56
 436 39 436 39 483 80 c 128,-1,57
 530 121 530 121 553 188 c 128,-1,58
 576 255 576 255 576 334 c 0,43,44
EndSplineSet
EndChar

StartChar: multiply
Encoding: 215 215 178
Width: 586
Flags: W
LayerCount: 2
Fore
SplineSet
519 151 m 1,0,-1
 445 77 l 1,1,-1
 297 221 l 1,2,-1
 150 76 l 1,3,-1
 75 151 l 1,4,-1
 222 296 l 1,5,-1
 76 445 l 1,6,-1
 150 519 l 1,7,-1
 296 370 l 1,8,-1
 442 518 l 1,9,-1
 517 443 l 1,10,-1
 371 295 l 1,11,-1
 519 151 l 1,0,-1
EndSplineSet
Substitution2: "'cv01' Zeichenvariante 01 in Ethiopic lookup 12 subtable" multiply.punct
EndChar

StartChar: multiply.punct
Encoding: 1114140 -1 179
Width: 1000
Flags: W
LayerCount: 2
Fore
SplineSet
770 69 m 1,0,-1
 731 30 l 1,1,-1
 500 262 l 1,2,-1
 269 30 l 1,3,-1
 230 69 l 1,4,-1
 460 300 l 1,5,-1
 230 531 l 1,6,-1
 269 570 l 1,7,-1
 500 338 l 1,8,-1
 731 570 l 1,9,-1
 770 531 l 1,10,-1
 540 300 l 1,11,-1
 770 69 l 1,0,-1
EndSplineSet
EndChar

StartChar: Oslash
Encoding: 216 216 180
Width: 730
Flags: W
LayerCount: 2
Fore
SplineSet
692 335 m 0,0,1
 692 262 692 262 669 198.5 c 128,-1,2
 646 135 646 135 603 87 c 128,-1,3
 560 39 560 39 499.5 11.5 c 128,-1,4
 439 -16 439 -16 366 -16 c 0,5,6
 276 -16 276 -16 205 24 c 1,7,8
 189 -2 189 -2 174 -27.5 c 128,-1,9
 159 -53 159 -53 143 -79 c 1,10,-1
 97 -51 l 1,11,-1
 160 55 l 1,12,13
 103 102 103 102 71 175.5 c 128,-1,14
 39 249 39 249 39 336 c 0,15,16
 39 409 39 409 61.5 472.5 c 128,-1,17
 84 536 84 536 127 584.5 c 128,-1,18
 170 633 170 633 230.5 660 c 128,-1,19
 291 687 291 687 365 687 c 0,20,21
 407 687 407 687 445 677.5 c 128,-1,22
 483 668 483 668 515 652 c 1,23,-1
 572 748 l 1,24,-1
 619 720 l 1,25,26
 606 698 606 698 591.5 673.5 c 128,-1,27
 577 649 577 649 561 623 c 1,28,29
 623 575 623 575 657.5 499.5 c 128,-1,30
 692 424 692 424 692 335 c 0,0,1
576 334 m 0,31,32
 576 398 576 398 562 454.5 c 128,-1,33
 548 511 548 511 519 551 c 1,34,35
 459 450 459 450 387.5 330 c 128,-1,36
 316 210 316 210 242 85 c 1,37,38
 266 64 266 64 296.5 51.5 c 128,-1,39
 327 39 327 39 364 39 c 0,40,41
 436 39 436 39 483 80 c 128,-1,42
 530 121 530 121 553 188 c 128,-1,43
 576 255 576 255 576 334 c 0,31,32
479 592 m 1,44,45
 433 630 433 630 366 630 c 0,46,47
 294 630 294 630 247 589.5 c 128,-1,48
 200 549 200 549 177 482.5 c 128,-1,49
 154 416 154 416 154 336 c 0,50,51
 154 277 154 277 167 223.5 c 128,-1,52
 180 170 180 170 205 130 c 1,53,-1
 479 592 l 1,44,45
EndSplineSet
EndChar

StartChar: Ugrave
Encoding: 217 217 181
Width: 711
Flags: W
LayerCount: 2
Fore
SplineSet
423 744 m 1,0,-1
 366 744 l 1,1,-1
 214 841 l 2,2,3
 204 848 204 848 197.5 858 c 128,-1,4
 191 868 191 868 191 882 c 0,5,6
 191 897 191 897 201 911.5 c 128,-1,7
 211 926 211 926 237 926 c 0,8,9
 258 926 258 926 268 919 c 128,-1,10
 278 912 278 912 289 899 c 2,11,-1
 423 744 l 1,0,-1
685 628 m 1,12,-1
 627 624 l 2,13,14
 616 624 616 624 611 616.5 c 128,-1,15
 606 609 606 609 606 602 c 2,16,-1
 606 222 l 2,17,18
 606 99 606 99 540.5 41.5 c 128,-1,19
 475 -16 475 -16 349 -16 c 0,20,21
 225 -16 225 -16 165 44 c 128,-1,22
 105 104 105 104 105 222 c 2,23,-1
 105 602 l 2,24,25
 105 609 105 609 100 616.5 c 128,-1,26
 95 624 95 624 84 624 c 2,27,-1
 31 628 l 1,28,-1
 31 671 l 1,29,-1
 285 671 l 1,30,-1
 285 628 l 1,31,-1
 228 624 l 2,32,33
 217 624 217 624 212 616.5 c 128,-1,34
 207 609 207 609 207 602 c 2,35,-1
 207 248 l 2,36,37
 207 189 207 189 220 145 c 128,-1,38
 233 101 233 101 270 76 c 128,-1,39
 307 51 307 51 376 51 c 256,40,41
 445 51 445 51 482 77 c 128,-1,42
 519 103 519 103 533 148 c 128,-1,43
 547 193 547 193 547 248 c 2,44,-1
 547 602 l 2,45,46
 547 609 547 609 541.5 616.5 c 128,-1,47
 536 624 536 624 525 624 c 2,48,-1
 468 628 l 1,49,-1
 468 671 l 1,50,-1
 685 671 l 1,51,-1
 685 628 l 1,12,-1
EndSplineSet
EndChar

StartChar: Uacute
Encoding: 218 218 182
Width: 711
Flags: W
LayerCount: 2
Fore
SplineSet
544 882 m 0,0,1
 544 856 544 856 521 841 c 2,2,-1
 369 744 l 1,3,-1
 312 744 l 1,4,-1
 445 899 l 2,5,6
 456 912 456 912 467 919 c 128,-1,7
 478 926 478 926 498 926 c 0,8,9
 524 926 524 926 534 911.5 c 128,-1,10
 544 897 544 897 544 882 c 0,0,1
685 628 m 1,11,-1
 627 624 l 2,12,13
 616 624 616 624 611 616.5 c 128,-1,14
 606 609 606 609 606 602 c 2,15,-1
 606 222 l 2,16,17
 606 99 606 99 540.5 41.5 c 128,-1,18
 475 -16 475 -16 349 -16 c 0,19,20
 225 -16 225 -16 165 44 c 128,-1,21
 105 104 105 104 105 222 c 2,22,-1
 105 602 l 2,23,24
 105 609 105 609 100 616.5 c 128,-1,25
 95 624 95 624 84 624 c 2,26,-1
 31 628 l 1,27,-1
 31 671 l 1,28,-1
 285 671 l 1,29,-1
 285 628 l 1,30,-1
 228 624 l 2,31,32
 217 624 217 624 212 616.5 c 128,-1,33
 207 609 207 609 207 602 c 2,34,-1
 207 248 l 2,35,36
 207 189 207 189 220 145 c 128,-1,37
 233 101 233 101 270 76 c 128,-1,38
 307 51 307 51 376 51 c 256,39,40
 445 51 445 51 482 77 c 128,-1,41
 519 103 519 103 533 148 c 128,-1,42
 547 193 547 193 547 248 c 2,43,-1
 547 602 l 2,44,45
 547 609 547 609 541.5 616.5 c 128,-1,46
 536 624 536 624 525 624 c 2,47,-1
 468 628 l 1,48,-1
 468 671 l 1,49,-1
 685 671 l 1,50,-1
 685 628 l 1,11,-1
EndSplineSet
EndChar

StartChar: Ucircumflex
Encoding: 219 219 183
Width: 711
Flags: W
LayerCount: 2
Fore
SplineSet
532 744 m 1,0,-1
 472 744 l 1,1,-1
 368 844 l 1,2,-1
 265 744 l 1,3,-1
 205 744 l 1,4,-1
 331 914 l 1,5,-1
 406 914 l 1,6,-1
 532 744 l 1,0,-1
685 628 m 1,7,-1
 627 624 l 2,8,9
 616 624 616 624 611 616.5 c 128,-1,10
 606 609 606 609 606 602 c 2,11,-1
 606 222 l 2,12,13
 606 99 606 99 540.5 41.5 c 128,-1,14
 475 -16 475 -16 349 -16 c 0,15,16
 225 -16 225 -16 165 44 c 128,-1,17
 105 104 105 104 105 222 c 2,18,-1
 105 602 l 2,19,20
 105 609 105 609 100 616.5 c 128,-1,21
 95 624 95 624 84 624 c 2,22,-1
 31 628 l 1,23,-1
 31 671 l 1,24,-1
 285 671 l 1,25,-1
 285 628 l 1,26,-1
 228 624 l 2,27,28
 217 624 217 624 212 616.5 c 128,-1,29
 207 609 207 609 207 602 c 2,30,-1
 207 248 l 2,31,32
 207 189 207 189 220 145 c 128,-1,33
 233 101 233 101 270 76 c 128,-1,34
 307 51 307 51 376 51 c 256,35,36
 445 51 445 51 482 77 c 128,-1,37
 519 103 519 103 533 148 c 128,-1,38
 547 193 547 193 547 248 c 2,39,-1
 547 602 l 2,40,41
 547 609 547 609 541.5 616.5 c 128,-1,42
 536 624 536 624 525 624 c 2,43,-1
 468 628 l 1,44,-1
 468 671 l 1,45,-1
 685 671 l 1,46,-1
 685 628 l 1,7,-1
EndSplineSet
EndChar

StartChar: Udieresis
Encoding: 220 220 184
Width: 711
Flags: W
LayerCount: 2
Fore
SplineSet
530 831 m 256,0,1
 530 809 530 809 514.5 792 c 128,-1,2
 499 775 499 775 476 775 c 256,3,4
 454 775 454 775 437.5 792 c 128,-1,5
 421 809 421 809 421 831 c 0,6,7
 421 852 421 852 437.5 869 c 128,-1,8
 454 886 454 886 475 886 c 0,9,10
 497 886 497 886 513.5 869.5 c 128,-1,11
 530 853 530 853 530 831 c 256,0,1
323 831 m 256,12,13
 323 809 323 809 307 792 c 128,-1,14
 291 775 291 775 268 775 c 0,15,16
 246 775 246 775 230 791.5 c 128,-1,17
 214 808 214 808 214 830 c 0,18,19
 214 851 214 851 230 868.5 c 128,-1,20
 246 886 246 886 268 886 c 0,21,22
 290 886 290 886 306.5 869.5 c 128,-1,23
 323 853 323 853 323 831 c 256,12,13
685 628 m 1,24,-1
 627 624 l 2,25,26
 616 624 616 624 611 616.5 c 128,-1,27
 606 609 606 609 606 602 c 2,28,-1
 606 222 l 2,29,30
 606 99 606 99 540.5 41.5 c 128,-1,31
 475 -16 475 -16 349 -16 c 0,32,33
 225 -16 225 -16 165 44 c 128,-1,34
 105 104 105 104 105 222 c 2,35,-1
 105 602 l 2,36,37
 105 609 105 609 100 616.5 c 128,-1,38
 95 624 95 624 84 624 c 2,39,-1
 31 628 l 1,40,-1
 31 671 l 1,41,-1
 285 671 l 1,42,-1
 285 628 l 1,43,-1
 228 624 l 2,44,45
 217 624 217 624 212 616.5 c 128,-1,46
 207 609 207 609 207 602 c 2,47,-1
 207 248 l 2,48,49
 207 189 207 189 220 145 c 128,-1,50
 233 101 233 101 270 76 c 128,-1,51
 307 51 307 51 376 51 c 256,52,53
 445 51 445 51 482 77 c 128,-1,54
 519 103 519 103 533 148 c 128,-1,55
 547 193 547 193 547 248 c 2,56,-1
 547 602 l 2,57,58
 547 609 547 609 541.5 616.5 c 128,-1,59
 536 624 536 624 525 624 c 2,60,-1
 468 628 l 1,61,-1
 468 671 l 1,62,-1
 685 671 l 1,63,-1
 685 628 l 1,24,-1
EndSplineSet
EndChar

StartChar: Yacute
Encoding: 221 221 185
Width: 625
Flags: W
LayerCount: 2
Fore
SplineSet
476 882 m 0,0,1
 476 855 476 855 453 841 c 2,2,-1
 301 744 l 1,3,-1
 244 744 l 1,4,-1
 377 899 l 2,5,6
 388 912 388 912 399 919 c 128,-1,7
 410 926 410 926 430 926 c 0,8,9
 456 926 456 926 466 911.5 c 128,-1,10
 476 897 476 897 476 882 c 0,0,1
616 628 m 1,11,-1
 562 618 l 1,12,-1
 361 285 l 1,13,-1
 361 69 l 2,14,15
 361 62 361 62 366.5 55 c 128,-1,16
 372 48 372 48 382 47 c 2,17,-1
 446 43 l 1,18,-1
 446 0 l 1,19,-1
 176 0 l 1,20,-1
 176 43 l 1,21,-1
 238 47 l 2,22,23
 249 48 249 48 254.5 55 c 128,-1,24
 260 62 260 62 260 69 c 2,25,-1
 260 270 l 1,26,-1
 68 616 l 1,27,-1
 10 628 l 1,28,-1
 10 671 l 1,29,-1
 247 671 l 1,30,-1
 247 628 l 1,31,-1
 197 623 l 2,32,33
 183 621 183 621 183 611 c 0,34,35
 183 606 183 606 185 603 c 2,36,-1
 326 342 l 1,37,-1
 481 600 l 2,38,39
 483 603 483 603 483 607 c 0,40,41
 483 619 483 619 469 621 c 2,42,-1
 413 628 l 1,43,-1
 413 671 l 1,44,-1
 616 671 l 1,45,-1
 616 628 l 1,11,-1
EndSplineSet
EndChar

StartChar: Thorn
Encoding: 222 222 186
Width: 578
Flags: W
LayerCount: 2
Fore
SplineSet
539 346 m 0,0,1
 539 277 539 277 506 229.5 c 128,-1,2
 473 182 473 182 415 157 c 128,-1,3
 357 132 357 132 281 132 c 2,4,-1
 278 132 l 2,5,6
 264 132 264 132 247.5 133.5 c 128,-1,7
 231 135 231 135 219 136 c 0,8,-1
 207 137 l 1,9,-1
 207 69 l 2,10,11
 207 60 207 60 213.5 54 c 128,-1,12
 220 48 220 48 229 47 c 2,13,-1
 287 43 l 1,14,-1
 287 0 l 1,15,-1
 32 0 l 1,16,-1
 32 43 l 1,17,-1
 83 47 l 2,18,19
 92 48 92 48 98.5 54 c 128,-1,20
 105 60 105 60 105 69 c 2,21,-1
 105 602 l 2,22,23
 105 611 105 611 98.5 617.5 c 128,-1,24
 92 624 92 624 83 624 c 2,25,-1
 32 628 l 1,26,-1
 32 671 l 1,27,-1
 287 671 l 1,28,-1
 287 628 l 1,29,-1
 229 624 l 2,30,31
 220 624 220 624 213.5 617.5 c 128,-1,32
 207 611 207 611 207 602 c 2,33,-1
 207 545 l 1,34,-1
 275 545 l 1,35,36
 412 543 412 543 475.5 497 c 128,-1,37
 539 451 539 451 539 346 c 0,0,1
425 346 m 0,38,39
 425 418 425 418 391 458.5 c 128,-1,40
 357 499 357 499 269 499 c 0,41,42
 266 499 266 499 262 498.5 c 128,-1,43
 258 498 258 498 254 498 c 0,44,45
 248 499 l 0,46,47
 239 499 239 499 223 497.5 c 0,48,-1
 207 496 l 1,49,-1
 207 187 l 1,50,51
 217.5 186 l 0,52,53
 228 185 228 185 242 184 c 128,-1,54
 256 183 256 183 265 183 c 2,55,-1
 268 183 l 2,56,57
 347 183 347 183 386 222.5 c 128,-1,58
 425 262 425 262 425 346 c 0,38,39
EndSplineSet
EndChar

StartChar: germandbls
Encoding: 223 223 187
Width: 627
Flags: W
LayerCount: 2
Fore
SplineSet
594 149 m 0,0,1
 594 100 594 100 570.5 63.5 c 128,-1,2
 547 27 547 27 507.5 7.5 c 128,-1,3
 468 -12 468 -12 420 -12 c 0,4,5
 397 -12 397 -12 369.5 -6 c 128,-1,6
 342 0 342 0 322 6.5 c 0,7,-1
 302 13 l 1,8,-1
 302 147 l 1,9,-1
 356 147 l 1,10,-1
 365 60 l 1,11,12
 373 52 373 52 388.5 43.5 c 128,-1,13
 404 35 404 35 425 35 c 0,14,15
 463 35 463 35 486 61 c 128,-1,16
 509 87 509 87 509 120 c 128,-1,17
 509 153 509 153 487.5 175.5 c 128,-1,18
 466 198 466 198 434 216 c 128,-1,19
 402 234 402 234 370 253 c 128,-1,20
 338 272 338 272 316.5 297.5 c 128,-1,21
 295 323 295 323 295 362 c 0,22,23
 295 416 295 416 329.5 452 c 128,-1,24
 364 488 364 488 416 499 c 1,25,-1
 418 511.5 l 0,26,27
 420 524 420 524 422.5 541 c 128,-1,28
 425 558 425 558 425 571 c 0,29,30
 425 616 425 616 400.5 651.5 c 128,-1,31
 376 687 376 687 324 687 c 0,32,33
 278 687 278 687 250 662.5 c 128,-1,34
 222 638 222 638 207.5 601.5 c 128,-1,35
 193 565 193 565 188 527.5 c 128,-1,36
 183 490 183 490 183 463 c 2,37,-1
 183 66 l 2,38,39
 183 55 183 55 188 49 c 128,-1,40
 193 43 193 43 198 42 c 2,41,-1
 249 38 l 1,42,-1
 249 0 l 1,43,-1
 22 0 l 1,44,-1
 22 38 l 1,45,-1
 70 43 l 2,46,47
 79 44 79 44 84.5 52 c 128,-1,48
 90 60 90 60 90 66 c 2,49,-1
 90 453 l 2,50,51
 90 505 90 505 104.5 555 c 128,-1,52
 119 605 119 605 150 646.5 c 128,-1,53
 181 688 181 688 228.5 712.5 c 128,-1,54
 276 737 276 737 342 737 c 0,55,56
 428 737 428 737 472.5 691.5 c 128,-1,57
 517 646 517 646 517 571 c 0,58,59
 517 547 517 547 513 523.5 c 128,-1,60
 509 500 509 500 504.5 485 c 128,-1,61
 500 470 500 470 500 467 c 0,62,63
 499 467 499 467 494 468 c 128,-1,64
 489 469 489 469 478 469 c 0,65,66
 427 469 427 469 406 446 c 128,-1,67
 385 423 385 423 385 393 c 0,68,69
 385 364 385 364 406 343.5 c 128,-1,70
 427 323 427 323 458.5 306 c 128,-1,71
 490 289 490 289 521 269 c 128,-1,72
 552 249 552 249 573 220.5 c 128,-1,73
 594 192 594 192 594 149 c 0,0,1
EndSplineSet
EndChar

StartChar: agrave
Encoding: 224 224 188
Width: 508
Flags: W
LayerCount: 2
Fore
SplineSet
492 0 m 1,0,-1
 344 0 l 1,1,-1
 331 59 l 1,2,3
 316 48.5 l 0,4,5
 301 38 301 38 276.5 23.5 c 128,-1,6
 252 9 252 9 222.5 -1.5 c 128,-1,7
 193 -12 193 -12 164 -12 c 0,8,9
 110 -12 110 -12 72 24 c 128,-1,10
 34 60 34 60 34 123 c 0,11,12
 34 151 34 151 44 175 c 128,-1,13
 54 199 54 199 84 220.5 c 128,-1,14
 114 242 114 242 173.5 263 c 128,-1,15
 233 284 233 284 331 305 c 1,16,-1
 331 348 l 2,17,18
 331 447 331 447 238 447 c 0,19,20
 212 447 212 447 193 442 c 128,-1,21
 174 437 174 437 167 434 c 1,22,-1
 167 347 l 1,23,-1
 94 347 l 2,24,25
 80 347 80 347 68.5 352 c 128,-1,26
 57 357 57 357 57 376 c 0,27,28
 57 417 57 417 88.5 443 c 128,-1,29
 120 469 120 469 168 481.5 c 128,-1,30
 216 494 216 494 265 494 c 0,31,32
 327 494 327 494 361.5 475 c 128,-1,33
 396 456 396 456 409.5 422 c 128,-1,34
 423 388 423 388 423 344 c 2,35,-1
 423 64 l 2,36,37
 423 55 423 55 429 49 c 128,-1,38
 435 43 435 43 444 42 c 2,39,-1
 492 39 l 1,40,-1
 492 0 l 1,0,-1
331 94 m 1,41,-1
 331 267 l 1,42,43
 264 250 264 250 224 233.5 c 128,-1,44
 184 217 184 217 164.5 200 c 128,-1,45
 145 183 145 183 139 165.5 c 128,-1,46
 133 148 133 148 133 130 c 0,47,48
 133 99 133 99 152.5 73 c 128,-1,49
 172 47 172 47 208 47 c 0,50,51
 228 47 228 47 249.5 54 c 128,-1,52
 271 61 271 61 289.5 70.5 c 128,-1,53
 308 80 308 80 314 83.5 c 0,54,-1
 331 94 l 1,41,-1
314 551 m 1,55,-1
 257 551 l 1,56,-1
 105 648 l 2,57,58
 82 663 82 663 82 688 c 0,59,60
 82 703 82 703 92 718 c 128,-1,61
 102 733 102 733 128 733 c 0,62,63
 148 733 148 733 158.5 726 c 128,-1,64
 169 719 169 719 180 706 c 2,65,-1
 314 551 l 1,55,-1
EndSplineSet
EndChar

StartChar: aacute
Encoding: 225 225 189
Width: 508
Flags: W
LayerCount: 2
Fore
SplineSet
492 0 m 1,0,-1
 344 0 l 1,1,-1
 331 59 l 1,2,3
 316 48.5 l 0,4,5
 301 38 301 38 276.5 23.5 c 128,-1,6
 252 9 252 9 222.5 -1.5 c 128,-1,7
 193 -12 193 -12 164 -12 c 0,8,9
 110 -12 110 -12 72 24 c 128,-1,10
 34 60 34 60 34 123 c 0,11,12
 34 151 34 151 44 175 c 128,-1,13
 54 199 54 199 84 220.5 c 128,-1,14
 114 242 114 242 173.5 263 c 128,-1,15
 233 284 233 284 331 305 c 1,16,-1
 331 348 l 2,17,18
 331 447 331 447 238 447 c 0,19,20
 212 447 212 447 193 442 c 128,-1,21
 174 437 174 437 167 434 c 1,22,-1
 167 347 l 1,23,-1
 94 347 l 2,24,25
 80 347 80 347 68.5 352 c 128,-1,26
 57 357 57 357 57 376 c 0,27,28
 57 417 57 417 88.5 443 c 128,-1,29
 120 469 120 469 168 481.5 c 128,-1,30
 216 494 216 494 265 494 c 0,31,32
 327 494 327 494 361.5 475 c 128,-1,33
 396 456 396 456 409.5 422 c 128,-1,34
 423 388 423 388 423 344 c 2,35,-1
 423 64 l 2,36,37
 423 55 423 55 429 49 c 128,-1,38
 435 43 435 43 444 42 c 2,39,-1
 492 39 l 1,40,-1
 492 0 l 1,0,-1
331 94 m 1,41,-1
 331 267 l 1,42,43
 264 250 264 250 224 233.5 c 128,-1,44
 184 217 184 217 164.5 200 c 128,-1,45
 145 183 145 183 139 165.5 c 128,-1,46
 133 148 133 148 133 130 c 0,47,48
 133 99 133 99 152.5 73 c 128,-1,49
 172 47 172 47 208 47 c 0,50,51
 228 47 228 47 249.5 54 c 128,-1,52
 271 61 271 61 289.5 70.5 c 128,-1,53
 308 80 308 80 314 83.5 c 0,54,-1
 331 94 l 1,41,-1
420 688 m 0,55,56
 420 663 420 663 397 648 c 2,57,-1
 245 551 l 1,58,-1
 188 551 l 1,59,-1
 322 706 l 2,60,61
 333 719 333 719 343.5 726 c 128,-1,62
 354 733 354 733 374 733 c 0,63,64
 400 733 400 733 410 718 c 128,-1,65
 420 703 420 703 420 688 c 0,55,56
EndSplineSet
EndChar

StartChar: acircumflex
Encoding: 226 226 190
Width: 508
Flags: W
LayerCount: 2
Fore
SplineSet
492 0 m 1,0,-1
 344 0 l 1,1,-1
 331 59 l 1,2,3
 316 48.5 l 0,4,5
 301 38 301 38 276.5 23.5 c 128,-1,6
 252 9 252 9 222.5 -1.5 c 128,-1,7
 193 -12 193 -12 164 -12 c 0,8,9
 110 -12 110 -12 72 24 c 128,-1,10
 34 60 34 60 34 123 c 0,11,12
 34 151 34 151 44 175 c 128,-1,13
 54 199 54 199 84 220.5 c 128,-1,14
 114 242 114 242 173.5 263 c 128,-1,15
 233 284 233 284 331 305 c 1,16,-1
 331 348 l 2,17,18
 331 447 331 447 238 447 c 0,19,20
 212 447 212 447 193 442 c 128,-1,21
 174 437 174 437 167 434 c 1,22,-1
 167 347 l 1,23,-1
 94 347 l 2,24,25
 80 347 80 347 68.5 352 c 128,-1,26
 57 357 57 357 57 376 c 0,27,28
 57 417 57 417 88.5 443 c 128,-1,29
 120 469 120 469 168 481.5 c 128,-1,30
 216 494 216 494 265 494 c 0,31,32
 327 494 327 494 361.5 475 c 128,-1,33
 396 456 396 456 409.5 422 c 128,-1,34
 423 388 423 388 423 344 c 2,35,-1
 423 64 l 2,36,37
 423 55 423 55 429 49 c 128,-1,38
 435 43 435 43 444 42 c 2,39,-1
 492 39 l 1,40,-1
 492 0 l 1,0,-1
331 94 m 1,41,-1
 331 267 l 1,42,43
 264 250 264 250 224 233.5 c 128,-1,44
 184 217 184 217 164.5 200 c 128,-1,45
 145 183 145 183 139 165.5 c 128,-1,46
 133 148 133 148 133 130 c 0,47,48
 133 99 133 99 152.5 73 c 128,-1,49
 172 47 172 47 208 47 c 0,50,51
 228 47 228 47 249.5 54 c 128,-1,52
 271 61 271 61 289.5 70.5 c 128,-1,53
 308 80 308 80 314 83.5 c 0,54,-1
 331 94 l 1,41,-1
404 551 m 1,55,-1
 344 551 l 1,56,-1
 241 650 l 1,57,-1
 138 551 l 1,58,-1
 77 551 l 1,59,-1
 203 720 l 1,60,-1
 279 720 l 1,61,-1
 404 551 l 1,55,-1
EndSplineSet
EndChar

StartChar: atilde
Encoding: 227 227 191
Width: 508
Flags: W
LayerCount: 2
Fore
SplineSet
492 0 m 1,0,-1
 344 0 l 1,1,-1
 331 59 l 1,2,3
 316 48.5 l 0,4,5
 301 38 301 38 276.5 23.5 c 128,-1,6
 252 9 252 9 222.5 -1.5 c 128,-1,7
 193 -12 193 -12 164 -12 c 0,8,9
 110 -12 110 -12 72 24 c 128,-1,10
 34 60 34 60 34 123 c 0,11,12
 34 151 34 151 44 175 c 128,-1,13
 54 199 54 199 84 220.5 c 128,-1,14
 114 242 114 242 173.5 263 c 128,-1,15
 233 284 233 284 331 305 c 1,16,-1
 331 348 l 2,17,18
 331 447 331 447 238 447 c 0,19,20
 212 447 212 447 193 442 c 128,-1,21
 174 437 174 437 167 434 c 1,22,-1
 167 347 l 1,23,-1
 94 347 l 2,24,25
 80 347 80 347 68.5 352 c 128,-1,26
 57 357 57 357 57 376 c 0,27,28
 57 417 57 417 88.5 443 c 128,-1,29
 120 469 120 469 168 481.5 c 128,-1,30
 216 494 216 494 265 494 c 0,31,32
 327 494 327 494 361.5 475 c 128,-1,33
 396 456 396 456 409.5 422 c 128,-1,34
 423 388 423 388 423 344 c 2,35,-1
 423 64 l 2,36,37
 423 55 423 55 429 49 c 128,-1,38
 435 43 435 43 444 42 c 2,39,-1
 492 39 l 1,40,-1
 492 0 l 1,0,-1
331 94 m 1,41,-1
 331 267 l 1,42,43
 264 250 264 250 224 233.5 c 128,-1,44
 184 217 184 217 164.5 200 c 128,-1,45
 145 183 145 183 139 165.5 c 128,-1,46
 133 148 133 148 133 130 c 0,47,48
 133 99 133 99 152.5 73 c 128,-1,49
 172 47 172 47 208 47 c 0,50,51
 228 47 228 47 249.5 54 c 128,-1,52
 271 61 271 61 289.5 70.5 c 128,-1,53
 308 80 308 80 314 83.5 c 0,54,-1
 331 94 l 1,41,-1
422 695 m 1,55,56
 411 651 411 651 383 618 c 128,-1,57
 355 585 355 585 306 585 c 0,58,59
 280 585 280 585 260.5 597 c 128,-1,60
 241 609 241 609 220.5 621 c 128,-1,61
 200 633 200 633 167 633 c 0,62,63
 147 633 147 633 132.5 618 c 128,-1,64
 118 603 118 603 115 585 c 1,65,-1
 75 585 l 1,66,67
 86 629 86 629 114 662 c 128,-1,68
 142 695 142 695 191 695 c 0,69,70
 218 695 218 695 236.5 683 c 128,-1,71
 255 671 255 671 276 659 c 128,-1,72
 297 647 297 647 329 647 c 0,73,74
 349 647 349 647 364.5 662 c 128,-1,75
 380 677 380 677 382 695 c 1,76,-1
 422 695 l 1,55,56
EndSplineSet
EndChar

StartChar: adieresis
Encoding: 228 228 192
Width: 508
Flags: W
LayerCount: 2
Fore
SplineSet
492 0 m 1,0,-1
 344 0 l 1,1,-1
 331 59 l 1,2,3
 316 48.5 l 0,4,5
 301 38 301 38 276.5 23.5 c 128,-1,6
 252 9 252 9 222.5 -1.5 c 128,-1,7
 193 -12 193 -12 164 -12 c 0,8,9
 110 -12 110 -12 72 24 c 128,-1,10
 34 60 34 60 34 123 c 0,11,12
 34 151 34 151 44 175 c 128,-1,13
 54 199 54 199 84 220.5 c 128,-1,14
 114 242 114 242 173.5 263 c 128,-1,15
 233 284 233 284 331 305 c 1,16,-1
 331 348 l 2,17,18
 331 447 331 447 238 447 c 0,19,20
 212 447 212 447 193 442 c 128,-1,21
 174 437 174 437 167 434 c 1,22,-1
 167 347 l 1,23,-1
 94 347 l 2,24,25
 80 347 80 347 68.5 352 c 128,-1,26
 57 357 57 357 57 376 c 0,27,28
 57 417 57 417 88.5 443 c 128,-1,29
 120 469 120 469 168 481.5 c 128,-1,30
 216 494 216 494 265 494 c 0,31,32
 327 494 327 494 361.5 475 c 128,-1,33
 396 456 396 456 409.5 422 c 128,-1,34
 423 388 423 388 423 344 c 2,35,-1
 423 64 l 2,36,37
 423 55 423 55 429 49 c 128,-1,38
 435 43 435 43 444 42 c 2,39,-1
 492 39 l 1,40,-1
 492 0 l 1,0,-1
331 94 m 1,41,-1
 331 267 l 1,42,43
 264 250 264 250 224 233.5 c 128,-1,44
 184 217 184 217 164.5 200 c 128,-1,45
 145 183 145 183 139 165.5 c 128,-1,46
 133 148 133 148 133 130 c 0,47,48
 133 99 133 99 152.5 73 c 128,-1,49
 172 47 172 47 208 47 c 0,50,51
 228 47 228 47 249.5 54 c 128,-1,52
 271 61 271 61 289.5 70.5 c 128,-1,53
 308 80 308 80 314 83.5 c 0,54,-1
 331 94 l 1,41,-1
410 641 m 256,55,56
 410 619 410 619 393.5 602 c 128,-1,57
 377 585 377 585 355 585 c 256,58,59
 333 585 333 585 317 602 c 128,-1,60
 301 619 301 619 301 641 c 0,61,62
 301 662 301 662 317.5 679 c 128,-1,63
 334 696 334 696 355 696 c 0,64,65
 377 696 377 696 393.5 679.5 c 128,-1,66
 410 663 410 663 410 641 c 256,55,56
202 641 m 256,67,68
 202 619 202 619 185.5 602 c 128,-1,69
 169 585 169 585 147 585 c 0,70,71
 126 585 126 585 110 601.5 c 128,-1,72
 94 618 94 618 94 640 c 0,73,74
 94 661 94 661 110 678.5 c 128,-1,75
 126 696 126 696 148 696 c 0,76,77
 171 696 171 696 186.5 679.5 c 128,-1,78
 202 663 202 663 202 641 c 256,67,68
EndSplineSet
EndChar

StartChar: aring
Encoding: 229 229 193
Width: 508
Flags: W
LayerCount: 2
Fore
SplineSet
492 0 m 1,0,-1
 344 0 l 1,1,-1
 331 59 l 1,2,3
 316 48.5 l 0,4,5
 301 38 301 38 276.5 23.5 c 128,-1,6
 252 9 252 9 222.5 -1.5 c 128,-1,7
 193 -12 193 -12 164 -12 c 0,8,9
 110 -12 110 -12 72 24 c 128,-1,10
 34 60 34 60 34 123 c 0,11,12
 34 151 34 151 44 175 c 128,-1,13
 54 199 54 199 84 220.5 c 128,-1,14
 114 242 114 242 173.5 263 c 128,-1,15
 233 284 233 284 331 305 c 1,16,-1
 331 348 l 2,17,18
 331 447 331 447 238 447 c 0,19,20
 212 447 212 447 193 442 c 128,-1,21
 174 437 174 437 167 434 c 1,22,-1
 167 347 l 1,23,-1
 94 347 l 2,24,25
 80 347 80 347 68.5 352 c 128,-1,26
 57 357 57 357 57 376 c 0,27,28
 57 417 57 417 88.5 443 c 128,-1,29
 120 469 120 469 168 481.5 c 128,-1,30
 216 494 216 494 265 494 c 0,31,32
 327 494 327 494 361.5 475 c 128,-1,33
 396 456 396 456 409.5 422 c 128,-1,34
 423 388 423 388 423 344 c 2,35,-1
 423 64 l 2,36,37
 423 55 423 55 429 49 c 128,-1,38
 435 43 435 43 444 42 c 2,39,-1
 492 39 l 1,40,-1
 492 0 l 1,0,-1
374 670 m 128,-1,42
 374 637 374 637 358 610 c 128,-1,43
 342 583 342 583 315 567 c 128,-1,44
 288 551 288 551 255 551 c 128,-1,45
 222 551 222 551 195 567 c 128,-1,46
 168 583 168 583 152 610 c 128,-1,47
 136 637 136 637 136 670 c 128,-1,48
 136 703 136 703 152 730 c 128,-1,49
 168 757 168 757 195 773 c 128,-1,50
 222 789 222 789 255 789 c 128,-1,51
 288 789 288 789 315 773 c 128,-1,52
 342 757 342 757 358 730 c 128,-1,41
 374 703 374 703 374 670 c 128,-1,42
331 94 m 1,53,-1
 331 267 l 1,54,55
 264 250 264 250 224 233.5 c 128,-1,56
 184 217 184 217 164.5 200 c 128,-1,57
 145 183 145 183 139 165.5 c 128,-1,58
 133 148 133 148 133 130 c 0,59,60
 133 99 133 99 152.5 73 c 128,-1,61
 172 47 172 47 208 47 c 0,62,63
 228 47 228 47 249.5 54 c 128,-1,64
 271 61 271 61 289.5 70.5 c 128,-1,65
 308 80 308 80 314 83.5 c 0,66,-1
 331 94 l 1,53,-1
325 670 m 256,67,68
 325 699 325 699 304.5 719.5 c 128,-1,69
 284 740 284 740 255 740 c 256,70,71
 226 740 226 740 205.5 719.5 c 128,-1,72
 185 699 185 699 185 670 c 256,73,74
 185 641 185 641 205.5 620.5 c 128,-1,75
 226 600 226 600 255 600 c 256,76,77
 284 600 284 600 304.5 620.5 c 128,-1,78
 325 641 325 641 325 670 c 256,67,68
EndSplineSet
EndChar

